Monoto-CondensedLight.ufo
<glyph name="quotedbl" format="2">
  <advance width="300"/>
  <unicode hex="0022"/>
  <outline>
    <contour>
      <point x="183" y="456" type="line"/>
      <point x="202" y="456" type="line"/>
      <point x="206" y="714" type="line"/>
      <point x="179" y="714" type="line"/>
    </contour>
    <contour>
      <point x="98" y="456" type="line"/>
      <point x="116" y="456" type="line"/>
      <point x="120" y="714" type="line"/>
      <point x="93" y="714" type="line"/>
    </contour>
  </outline>
</glyph>
<glyph name="numbersign" format="2">
  <advance width="300"/>
  <unicode hex="0023"/>
  <outline>
    <contour>
      <point x="66" y="0" type="line"/>
      <point x="86" y="0" type="line"/>
      <point x="105" y="231" type="line"/>
      <point x="174" y="231" type="line"/>
      <point x="155" y="0" type="line"/>
      <point x="176" y="0" type="line"/>
      <point x="195" y="231" type="line"/>
      <point x="259" y="231" type="line"/>
      <point x="259" y="255" type="line"/>
      <point x="197" y="255" type="line"/>
      <point x="213" y="471" type="line"/>
      <point x="275" y="471" type="line"/>
      <point x="275" y="495" type="line"/>
      <point x="216" y="495" type="line"/>
      <point x="233" y="714" type="line"/>
      <point x="213" y="714" type="line"/>
      <point x="195" y="495" type="line"/>
      <point x="127" y="495" type="line"/>
      <point x="144" y="714" type="line"/>
      <point x="123" y="714" type="line"/>
      <point x="106" y="495" type="line"/>
      <point x="41" y="495" type="line"/>
      <point x="41" y="471" type="line"/>
      <point x="103" y="471" type="line"/>
      <point x="87" y="255" type="line"/>
      <point x="25" y="255" type="line"/>
      <point x="25" y="231" type="line"/>
      <point x="84" y="231" type="line"/>
    </contour>
    <contour>
      <point x="107" y="255" type="line"/>
      <point x="124" y="471" type="line"/>
      <point x="193" y="471" type="line"/>
      <point x="177" y="255" type="line"/>
    </contour>
  </outline>
</glyph>
<glyph name="dollar" format="2">
  <advance width="300"/>
  <unicode hex="0024"/>
  <outline>
    <contour>
      <point x="147" y="-58" type="line"/>
      <point x="165" y="-58" type="line"/>
      <point x="165" y="26" type="line"/>
      <point x="225" y="34"/>
      <point x="261" y="91"/>
      <point x="261" y="187" type="curve" smooth="yes"/>
      <point x="261" y="283"/>
      <point x="227" y="325"/>
      <point x="165" y="371" type="curve"/>
      <point x="165" y="670" type="line"/>
      <point x="190" y="670"/>
      <point x="213" y="659"/>
      <point x="237" y="636" type="curve"/>
      <point x="246" y="660" type="line"/>
      <point x="220" y="683"/>
      <point x="194" y="695"/>
      <point x="165" y="696" type="curve"/>
      <point x="165" y="760" type="line"/>
      <point x="147" y="760" type="line"/>
      <point x="147" y="695" type="line"/>
      <point x="93" y="689"/>
      <point x="55" y="633"/>
      <point x="55" y="537" type="curve" smooth="yes"/>
      <point x="55" y="436"/>
      <point x="90" y="395"/>
      <point x="147" y="354" type="curve"/>
      <point x="147" y="51" type="line"/>
      <point x="114" y="52"/>
      <point x="80" y="68"/>
      <point x="58" y="86" type="curve"/>
      <point x="58" y="57" type="line"/>
      <point x="79" y="42"/>
      <point x="111" y="27"/>
      <point x="147" y="26" type="curve"/>
    </contour>
    <contour>
      <point x="165" y="52" type="curve"/>
      <point x="165" y="343" type="line"/>
      <point x="214" y="300"/>
      <point x="238" y="266"/>
      <point x="238" y="187" type="curve" smooth="yes"/>
      <point x="238" y="101"/>
      <point x="209" y="57"/>
    </contour>
    <contour>
      <point x="147" y="381" type="line"/>
      <point x="105" y="416"/>
      <point x="78" y="451"/>
      <point x="78" y="538" type="curve" smooth="yes"/>
      <point x="78" y="621"/>
      <point x="107" y="665"/>
      <point x="147" y="670" type="curve"/>
    </contour>
  </outline>
</glyph>
<glyph name="ampersand" format="2">
  <advance width="300"/>
  <unicode hex="0026"/>
  <outline>
    <contour>
      <point x="121" y="-10" type="curve" smooth="yes"/>
      <point x="209" y="-10"/>
      <point x="255" y="149"/>
      <point x="263" y="317" type="curve"/>
      <point x="240" y="317" type="line"/>
      <point x="234" y="175"/>
      <point x="193" y="15"/>
      <point x="123" y="15" type="curve" smooth="yes"/>
      <point x="84" y="15"/>
      <point x="56" y="75"/>
      <point x="56" y="176" type="curve" smooth="yes"/>
      <point x="56" y="265"/>
      <point x="84" y="327"/>
      <point x="124" y="379" type="curve" smooth="yes"/>
      <point x="164" y="431"/>
      <point x="198" y="489"/>
      <point x="198" y="581" type="curve" smooth="yes"/>
      <point x="198" y="675"/>
      <point x="171" y="725"/>
      <point x="129" y="725" type="curve" smooth="yes"/>
      <point x="87" y="725"/>
      <point x="59" y="670"/>
      <point x="59" y="582" type="curve" smooth="yes"/>
      <point x="59" y="512"/>
      <point x="80" y="453"/>
      <point x="107" y="382" type="curve" smooth="yes"/>
      <point x="251" y="0" type="line"/>
      <point x="278" y="0" type="line"/>
      <point x="126" y="394" type="line" smooth="yes"/>
      <point x="101" y="457"/>
      <point x="81" y="516"/>
      <point x="81" y="582" type="curve" smooth="yes"/>
      <point x="81" y="654"/>
      <point x="99" y="700"/>
      <point x="130" y="700" type="curve" smooth="yes"/>
      <point x="158" y="700"/>
      <point x="175" y="655"/>
      <point x="175" y="581" type="curve" smooth="yes"/>
      <point x="175" y="505"/>
      <point x="144" y="447"/>
      <point x="108" y="399" type="curve" smooth="yes"/>
      <point x="65" y="342"/>
      <point x="32" y="277"/>
      <point x="32" y="176" type="curve" smooth="yes"/>
      <point x="32" y="60"/>
      <point x="66" y="-10"/>
    </contour>
  </outline>
</glyph>
<glyph name="parenleft" format="2">
  <advance width="300"/>
  <unicode hex="0028"/>
  <outline>
    <contour>
      <point x="189" y="-158" type="curve"/>
      <point x="212" y="-158" type="line"/>
      <point x="159" y="-39"/>
      <point x="133" y="109"/>
      <point x="133" y="275" type="curve" smooth="yes"/>
      <point x="133" y="443"/>
      <point x="158" y="596"/>
      <point x="212" y="714" type="curve"/>
      <point x="189" y="714" type="line"/>
      <point x="138" y="606"/>
      <point x="108" y="451"/>
      <point x="108" y="274" type="curve" smooth="yes"/>
      <point x="108" y="99"/>
      <point x="137" y="-46"/>
    </contour>
  </outline>
</glyph>
<glyph name="comma" format="2">
  <advance width="300"/>
  <unicode hex="002C"/>
  <outline>
    <contour>
      <point x="117" y="-129" type="curve"/>
      <point x="137" y="-129" type="line"/>
      <point x="153" y="-60"/>
      <point x="167" y="30"/>
      <point x="176" y="104" type="curve"/>
      <point x="173" y="116" type="line"/>
      <point x="147" y="116" type="line"/>
      <point x="141" y="40"/>
      <point x="132" y="-32"/>
    </contour>
  </outline>
</glyph>
<glyph name="period" format="2">
  <advance width="300"/>
  <unicode hex="002E"/>
  <outline>
    <contour>
      <point x="150" y="-12" type="curve" smooth="yes"/>
      <point x="164" y="-12"/>
      <point x="171" y="4"/>
      <point x="171" y="23" type="curve" smooth="yes"/>
      <point x="171" y="41"/>
      <point x="164" y="58"/>
      <point x="150" y="58" type="curve" smooth="yes"/>
      <point x="134" y="58"/>
      <point x="128" y="41"/>
      <point x="128" y="23" type="curve" smooth="yes"/>
      <point x="128" y="4"/>
      <point x="134" y="-12"/>
    </contour>
  </outline>
</glyph>
<glyph name="slash" format="2">
  <advance width="300"/>
  <unicode hex="002F"/>
  <outline>
    <contour>
      <point x="52" y="0" type="line"/>
      <point x="76" y="0" type="line"/>
      <point x="225" y="714" type="line"/>
      <point x="201" y="714" type="line"/>
    </contour>
  </outline>
</glyph>
<glyph name="two" format="2">
  <advance width="300"/>
  <unicode hex="0032"/>
  <outline>
    <contour>
      <point x="46" y="0" type="line"/>
      <point x="256" y="0" type="line"/>
      <point x="256" y="25" type="line"/>
      <point x="79" y="25" type="line"/>
      <point x="79" y="27" type="line"/>
      <point x="165" y="234" type="line" smooth="yes"/>
      <point x="207" y="336"/>
      <point x="242" y="418"/>
      <point x="242" y="539" type="curve" smooth="yes"/>
      <point x="242" y="657"/>
      <point x="204" y="724"/>
      <point x="146" y="724" type="curve" smooth="yes"/>
      <point x="111" y="724"/>
      <point x="79" y="705"/>
      <point x="52" y="668" type="curve"/>
      <point x="66" y="648" type="line"/>
      <point x="88" y="680"/>
      <point x="116" y="699"/>
      <point x="145" y="699" type="curve" smooth="yes"/>
      <point x="188" y="699"/>
      <point x="217" y="646"/>
      <point x="217" y="539" type="curve" smooth="yes"/>
      <point x="217" y="427"/>
      <point x="187" y="356"/>
      <point x="144" y="254" type="curve" smooth="yes"/>
      <point x="46" y="21" type="line"/>
    </contour>
  </outline>
</glyph>
<glyph name="four" format="2">
  <advance width="300"/>
  <unicode hex="0034"/>
  <outline>
    <contour>
      <point x="190" y="0" type="line"/>
      <point x="215" y="0" type="line"/>
      <point x="215" y="185" type="line"/>
      <point x="263" y="185" type="line"/>
      <point x="263" y="210" type="line"/>
      <point x="215" y="210" type="line"/>
      <point x="215" y="718" type="line"/>
      <point x="184" y="718" type="line"/>
      <point x="36" y="207" type="line"/>
      <point x="36" y="185" type="line"/>
      <point x="190" y="185" type="line"/>
    </contour>
    <contour>
      <point x="62" y="210" type="line"/>
      <point x="162" y="582" type="line" smooth="yes"/>
      <point x="172" y="619"/>
      <point x="181" y="646"/>
      <point x="190" y="682" type="curve"/>
      <point x="191" y="682" type="line"/>
      <point x="190" y="645"/>
      <point x="190" y="626"/>
      <point x="190" y="571" type="curve" smooth="yes"/>
      <point x="190" y="210" type="line"/>
    </contour>
  </outline>
</glyph>
<glyph name="six" format="2">
  <advance width="300"/>
  <unicode hex="0036"/>
  <outline>
    <contour>
      <point x="151" y="-12" type="curve" smooth="yes"/>
      <point x="216" y="-12"/>
      <point x="254" y="80"/>
      <point x="254" y="221" type="curve" smooth="yes"/>
      <point x="254" y="350"/>
      <point x="219" y="438"/>
      <point x="158" y="438" type="curve" smooth="yes"/>
      <point x="107" y="438"/>
      <point x="80" y="374"/>
      <point x="68" y="328" type="curve"/>
      <point x="67" y="328" type="line"/>
      <point x="69" y="586"/>
      <point x="111" y="698"/>
      <point x="186" y="698" type="curve" smooth="yes"/>
      <point x="203" y="698"/>
      <point x="219" y="692"/>
      <point x="231" y="684" type="curve"/>
      <point x="231" y="710" type="line"/>
      <point x="219" y="718"/>
      <point x="203" y="723"/>
      <point x="186" y="723" type="curve" smooth="yes"/>
      <point x="97" y="723"/>
      <point x="42" y="617"/>
      <point x="42" y="305" type="curve" smooth="yes"/>
      <point x="42" y="119"/>
      <point x="77" y="-12"/>
    </contour>
    <contour>
      <point x="152" y="13" type="curve" smooth="yes"/>
      <point x="86" y="13"/>
      <point x="70" y="169"/>
      <point x="70" y="248" type="curve" smooth="yes"/>
      <point x="70" y="335"/>
      <point x="102" y="413"/>
      <point x="153" y="413" type="curve" smooth="yes"/>
      <point x="205" y="413"/>
      <point x="228" y="337"/>
      <point x="228" y="222" type="curve" smooth="yes"/>
      <point x="228" y="90"/>
      <point x="200" y="13"/>
    </contour>
  </outline>
</glyph>
<glyph name="seven" format="2">
  <advance width="300"/>
  <unicode hex="0037"/>
  <outline>
    <contour>
      <point x="87" y="0" type="line"/>
      <point x="115" y="0" type="line"/>
      <point x="253" y="695" type="line"/>
      <point x="253" y="714" type="line"/>
      <point x="39" y="714" type="line"/>
      <point x="39" y="689" type="line"/>
      <point x="225" y="689" type="line"/>
    </contour>
  </outline>
</glyph>
<glyph name="eight" format="2">
  <advance width="300"/>
  <unicode hex="0038"/>
  <outline>
    <contour>
      <point x="148" y="-10" type="curve" smooth="yes"/>
      <point x="212" y="-10"/>
      <point x="257" y="65"/>
      <point x="257" y="177" type="curve" smooth="yes"/>
      <point x="257" y="276"/>
      <point x="224" y="330"/>
      <point x="171" y="380" type="curve"/>
      <point x="216" y="422"/>
      <point x="246" y="470"/>
      <point x="246" y="563" type="curve" smooth="yes"/>
      <point x="246" y="661"/>
      <point x="207" y="724"/>
      <point x="150" y="724" type="curve" smooth="yes"/>
      <point x="94" y="724"/>
      <point x="54" y="659"/>
      <point x="54" y="563" type="curve" smooth="yes"/>
      <point x="54" y="471"/>
      <point x="84" y="421"/>
      <point x="126" y="380" type="curve"/>
      <point x="77" y="339"/>
      <point x="43" y="280"/>
      <point x="43" y="173" type="curve" smooth="yes"/>
      <point x="43" y="66"/>
      <point x="86" y="-10"/>
    </contour>
    <contour>
      <point x="149" y="15" type="curve" smooth="yes"/>
      <point x="100" y="15"/>
      <point x="68" y="75"/>
      <point x="68" y="172" type="curve" smooth="yes"/>
      <point x="68" y="275"/>
      <point x="101" y="327"/>
      <point x="148" y="367" type="curve"/>
      <point x="209" y="311"/>
      <point x="231" y="262"/>
      <point x="231" y="176" type="curve" smooth="yes"/>
      <point x="231" y="78"/>
      <point x="199" y="15"/>
    </contour>
    <contour>
      <point x="150" y="393" type="curve"/>
      <point x="105" y="436"/>
      <point x="79" y="482"/>
      <point x="79" y="563" type="curve" smooth="yes"/>
      <point x="79" y="647"/>
      <point x="108" y="698"/>
      <point x="150" y="698" type="curve" smooth="yes"/>
      <point x="194" y="698"/>
      <point x="221" y="650"/>
      <point x="221" y="563" type="curve" smooth="yes"/>
      <point x="221" y="477"/>
      <point x="192" y="433"/>
    </contour>
  </outline>
</glyph>
<glyph name="semicolon" format="2">
  <advance width="300"/>
  <unicode hex="003B"/>
  <outline>
    <contour>
      <point x="109" y="-129" type="curve"/>
      <point x="129" y="-129" type="line"/>
      <point x="145" y="-59"/>
      <point x="159" y="28"/>
      <point x="167" y="96" type="curve"/>
      <point x="165" y="109" type="line"/>
      <point x="138" y="109" type="line"/>
      <point x="132" y="31"/>
      <point x="125" y="-23"/>
    </contour>
    <contour>
      <point x="150" y="466" type="curve" smooth="yes"/>
      <point x="164" y="466"/>
      <point x="170" y="479"/>
      <point x="170" y="499" type="curve" smooth="yes"/>
      <point x="170" y="519"/>
      <point x="164" y="532"/>
      <point x="150" y="532" type="curve" smooth="yes"/>
      <point x="136" y="532"/>
      <point x="130" y="517"/>
      <point x="130" y="499" type="curve" smooth="yes"/>
      <point x="130" y="480"/>
      <point x="136" y="466"/>
    </contour>
  </outline>
</glyph>
<glyph name="equal" format="2">
  <advance width="300"/>
  <unicode hex="003D"/>
  <outline>
    <contour>
      <point x="38" y="445" type="line"/>
      <point x="262" y="445" type="line"/>
      <point x="262" y="470" type="line"/>
      <point x="38" y="470" type="line"/>
    </contour>
    <contour>
      <point x="38" y="236" type="line"/>
      <point x="262" y="236" type="line"/>
      <point x="262" y="261" type="line"/>
      <point x="38" y="261" type="line"/>
    </contour>
  </outline>
</glyph>
<glyph name="at" format="2">
  <advance width="300"/>
  <unicode hex="0040"/>
  <outline>
    <contour>
      <point x="162" y="-89" type="curve" smooth="yes"/>
      <point x="192" y="-89"/>
      <point x="221" y="-74"/>
      <point x="246" y="-49" type="curve"/>
      <point x="246" y="-21" type="line"/>
      <point x="219" y="-49"/>
      <point x="190" y="-64"/>
      <point x="162" y="-64" type="curve" smooth="yes"/>
      <point x="78" y="-64"/>
      <point x="31" y="72"/>
      <point x="31" y="292" type="curve" smooth="yes"/>
      <point x="31" y="545"/>
      <point x="82" y="688"/>
      <point x="159" y="688" type="curve" smooth="yes"/>
      <point x="231" y="688"/>
      <point x="269" y="559"/>
      <point x="269" y="353" type="curve" smooth="yes"/>
      <point x="269" y="232"/>
      <point x="258" y="139"/>
      <point x="232" y="139" type="curve" smooth="yes"/>
      <point x="214" y="139"/>
      <point x="207" y="180"/>
      <point x="207" y="257" type="curve" smooth="yes"/>
      <point x="207" y="285"/>
      <point x="208" y="324"/>
      <point x="209" y="348" type="curve" smooth="yes"/>
      <point x="213" y="493" type="line"/>
      <point x="199" y="506"/>
      <point x="180" y="513"/>
      <point x="165" y="513" type="curve" smooth="yes"/>
      <point x="113" y="513"/>
      <point x="82" y="419"/>
      <point x="82" y="287" type="curve" smooth="yes"/>
      <point x="82" y="179"/>
      <point x="103" y="114"/>
      <point x="139" y="114" type="curve" smooth="yes"/>
      <point x="163" y="114"/>
      <point x="183" y="144"/>
      <point x="192" y="197" type="curve"/>
      <point x="194" y="197" type="line"/>
      <point x="196" y="146"/>
      <point x="211" y="114"/>
      <point x="233" y="114" type="curve" smooth="yes"/>
      <point x="272" y="114"/>
      <point x="290" y="221"/>
      <point x="290" y="356" type="curve" smooth="yes"/>
      <point x="290" y="576"/>
      <point x="241" y="713"/>
      <point x="159" y="713" type="curve" smooth="yes"/>
      <point x="70" y="713"/>
      <point x="10" y="562"/>
      <point x="10" y="294" type="curve" smooth="yes"/>
      <point x="10" y="59"/>
      <point x="64" y="-89"/>
    </contour>
    <contour>
      <point x="143" y="139" type="curve" smooth="yes"/>
      <point x="117" y="139"/>
      <point x="104" y="195"/>
      <point x="104" y="288" type="curve" smooth="yes"/>
      <point x="104" y="412"/>
      <point x="127" y="488"/>
      <point x="164" y="488" type="curve" smooth="yes"/>
      <point x="173" y="488"/>
      <point x="182" y="483"/>
      <point x="191" y="473" type="curve"/>
      <point x="187" y="323" type="line" smooth="yes"/>
      <point x="184" y="195"/>
      <point x="168" y="139"/>
    </contour>
  </outline>
</glyph>
<glyph name="B" format="2">
  <advance width="300"/>
  <unicode hex="0042"/>
  <anchor x="150" y="0" name="bottom"/>
  <anchor x="150" y="714" name="top"/>
  <anchor x="279" y="714" name="topright"/>
  <outline>
    <contour>
      <point x="58" y="0" type="line"/>
      <point x="147" y="0" type="line" smooth="yes"/>
      <point x="219" y="0"/>
      <point x="265" y="66"/>
      <point x="265" y="200" type="curve" smooth="yes"/>
      <point x="265" y="293"/>
      <point x="241" y="357"/>
      <point x="189" y="376" type="curve"/>
      <point x="189" y="377" type="line"/>
      <point x="232" y="392"/>
      <point x="255" y="460"/>
      <point x="255" y="546" type="curve" smooth="yes"/>
      <point x="255" y="658"/>
      <point x="218" y="714"/>
      <point x="140" y="714" type="curve" smooth="yes"/>
      <point x="58" y="714" type="line"/>
    </contour>
    <contour>
      <point x="82" y="25" type="line"/>
      <point x="82" y="363" type="line"/>
      <point x="140" y="363" type="line" smooth="yes"/>
      <point x="203" y="363"/>
      <point x="239" y="324"/>
      <point x="239" y="200" type="curve" smooth="yes"/>
      <point x="239" y="80"/>
      <point x="205" y="25"/>
      <point x="144" y="25" type="curve" smooth="yes"/>
    </contour>
    <contour>
      <point x="82" y="388" type="line"/>
      <point x="82" y="689" type="line"/>
      <point x="134" y="689" type="line" smooth="yes"/>
      <point x="203" y="689"/>
      <point x="230" y="645"/>
      <point x="230" y="546" type="curve" smooth="yes"/>
      <point x="230" y="441"/>
      <point x="200" y="388"/>
      <point x="139" y="388" type="curve" smooth="yes"/>
    </contour>
  </outline>
</glyph>
<glyph name="D" format="2">
  <advance width="300"/>
  <unicode hex="0044"/>
  <anchor x="121" y="0" name="bottom"/>
  <anchor x="151" y="357" name="center"/>
  <anchor x="141" y="714" name="top"/>
  <anchor x="290" y="714" name="topright"/>
  <outline>
    <contour>
      <point x="43" y="0" type="line"/>
      <point x="121" y="0" type="line" smooth="yes"/>
      <point x="220" y="0"/>
      <point x="266" y="123"/>
      <point x="266" y="362" type="curve" smooth="yes"/>
      <point x="266" y="595"/>
      <point x="220" y="714"/>
      <point x="124" y="714" type="curve" smooth="yes"/>
      <point x="43" y="714" type="line"/>
    </contour>
    <contour>
      <point x="68" y="25" type="line"/>
      <point x="68" y="689" type="line"/>
      <point x="119" y="689" type="line" smooth="yes"/>
      <point x="208" y="689"/>
      <point x="240" y="569"/>
      <point x="240" y="360" type="curve" smooth="yes"/>
      <point x="240" y="140"/>
      <point x="204" y="25"/>
      <point x="119" y="25" type="curve" smooth="yes"/>
    </contour>
  </outline>
</glyph>
<glyph name="E" format="2">
  <advance width="300"/>
  <unicode hex="0045"/>
  <anchor x="152" y="0" name="bottom"/>
  <anchor x="214" y="10" name="ogonek"/>
  <anchor x="149" y="714" name="top"/>
  <anchor x="21" y="714" name="topleft"/>
  <anchor x="279" y="714" name="topright"/>
  <outline>
    <contour>
      <point x="58" y="0" type="line"/>
      <point x="243" y="0" type="line"/>
      <point x="243" y="25" type="line"/>
      <point x="83" y="25" type="line"/>
      <point x="83" y="364" type="line"/>
      <point x="233" y="364" type="line"/>
      <point x="233" y="389" type="line"/>
      <point x="83" y="389" type="line"/>
      <point x="83" y="689" type="line"/>
      <point x="243" y="689" type="line"/>
      <point x="243" y="714" type="line"/>
      <point x="58" y="714" type="line"/>
    </contour>
  </outline>
</glyph>
<glyph name="G" format="2">
  <advance width="300"/>
  <unicode hex="0047"/>
  <anchor x="166" y="0" name="bottom"/>
  <anchor x="159" y="714" name="top"/>
  <anchor x="278" y="714" name="topright"/>
  <outline>
    <contour>
      <point x="172" y="-10" type="curve" smooth="yes"/>
      <point x="203" y="-10"/>
      <point x="233" y="2"/>
      <point x="256" y="24" type="curve"/>
      <point x="256" y="351" type="line"/>
      <point x="161" y="351" type="line"/>
      <point x="161" y="326" type="line"/>
      <point x="232" y="326" type="line"/>
      <point x="232" y="40" type="line"/>
      <point x="219" y="27"/>
      <point x="197" y="15"/>
      <point x="173" y="15" type="curve" smooth="yes"/>
      <point x="91" y="15"/>
      <point x="58" y="156"/>
      <point x="58" y="362" type="curve" smooth="yes"/>
      <point x="58" y="556"/>
      <point x="90" y="699"/>
      <point x="171" y="699" type="curve" smooth="yes"/>
      <point x="195" y="699"/>
      <point x="217" y="691"/>
      <point x="239" y="661" type="curve"/>
      <point x="250" y="681" type="line"/>
      <point x="226" y="715"/>
      <point x="196" y="724"/>
      <point x="170" y="724" type="curve" smooth="yes"/>
      <point x="74" y="724"/>
      <point x="33" y="574"/>
      <point x="33" y="358" type="curve" smooth="yes"/>
      <point x="33" y="141"/>
      <point x="73" y="-10"/>
    </contour>
  </outline>
</glyph>
<glyph name="J" format="2">
  <advance width="300"/>
  <unicode hex="004A"/>
  <anchor x="150" y="0" name="bottom"/>
  <anchor x="205" y="714" name="top"/>
  <anchor x="279" y="714" name="topright"/>
  <outline>
    <contour>
      <point x="118" y="-15" type="curve" smooth="yes"/>
      <point x="189" y="-15"/>
      <point x="217" y="58"/>
      <point x="217" y="196" type="curve" smooth="yes"/>
      <point x="217" y="714" type="line"/>
      <point x="192" y="714" type="line"/>
      <point x="192" y="204" type="line" smooth="yes"/>
      <point x="192" y="71"/>
      <point x="171" y="10"/>
      <point x="117" y="10" type="curve" smooth="yes"/>
      <point x="89" y="10"/>
      <point x="63" y="27"/>
      <point x="42" y="48" type="curve"/>
      <point x="42" y="19" type="line"/>
      <point x="64" y="-1"/>
      <point x="90" y="-15"/>
    </contour>
  </outline>
</glyph>
<glyph name="N" format="2">
  <advance width="300"/>
  <unicode hex="004E"/>
  <anchor x="150" y="0" name="bottom"/>
  <anchor x="153" y="714" name="top"/>
  <anchor x="290" y="714" name="topright"/>
  <outline>
    <contour>
      <point x="43" y="0" type="line"/>
      <point x="66" y="0" type="line"/>
      <point x="66" y="548" type="line" smooth="yes"/>
      <point x="66" y="604"/>
      <point x="66" y="637"/>
      <point x="64" y="664" type="curve"/>
      <point x="66" y="664" type="line"/>
      <point x="226" y="0" type="line"/>
      <point x="257" y="0" type="line"/>
      <point x="257" y="714" type="line"/>
      <point x="233" y="714" type="line"/>
      <point x="233" y="181" type="line" smooth="yes"/>
      <point x="233" y="152"/>
      <point x="235" y="99"/>
      <point x="236" y="54" type="curve"/>
      <point x="234" y="54" type="line"/>
      <point x="75" y="714" type="line"/>
      <point x="43" y="714" type="line"/>
    </contour>
  </outline>
</glyph>
<glyph name="P" format="2">
  <advance width="300"/>
  <unicode hex="0050"/>
  <anchor x="150" y="0" name="bottom"/>
  <anchor x="150" y="714" name="top"/>
  <anchor x="290" y="714" name="topright"/>
  <outline>
    <contour>
      <point x="58" y="0" type="line"/>
      <point x="83" y="0" type="line"/>
      <point x="83" y="306" type="line"/>
      <point x="148" y="306" type="line" smooth="yes"/>
      <point x="227" y="306"/>
      <point x="265" y="372"/>
      <point x="265" y="515" type="curve" smooth="yes"/>
      <point x="265" y="663"/>
      <point x="224" y="714"/>
      <point x="147" y="714" type="curve" smooth="yes"/>
      <point x="58" y="714" type="line"/>
    </contour>
    <contour>
      <point x="83" y="331" type="line"/>
      <point x="83" y="689" type="line"/>
      <point x="143" y="689" type="line" smooth="yes"/>
      <point x="209" y="689"/>
      <point x="239" y="645"/>
      <point x="239" y="516" type="curve" smooth="yes"/>
      <point x="239" y="385"/>
      <point x="208" y="331"/>
      <point x="143" y="331" type="curve" smooth="yes"/>
    </contour>
  </outline>
</glyph>
<glyph name="Q" format="2">
  <advance width="300"/>
  <unicode hex="0051"/>
  <anchor x="140" y="-210" name="bottom"/>
  <anchor x="140" y="714" name="top"/>
  <anchor x="279" y="714" name="topright"/>
  <anchor x="21" y="714" name="topleft"/>
  <anchor x="149" y="10" name="ogonek"/>
  <anchor x="149" y="357" name="center"/>
  <outline>
    <contour>
      <point x="219" y="-170" type="line"/>
      <point x="246" y="-170" type="line"/>
      <point x="190" y="16" type="line"/>
      <point x="170" y="12" type="line"/>
    </contour>
    <component base="O"/>
  </outline>
</glyph>
<glyph name="R" format="2">
  <advance width="300"/>
  <unicode hex="0052"/>
  <anchor x="162" y="0" name="bottom"/>
  <anchor x="150" y="714" name="top"/>
  <anchor x="279" y="714" name="topright"/>
  <outline>
    <contour>
      <point x="58" y="0" type="line"/>
      <point x="83" y="0" type="line"/>
      <point x="83" y="321" type="line"/>
      <point x="157" y="321" type="line"/>
      <point x="245" y="0" type="line"/>
      <point x="274" y="0" type="line"/>
      <point x="181" y="328" type="line"/>
      <point x="227" y="352"/>
      <point x="256" y="416"/>
      <point x="256" y="525" type="curve" smooth="yes"/>
      <point x="256" y="671"/>
      <point x="212" y="714"/>
      <point x="133" y="714" type="curve" smooth="yes"/>
      <point x="58" y="714" type="line"/>
    </contour>
    <contour>
      <point x="83" y="347" type="line"/>
      <point x="83" y="689" type="line"/>
      <point x="130" y="689" type="line" smooth="yes"/>
      <point x="198" y="689"/>
      <point x="229" y="647"/>
      <point x="229" y="526" type="curve" smooth="yes"/>
      <point x="229" y="404"/>
      <point x="193" y="347"/>
      <point x="137" y="347" type="curve" smooth="yes"/>
    </contour>
  </outline>
</glyph>
<glyph name="U" format="2">
  <advance width="300"/>
  <unicode hex="0055"/>
  <anchor x="150" y="0" name="bottom"/>
  <anchor x="262" y="10" name="ogonek"/>
  <anchor x="150" y="714" name="top"/>
  <anchor x="279" y="714" name="topright"/>
  <outline>
    <contour>
      <point x="150" y="-10" type="curve" smooth="yes"/>
      <point x="215" y="-10"/>
      <point x="257" y="58"/>
      <point x="257" y="230" type="curve" smooth="yes"/>
      <point x="257" y="714" type="line"/>
      <point x="232" y="714" type="line"/>
      <point x="232" y="233" type="line" smooth="yes"/>
      <point x="232" y="78"/>
      <point x="201" y="15"/>
      <point x="150" y="15" type="curve" smooth="yes"/>
      <point x="98" y="15"/>
      <point x="68" y="84"/>
      <point x="68" y="239" type="curve" smooth="yes"/>
      <point x="68" y="714" type="line"/>
      <point x="43" y="714" type="line"/>
      <point x="43" y="236" type="line" smooth="yes"/>
      <point x="43" y="70"/>
      <point x="81" y="-10"/>
    </contour>
  </outline>
</glyph>
<glyph name="V" format="2">
  <advance width="300"/>
  <unicode hex="0056"/>
  <anchor x="150" y="0" name="bottom"/>
  <anchor x="150" y="714" name="top"/>
  <anchor x="278" y="714" name="topright"/>
  <outline>
    <contour>
      <point x="135" y="0" type="line"/>
      <point x="162" y="0" type="line"/>
      <point x="277" y="714" type="line"/>
      <point x="253" y="714" type="line"/>
      <point x="167" y="140" type="line" smooth="yes"/>
      <point x="160" y="100"/>
      <point x="154" y="67"/>
      <point x="149" y="34" type="curve"/>
      <point x="149" y="34" type="line"/>
      <point x="145" y="68"/>
      <point x="137" y="102"/>
      <point x="132" y="140" type="curve" smooth="yes"/>
      <point x="46" y="714" type="line"/>
      <point x="22" y="714" type="line"/>
    </contour>
  </outline>
</glyph>
<glyph name="W" format="2">
  <advance width="300"/>
  <unicode hex="0057"/>
  <anchor x="150" y="0" name="bottom"/>
  <anchor x="150" y="714" name="top"/>
  <anchor x="278" y="714" name="topright"/>
  <outline>
    <contour>
      <point x="71" y="0" type="line"/>
      <point x="103" y="0" type="line"/>
      <point x="140" y="375" type="line" smooth="yes"/>
      <point x="143" y="411"/>
      <point x="146" y="433"/>
      <point x="149" y="475" type="curve"/>
      <point x="151" y="475" type="line"/>
      <point x="153" y="433"/>
      <point x="156" y="410"/>
      <point x="160" y="375" type="curve" smooth="yes"/>
      <point x="197" y="0" type="line"/>
      <point x="228" y="0" type="line"/>
      <point x="277" y="714" type="line"/>
      <point x="253" y="714" type="line"/>
      <point x="242" y="526"/>
      <point x="231" y="339"/>
      <point x="220" y="151" type="curve" smooth="yes"/>
      <point x="217" y="109"/>
      <point x="214" y="73"/>
      <point x="212" y="26" type="curve"/>
      <point x="211" y="26" type="line"/>
      <point x="207" y="68"/>
      <point x="202" y="109"/>
      <point x="198" y="151" type="curve" smooth="yes"/>
      <point x="162" y="528" type="line"/>
      <point x="138" y="528" type="line"/>
      <point x="102" y="151" type="line" smooth="yes"/>
      <point x="98" y="110"/>
      <point x="93" y="70"/>
      <point x="89" y="29" type="curve"/>
      <point x="88" y="29" type="line"/>
      <point x="86" y="75"/>
      <point x="81" y="110"/>
      <point x="79" y="151" type="curve" smooth="yes"/>
      <point x="69" y="340"/>
      <point x="56" y="526"/>
      <point x="45" y="714" type="curve"/>
      <point x="22" y="714" type="line"/>
    </contour>
  </outline>
</glyph>
<glyph name="X" format="2">
  <advance width="300"/>
  <unicode hex="0058"/>
  <anchor x="154" y="0" name="bottom"/>
  <anchor x="154" y="714" name="top"/>
  <anchor x="278" y="714" name="topright"/>
  <outline>
    <contour>
      <point x="27" y="0" type="line"/>
      <point x="54" y="0" type="line"/>
      <point x="151" y="348" type="line"/>
      <point x="246" y="0" type="line"/>
      <point x="273" y="0" type="line"/>
      <point x="166" y="372" type="line"/>
      <point x="268" y="714" type="line"/>
      <point x="240" y="714" type="line"/>
      <point x="151" y="396" type="line"/>
      <point x="65" y="714" type="line"/>
      <point x="38" y="714" type="line"/>
      <point x="137" y="372" type="line"/>
    </contour>
  </outline>
</glyph>
<glyph name="asciicircum" format="2">
  <advance width="300"/>
  <unicode hex="005E"/>
  <outline>
    <contour>
      <point x="33" y="325" type="line"/>
      <point x="58" y="325" type="line"/>
      <point x="152" y="684" type="line"/>
      <point x="241" y="325" type="line"/>
      <point x="266" y="325" type="line"/>
      <point x="161" y="716" type="line"/>
      <point x="144" y="716" type="line"/>
    </contour>
  </outline>
</glyph>
<glyph name="b" format="2">
  <advance width="300"/>
  <unicode hex="0062"/>
  <anchor x="150" y="0" name="bottom"/>
  <anchor x="150" y="760" name="top"/>
  <anchor x="278" y="760" name="topright"/>
  <outline>
    <contour>
      <point x="157" y="-10" type="curve" smooth="yes"/>
      <point x="225" y="-10"/>
      <point x="260" y="99"/>
      <point x="260" y="268" type="curve" smooth="yes"/>
      <point x="260" y="445"/>
      <point x="225" y="538"/>
      <point x="161" y="538" type="curve" smooth="yes"/>
      <point x="118" y="538"/>
      <point x="90" y="486"/>
      <point x="78" y="412" type="curve"/>
      <point x="77" y="412" type="line"/>
      <point x="78" y="437"/>
      <point x="78" y="476"/>
      <point x="78" y="503" type="curve" smooth="yes"/>
      <point x="78" y="760" type="line"/>
      <point x="53" y="760" type="line"/>
      <point x="53" y="0" type="line"/>
      <point x="72" y="0" type="line"/>
      <point x="76" y="101" type="line"/>
      <point x="78" y="101" type="line"/>
      <point x="92" y="36"/>
      <point x="117" y="-10"/>
    </contour>
    <contour>
      <point x="152" y="16" type="curve" smooth="yes"/>
      <point x="102" y="16"/>
      <point x="78" y="98"/>
      <point x="78" y="262" type="curve" smooth="yes"/>
      <point x="78" y="426"/>
      <point x="103" y="513"/>
      <point x="156" y="513" type="curve" smooth="yes"/>
      <point x="208" y="513"/>
      <point x="234" y="430"/>
      <point x="234" y="268" type="curve" smooth="yes"/>
      <point x="234" y="101"/>
      <point x="206" y="16"/>
    </contour>
  </outline>
</glyph>
<glyph name="d" format="2">
  <advance width="300"/>
  <unicode hex="0064"/>
  <anchor x="150" y="0" name="bottom"/>
  <anchor x="150" y="264" name="center"/>
  <anchor x="150" y="760" name="top"/>
  <anchor x="278" y="760" name="topright"/>
  <outline>
    <contour>
      <point x="138" y="-10" type="curve" smooth="yes"/>
      <point x="186" y="-10"/>
      <point x="211" y="49"/>
      <point x="222" y="110" type="curve"/>
      <point x="223" y="110" type="line"/>
      <point x="227" y="0" type="line"/>
      <point x="247" y="0" type="line"/>
      <point x="247" y="760" type="line"/>
      <point x="222" y="760" type="line"/>
      <point x="222" y="520" type="line" smooth="yes"/>
      <point x="222" y="488"/>
      <point x="223" y="457"/>
      <point x="224" y="422" type="curve"/>
      <point x="222" y="422" type="line"/>
      <point x="211" y="482"/>
      <point x="185" y="538"/>
      <point x="140" y="538" type="curve" smooth="yes"/>
      <point x="77" y="538"/>
      <point x="40" y="439"/>
      <point x="40" y="255" type="curve" smooth="yes"/>
      <point x="40" y="83"/>
      <point x="74" y="-10"/>
    </contour>
    <contour>
      <point x="143" y="15" type="curve" smooth="yes"/>
      <point x="88" y="15"/>
      <point x="66" y="99"/>
      <point x="66" y="255" type="curve" smooth="yes"/>
      <point x="66" y="426"/>
      <point x="93" y="513"/>
      <point x="145" y="513" type="curve" smooth="yes"/>
      <point x="199" y="513"/>
      <point x="222" y="429"/>
      <point x="222" y="291" type="curve" smooth="yes"/>
      <point x="222" y="242" type="line" smooth="yes"/>
      <point x="222" y="102"/>
      <point x="200" y="15"/>
    </contour>
  </outline>
</glyph>
<glyph name="e" format="2">
  <advance width="300"/>
  <unicode hex="0065"/>
  <anchor x="156" y="0" name="bottom"/>
  <anchor x="160" y="10" name="ogonek"/>
  <anchor x="154" y="528" name="top"/>
  <anchor x="279" y="528" name="topright"/>
  <outline>
    <contour>
      <point x="168" y="-10" type="curve" smooth="yes"/>
      <point x="199" y="-10"/>
      <point x="224" y="2"/>
      <point x="247" y="23" type="curve"/>
      <point x="247" y="51" type="line"/>
      <point x="220" y="25"/>
      <point x="197" y="15"/>
      <point x="168" y="15" type="curve" smooth="yes"/>
      <point x="105" y="15"/>
      <point x="72" y="102"/>
      <point x="71" y="270" type="curve"/>
      <point x="258" y="270" type="line"/>
      <point x="258" y="296" type="line" smooth="yes"/>
      <point x="258" y="426"/>
      <point x="226" y="538"/>
      <point x="155" y="538" type="curve" smooth="yes"/>
      <point x="83" y="538"/>
      <point x="46" y="419"/>
      <point x="46" y="262" type="curve" smooth="yes"/>
      <point x="46" y="99"/>
      <point x="87" y="-10"/>
    </contour>
    <contour>
      <point x="72" y="294" type="line"/>
      <point x="77" y="439"/>
      <point x="108" y="513"/>
      <point x="155" y="513" type="curve" smooth="yes"/>
      <point x="209" y="513"/>
      <point x="233" y="419"/>
      <point x="233" y="294" type="curve"/>
    </contour>
  </outline>
</glyph>
<glyph name="g" format="2">
  <advance width="300"/>
  <unicode hex="0067"/>
  <anchor x="150" y="-241" name="bottom"/>
  <anchor x="150" y="528" name="top"/>
  <anchor x="278" y="528" name="topright"/>
  <outline>
    <contour>
      <point x="133" y="-241" type="curve" smooth="yes"/>
      <point x="212" y="-241"/>
      <point x="247" y="-163"/>
      <point x="247" y="-30" type="curve" smooth="yes"/>
      <point x="247" y="528" type="line"/>
      <point x="227" y="528" type="line"/>
      <point x="223" y="439" type="line"/>
      <point x="222" y="439" type="line"/>
      <point x="208" y="492"/>
      <point x="185" y="538"/>
      <point x="143" y="538" type="curve" smooth="yes"/>
      <point x="74" y="538"/>
      <point x="40" y="432"/>
      <point x="40" y="259" type="curve" smooth="yes"/>
      <point x="40" y="78"/>
      <point x="76" y="-10"/>
      <point x="139" y="-10" type="curve" smooth="yes"/>
      <point x="181" y="-10"/>
      <point x="210" y="42"/>
      <point x="222" y="114" type="curve"/>
      <point x="224" y="114" type="line"/>
      <point x="222" y="74"/>
      <point x="222" y="50"/>
      <point x="222" y="15" type="curve" smooth="yes"/>
      <point x="222" y="-30" type="line" smooth="yes"/>
      <point x="222" y="-151"/>
      <point x="195" y="-216"/>
      <point x="133" y="-216" type="curve" smooth="yes"/>
      <point x="104" y="-216"/>
      <point x="76" y="-201"/>
      <point x="52" y="-179" type="curve"/>
      <point x="52" y="-208" type="line"/>
      <point x="75" y="-228"/>
      <point x="101" y="-241"/>
    </contour>
    <contour>
      <point x="144" y="15" type="curve" smooth="yes"/>
      <point x="92" y="15"/>
      <point x="65" y="96"/>
      <point x="65" y="258" type="curve" smooth="yes"/>
      <point x="65" y="414"/>
      <point x="90" y="513"/>
      <point x="147" y="513" type="curve" smooth="yes"/>
      <point x="202" y="513"/>
      <point x="223" y="423"/>
      <point x="223" y="312" type="curve" smooth="yes"/>
      <point x="223" y="234" type="line" smooth="yes"/>
      <point x="223" y="131"/>
      <point x="203" y="15"/>
    </contour>
  </outline>
</glyph>
<glyph name="k" format="2">
  <advance width="300"/>
  <unicode hex="006B"/>
  <anchor x="168" y="0" name="bottom"/>
  <anchor x="167" y="760" name="top"/>
  <anchor x="279" y="760" name="topright"/>
  <outline>
    <contour>
      <point x="68" y="0" type="line"/>
      <point x="93" y="0" type="line"/>
      <point x="93" y="185" type="line"/>
      <point x="135" y="286" type="line"/>
      <point x="241" y="0" type="line"/>
      <point x="270" y="0" type="line"/>
      <point x="152" y="305" type="line"/>
      <point x="262" y="528" type="line"/>
      <point x="231" y="528" type="line"/>
      <point x="118" y="277" type="line" smooth="yes"/>
      <point x="109" y="258"/>
      <point x="102" y="239"/>
      <point x="92" y="217" type="curve"/>
      <point x="91" y="217" type="line"/>
      <point x="92" y="272"/>
      <point x="93" y="318"/>
      <point x="93" y="373" type="curve" smooth="yes"/>
      <point x="93" y="760" type="line"/>
      <point x="68" y="760" type="line"/>
    </contour>
  </outline>
</glyph>
<glyph name="l" format="2">
  <advance width="300"/>
  <unicode hex="006C"/>
  <anchor x="152" y="0" name="bottom"/>
  <anchor x="152" y="376" name="center"/>
  <anchor x="150" y="760" name="top"/>
  <anchor x="234" y="760" name="topright"/>
  <outline>
    <contour>
      <point x="55" y="0" type="line"/>
      <point x="251" y="0" type="line"/>
      <point x="251" y="21" type="line"/>
      <point x="165" y="25" type="line"/>
      <point x="165" y="760" type="line"/>
      <point x="60" y="760" type="line"/>
      <point x="60" y="739" type="line"/>
      <point x="140" y="735" type="line"/>
      <point x="140" y="25" type="line"/>
      <point x="55" y="21" type="line"/>
    </contour>
  </outline>
</glyph>
<glyph name="m" format="2">
  <advance width="300"/>
  <unicode hex="006D"/>
  <anchor x="151" y="0" name="bottom"/>
  <anchor x="155" y="528" name="top"/>
  <anchor x="279" y="528" name="topright"/>
  <outline>
    <contour>
      <point x="36" y="0" type="line"/>
      <point x="60" y="0" type="line"/>
      <point x="60" y="366" type="line" smooth="yes"/>
      <point x="60" y="440"/>
      <point x="73" y="513"/>
      <point x="105" y="513" type="curve" smooth="yes"/>
      <point x="125" y="513"/>
      <point x="138" y="497"/>
      <point x="138" y="384" type="curve" smooth="yes"/>
      <point x="138" y="0" type="line"/>
      <point x="162" y="0" type="line"/>
      <point x="162" y="366" type="line" smooth="yes"/>
      <point x="162" y="458"/>
      <point x="177" y="513"/>
      <point x="206" y="513" type="curve" smooth="yes"/>
      <point x="227" y="513"/>
      <point x="240" y="493"/>
      <point x="240" y="401" type="curve" smooth="yes"/>
      <point x="240" y="0" type="line"/>
      <point x="264" y="0" type="line"/>
      <point x="264" y="403" type="line" smooth="yes"/>
      <point x="264" y="505"/>
      <point x="246" y="537"/>
      <point x="212" y="537" type="curve" smooth="yes"/>
      <point x="183" y="537"/>
      <point x="167" y="501"/>
      <point x="158" y="460" type="curve"/>
      <point x="157" y="460" type="line"/>
      <point x="152" y="496"/>
      <point x="140" y="537"/>
      <point x="111" y="537" type="curve" smooth="yes"/>
      <point x="80" y="537"/>
      <point x="66" y="492"/>
      <point x="59" y="457" type="curve"/>
      <point x="57" y="457" type="line"/>
      <point x="54" y="528" type="line"/>
      <point x="36" y="528" type="line"/>
    </contour>
  </outline>
</glyph>
<glyph name="o" format="2">
  <advance width="300"/>
  <unicode hex="006F"/>
  <anchor x="150" y="0" name="bottom"/>
  <anchor x="150" y="264" name="center"/>
  <anchor x="150" y="15" name="ogonek"/>
  <anchor x="150" y="528" name="top"/>
  <anchor x="278" y="528" name="topright"/>
  <outline>
    <contour>
      <point x="150" y="-10" type="curve" smooth="yes"/>
      <point x="223" y="-10"/>
      <point x="260" y="93"/>
      <point x="260" y="264" type="curve" smooth="yes"/>
      <point x="260" y="425"/>
      <point x="226" y="537"/>
      <point x="151" y="537" type="curve" smooth="yes"/>
      <point x="79" y="537"/>
      <point x="40" y="438"/>
      <point x="40" y="265" type="curve" smooth="yes"/>
      <point x="40" y="94"/>
      <point x="78" y="-10"/>
    </contour>
    <contour>
      <point x="150" y="15" type="curve" smooth="yes"/>
      <point x="93" y="15"/>
      <point x="65" y="110"/>
      <point x="65" y="265" type="curve" smooth="yes"/>
      <point x="65" y="422"/>
      <point x="94" y="512"/>
      <point x="151" y="512" type="curve" smooth="yes"/>
      <point x="210" y="512"/>
      <point x="234" y="410"/>
      <point x="234" y="265" type="curve" smooth="yes"/>
      <point x="234" y="107"/>
      <point x="208" y="15"/>
    </contour>
  </outline>
</glyph>
<glyph name="v" format="2">
  <advance width="300"/>
  <unicode hex="0076"/>
  <anchor x="150" y="0" name="bottom"/>
  <anchor x="150" y="528" name="top"/>
  <anchor x="278" y="528" name="topright"/>
  <outline>
    <contour>
      <point x="135" y="0" type="line"/>
      <point x="163" y="0" type="line"/>
      <point x="259" y="528" type="line"/>
      <point x="236" y="528" type="line"/>
      <point x="171" y="145" type="line" smooth="yes"/>
      <point x="164" y="105"/>
      <point x="156" y="73"/>
      <point x="150" y="36" type="curve"/>
      <point x="149" y="36" type="line"/>
      <point x="143" y="73"/>
      <point x="136" y="105"/>
      <point x="129" y="145" type="curve" smooth="yes"/>
      <point x="64" y="528" type="line"/>
      <point x="40" y="528" type="line"/>
    </contour>
  </outline>
</glyph>
<glyph name="x" format="2">
  <advance width="300"/>
  <unicode hex="0078"/>
  <anchor x="150" y="0" name="bottom"/>
  <anchor x="150" y="528" name="top"/>
  <anchor x="278" y="528" name="topright"/>
  <outline>
    <contour>
      <point x="40" y="0" type="line"/>
      <point x="68" y="0" type="line"/>
      <point x="150" y="252" type="line"/>
      <point x="231" y="0" type="line"/>
      <point x="259" y="0" type="line"/>
      <point x="164" y="270" type="line"/>
      <point x="255" y="528" type="line"/>
      <point x="227" y="528" type="line"/>
      <point x="150" y="291" type="line"/>
      <point x="73" y="528" type="line"/>
      <point x="45" y="528" type="line"/>
      <point x="135" y="271" type="line"/>
    </contour>
  </outline>
</glyph>
<glyph name="y" format="2">
  <advance width="300"/>
  <unicode hex="0079"/>
  <anchor x="147" y="-243" name="bottom"/>
  <anchor x="147" y="528" name="top"/>
  <anchor x="275" y="528" name="topright"/>
  <outline>
    <contour>
      <point x="68" y="-243" type="curve" smooth="yes"/>
      <point x="108" y="-243"/>
      <point x="131" y="-201"/>
      <point x="146" y="-112" type="curve" smooth="yes"/>
      <point x="257" y="528" type="line"/>
      <point x="231" y="528" type="line"/>
      <point x="171" y="155" type="line" smooth="yes"/>
      <point x="164" y="112"/>
      <point x="157" y="83"/>
      <point x="152" y="48" type="curve"/>
      <point x="151" y="48" type="line"/>
      <point x="147" y="69"/>
      <point x="142" y="92"/>
      <point x="131" y="156" type="curve" smooth="yes"/>
      <point x="66" y="528" type="line"/>
      <point x="41" y="528" type="line"/>
      <point x="140" y="10" type="line"/>
      <point x="121" y="-112" type="line" smooth="yes"/>
      <point x="108" y="-193"/>
      <point x="91" y="-217"/>
      <point x="67" y="-217" type="curve" smooth="yes"/>
      <point x="57" y="-217"/>
      <point x="48" y="-213"/>
      <point x="40" y="-207" type="curve"/>
      <point x="40" y="-234" type="line"/>
      <point x="50" y="-240"/>
      <point x="58" y="-243"/>
    </contour>
  </outline>
</glyph>
<glyph name="bar" format="2">
  <advance width="300"/>
  <unicode hex="007C"/>
  <outline>
    <contour>
      <point x="130" y="-240" type="line"/>
      <point x="153" y="-240" type="line"/>
      <point x="153" y="760" type="line"/>
      <point x="130" y="760" type="line"/>
    </contour>
  </outline>
</glyph>
<glyph name="asciitilde" format="2">
  <advance width="300"/>
  <unicode hex="007E"/>
  <outline>
    <contour>
      <point x="41" y="311" type="line"/>
      <point x="59" y="354"/>
      <point x="78" y="371"/>
      <point x="98" y="371" type="curve" smooth="yes"/>
      <point x="117" y="371"/>
      <point x="130" y="358"/>
      <point x="148" y="341" type="curve" smooth="yes"/>
      <point x="166" y="324"/>
      <point x="181" y="311"/>
      <point x="203" y="311" type="curve" smooth="yes"/>
      <point x="226" y="311"/>
      <point x="246" y="331"/>
      <point x="259" y="356" type="curve"/>
      <point x="259" y="387" type="line"/>
      <point x="242" y="350"/>
      <point x="222" y="336"/>
      <point x="204" y="336" type="curve" smooth="yes"/>
      <point x="186" y="336"/>
      <point x="172" y="348"/>
      <point x="155" y="365" type="curve" smooth="yes"/>
      <point x="137" y="383"/>
      <point x="122" y="396"/>
      <point x="98" y="396" type="curve" smooth="yes"/>
      <point x="75" y="396"/>
      <point x="56" y="374"/>
      <point x="41" y="343" type="curve"/>
    </contour>
  </outline>
</glyph>
<glyph name="sterling" format="2">
  <advance width="300"/>
  <unicode hex="00A3"/>
  <outline>
    <contour>
      <point x="39" y="0" type="line"/>
      <point x="255" y="0" type="line"/>
      <point x="255" y="25" type="line"/>
      <point x="76" y="25" type="line"/>
      <point x="100" y="47"/>
      <point x="115" y="96"/>
      <point x="115" y="183" type="curve" smooth="yes"/>
      <point x="115" y="338" type="line"/>
      <point x="205" y="338" type="line"/>
      <point x="205" y="363" type="line"/>
      <point x="115" y="363" type="line"/>
      <point x="115" y="527" type="line" smooth="yes"/>
      <point x="115" y="645"/>
      <point x="136" y="699"/>
      <point x="185" y="699" type="curve" smooth="yes"/>
      <point x="205" y="699"/>
      <point x="221" y="691"/>
      <point x="241" y="669" type="curve"/>
      <point x="251" y="691" type="line"/>
      <point x="232" y="711"/>
      <point x="212" y="724"/>
      <point x="184" y="724" type="curve" smooth="yes"/>
      <point x="119" y="724"/>
      <point x="90" y="651"/>
      <point x="90" y="532" type="curve" smooth="yes"/>
      <point x="90" y="363" type="line"/>
      <point x="41" y="363" type="line"/>
      <point x="41" y="338" type="line"/>
      <point x="90" y="338" type="line"/>
      <point x="90" y="185" type="line" smooth="yes"/>
      <point x="90" y="89"/>
      <point x="73" y="40"/>
      <point x="39" y="23" type="curve"/>
    </contour>
  </outline>
</glyph>
<glyph name="currency" format="2">
  <advance width="300"/>
  <unicode hex="00A4"/>
  <outline>
    <contour>
      <point x="261" y="130" type="line"/>
      <point x="274" y="145" type="line"/>
      <point x="234" y="221" type="line"/>
      <point x="251" y="260"/>
      <point x="259" y="310"/>
      <point x="259" y="354" type="curve" smooth="yes"/>
      <point x="259" y="402"/>
      <point x="251" y="448"/>
      <point x="233" y="486" type="curve"/>
      <point x="274" y="561" type="line"/>
      <point x="261" y="577" type="line"/>
      <point x="220" y="502" type="line"/>
      <point x="199" y="536"/>
      <point x="174" y="551"/>
      <point x="149" y="551" type="curve" smooth="yes"/>
      <point x="123" y="551"/>
      <point x="99" y="535"/>
      <point x="79" y="501" type="curve"/>
      <point x="38" y="578" type="line"/>
      <point x="25" y="562" type="line"/>
      <point x="66" y="485" type="line"/>
      <point x="49" y="450"/>
      <point x="41" y="402"/>
      <point x="41" y="354" type="curve" smooth="yes"/>
      <point x="41" y="307"/>
      <point x="49" y="261"/>
      <point x="66" y="222" type="curve"/>
      <point x="26" y="148" type="line"/>
      <point x="39" y="132" type="line"/>
      <point x="79" y="206" type="line"/>
      <point x="99" y="173"/>
      <point x="124" y="157"/>
      <point x="149" y="157" type="curve" smooth="yes"/>
      <point x="175" y="157"/>
      <point x="200" y="172"/>
      <point x="220" y="205" type="curve"/>
    </contour>
    <contour>
      <point x="150" y="181" type="curve" smooth="yes"/>
      <point x="100" y="181"/>
      <point x="62" y="251"/>
      <point x="62" y="354" type="curve" smooth="yes"/>
      <point x="62" y="457"/>
      <point x="101" y="528"/>
      <point x="150" y="528" type="curve" smooth="yes"/>
      <point x="200" y="528"/>
      <point x="238" y="453"/>
      <point x="238" y="353" type="curve" smooth="yes"/>
      <point x="238" y="255"/>
      <point x="200" y="181"/>
    </contour>
  </outline>
</glyph>
<glyph name="yen" format="2">
  <advance width="300"/>
  <unicode hex="00A5"/>
  <outline>
    <contour>
      <point x="137" y="0" type="line"/>
      <point x="162" y="0" type="line"/>
      <point x="162" y="159" type="line"/>
      <point x="238" y="159" type="line"/>
      <point x="238" y="183" type="line"/>
      <point x="162" y="183" type="line"/>
      <point x="162" y="295" type="line"/>
      <point x="238" y="295" type="line"/>
      <point x="238" y="319" type="line"/>
      <point x="167" y="319" type="line"/>
      <point x="261" y="714" type="line"/>
      <point x="235" y="714" type="line"/>
      <point x="150" y="338" type="line"/>
      <point x="64" y="714" type="line"/>
      <point x="38" y="714" type="line"/>
      <point x="132" y="319" type="line"/>
      <point x="62" y="319" type="line"/>
      <point x="62" y="295" type="line"/>
      <point x="137" y="295" type="line"/>
      <point x="137" y="183" type="line"/>
      <point x="62" y="183" type="line"/>
      <point x="62" y="159" type="line"/>
      <point x="137" y="159" type="line"/>
    </contour>
  </outline>
</glyph>
<glyph name="registered" format="2">
  <advance width="300"/>
  <unicode hex="00AE"/>
  <outline>
    <contour>
      <point x="148" y="147" type="curve" smooth="yes"/>
      <point x="219" y="147"/>
      <point x="272" y="233"/>
      <point x="272" y="360" type="curve" smooth="yes"/>
      <point x="272" y="483"/>
      <point x="222" y="575"/>
      <point x="150" y="575" type="curve" smooth="yes"/>
      <point x="80" y="575"/>
      <point x="27" y="489"/>
      <point x="27" y="359" type="curve" smooth="yes"/>
      <point x="27" y="234"/>
      <point x="77" y="147"/>
    </contour>
    <contour>
      <point x="149" y="171" type="curve" smooth="yes"/>
      <point x="87" y="171"/>
      <point x="45" y="253"/>
      <point x="45" y="361" type="curve" smooth="yes"/>
      <point x="45" y="472"/>
      <point x="90" y="550"/>
      <point x="150" y="550" type="curve" smooth="yes"/>
      <point x="211" y="550"/>
      <point x="254" y="467"/>
      <point x="254" y="360" type="curve" smooth="yes"/>
      <point x="254" y="250"/>
      <point x="210" y="171"/>
    </contour>
    <contour>
      <point x="105" y="224" type="line"/>
      <point x="123" y="224" type="line"/>
      <point x="123" y="339" type="line"/>
      <point x="153" y="339" type="line"/>
      <point x="189" y="224" type="line"/>
      <point x="209" y="224" type="line"/>
      <point x="171" y="343" type="line"/>
      <point x="188" y="353"/>
      <point x="202" y="373"/>
      <point x="202" y="418" type="curve" smooth="yes"/>
      <point x="202" y="472"/>
      <point x="183" y="497"/>
      <point x="150" y="497" type="curve" smooth="yes"/>
      <point x="105" y="497" type="line"/>
    </contour>
    <contour>
      <point x="123" y="361" type="line"/>
      <point x="123" y="476" type="line"/>
      <point x="149" y="476" type="line" smooth="yes"/>
      <point x="171" y="476"/>
      <point x="184" y="460"/>
      <point x="184" y="418" type="curve" smooth="yes"/>
      <point x="184" y="374"/>
      <point x="169" y="361"/>
      <point x="149" y="361" type="curve" smooth="yes"/>
    </contour>
  </outline>
</glyph>
<glyph name="overscore" format="2">
  <advance width="300"/>
  <unicode hex="00AF"/>
  <outline>
    <contour>
      <point x="85" y="616" type="line"/>
      <point x="215" y="616" type="line"/>
      <point x="215" y="640" type="line"/>
      <point x="85" y="640" type="line"/>
    </contour>
  </outline>
</glyph>
<glyph name="degree" format="2">
  <advance width="300"/>
  <unicode hex="00B0"/>
  <outline>
    <contour>
      <point x="149" y="460" type="curve" smooth="yes"/>
      <point x="191" y="460"/>
      <point x="223" y="511"/>
      <point x="223" y="592" type="curve" smooth="yes"/>
      <point x="223" y="675"/>
      <point x="190" y="724"/>
      <point x="149" y="724" type="curve" smooth="yes"/>
      <point x="109" y="724"/>
      <point x="75" y="677"/>
      <point x="75" y="592" type="curve" smooth="yes"/>
      <point x="75" y="506"/>
      <point x="109" y="460"/>
    </contour>
    <contour>
      <point x="149" y="483" type="curve" smooth="yes"/>
      <point x="118" y="483"/>
      <point x="94" y="524"/>
      <point x="94" y="592" type="curve" smooth="yes"/>
      <point x="94" y="657"/>
      <point x="116" y="701"/>
      <point x="149" y="701" type="curve" smooth="yes"/>
      <point x="182" y="701"/>
      <point x="204" y="657"/>
      <point x="204" y="591" type="curve" smooth="yes"/>
      <point x="204" y="524"/>
      <point x="180" y="483"/>
    </contour>
  </outline>
</glyph>
<glyph name="twosuperior" format="2">
  <advance width="300"/>
  <unicode hex="00B2"/>
  <outline>
    <contour>
      <point x="77" y="415" type="line"/>
      <point x="221" y="415" type="line"/>
      <point x="221" y="439" type="line"/>
      <point x="103" y="439" type="line"/>
      <point x="150" y="543" type="line" smooth="yes"/>
      <point x="189" y="630"/>
      <point x="215" y="676"/>
      <point x="215" y="742" type="curve" smooth="yes"/>
      <point x="215" y="807"/>
      <point x="190" y="854"/>
      <point x="147" y="854" type="curve" smooth="yes"/>
      <point x="120" y="854"/>
      <point x="98" y="837"/>
      <point x="80" y="809" type="curve"/>
      <point x="92" y="790" type="line"/>
      <point x="108" y="816"/>
      <point x="126" y="830"/>
      <point x="146" y="830" type="curve" smooth="yes"/>
      <point x="177" y="830"/>
      <point x="193" y="792"/>
      <point x="193" y="742" type="curve" smooth="yes"/>
      <point x="193" y="680"/>
      <point x="168" y="630"/>
      <point x="134" y="558" type="curve" smooth="yes"/>
      <point x="77" y="437" type="line"/>
    </contour>
  </outline>
</glyph>
<glyph name="threesuperior" format="2">
  <advance width="300"/>
  <unicode hex="00B3"/>
  <outline>
    <contour>
      <point x="135" y="411" type="curve" smooth="yes"/>
      <point x="185" y="411"/>
      <point x="217" y="455"/>
      <point x="217" y="535" type="curve" smooth="yes"/>
      <point x="217" y="593"/>
      <point x="200" y="628"/>
      <point x="170" y="642" type="curve"/>
      <point x="170" y="643" type="line"/>
      <point x="194" y="655"/>
      <point x="210" y="691"/>
      <point x="210" y="748" type="curve" smooth="yes"/>
      <point x="210" y="814"/>
      <point x="184" y="851"/>
      <point x="144" y="851" type="curve" smooth="yes"/>
      <point x="118" y="851"/>
      <point x="97" y="835"/>
      <point x="78" y="811" type="curve"/>
      <point x="88" y="790" type="line"/>
      <point x="105" y="812"/>
      <point x="121" y="827"/>
      <point x="143" y="827" type="curve" smooth="yes"/>
      <point x="173" y="827"/>
      <point x="189" y="797"/>
      <point x="189" y="748" type="curve" smooth="yes"/>
      <point x="189" y="689"/>
      <point x="169" y="652"/>
      <point x="134" y="652" type="curve" smooth="yes"/>
      <point x="109" y="652" type="line"/>
      <point x="109" y="628" type="line"/>
      <point x="135" y="628" type="line" smooth="yes"/>
      <point x="175" y="628"/>
      <point x="195" y="594"/>
      <point x="195" y="535" type="curve" smooth="yes"/>
      <point x="195" y="473"/>
      <point x="175" y="435"/>
      <point x="135" y="435" type="curve" smooth="yes"/>
      <point x="114" y="435"/>
      <point x="95" y="444"/>
      <point x="77" y="460" type="curve"/>
      <point x="77" y="432" type="line"/>
      <point x="93" y="419"/>
      <point x="114" y="411"/>
    </contour>
  </outline>
</glyph>
<glyph name="cedilla" format="2">
  <advance width="300"/>
  <unicode hex="00B8"/>
  <outline>
    <contour>
      <point x="131" y="-240" type="curve" smooth="yes"/>
      <point x="171" y="-240"/>
      <point x="196" y="-203"/>
      <point x="196" y="-146" type="curve" smooth="yes"/>
      <point x="196" y="-99"/>
      <point x="179" y="-69"/>
      <point x="148" y="-64" type="curve"/>
      <point x="163" y="0" type="line"/>
      <point x="144" y="0" type="line"/>
      <point x="124" y="-83" type="line"/>
      <point x="156" y="-84"/>
      <point x="174" y="-101"/>
      <point x="174" y="-146" type="curve" smooth="yes"/>
      <point x="174" y="-192"/>
      <point x="157" y="-217"/>
      <point x="129" y="-217" type="curve" smooth="yes"/>
      <point x="121" y="-217"/>
      <point x="111" y="-215"/>
      <point x="103" y="-210" type="curve"/>
      <point x="103" y="-234" type="line"/>
      <point x="111" y="-238"/>
      <point x="122" y="-240"/>
    </contour>
  </outline>
</glyph>
<glyph name="Eth" format="2">
  <advance width="300"/>
  <unicode hex="00D0"/>
  <anchor x="150" y="0" name="bottom"/>
  <anchor x="150" y="714" name="top"/>
  <anchor x="305" y="714" name="topright"/>
  <anchor x="166" y="357" name="center"/>
  <outline>
    <contour>
      <point x="10" y="353" type="line"/>
      <point x="159" y="353" type="line"/>
      <point x="159" y="378" type="line"/>
      <point x="10" y="378" type="line"/>
    </contour>
    <component base="D" xOffset="15"/>
  </outline>
</glyph>
<glyph name="Thorn" format="2">
  <advance width="300"/>
  <unicode hex="00DE"/>
  <anchor x="150" y="0" name="bottom"/>
  <anchor x="150" y="714" name="top"/>
  <outline>
    <contour>
      <point x="58" y="0" type="line"/>
      <point x="83" y="0" type="line"/>
      <point x="83" y="176" type="line"/>
      <point x="148" y="176" type="line" smooth="yes"/>
      <point x="227" y="176"/>
      <point x="265" y="242"/>
      <point x="265" y="385" type="curve" smooth="yes"/>
      <point x="265" y="533"/>
      <point x="224" y="584"/>
      <point x="147" y="584" type="curve" smooth="yes"/>
      <point x="83" y="584" type="line"/>
      <point x="83" y="714" type="line"/>
      <point x="58" y="714" type="line"/>
    </contour>
    <contour>
      <point x="83" y="201" type="line"/>
      <point x="83" y="559" type="line"/>
      <point x="143" y="559" type="line" smooth="yes"/>
      <point x="209" y="559"/>
      <point x="239" y="515"/>
      <point x="239" y="386" type="curve" smooth="yes"/>
      <point x="239" y="255"/>
      <point x="208" y="201"/>
      <point x="143" y="201" type="curve" smooth="yes"/>
    </contour>
  </outline>
</glyph>
<glyph name="germandbls" format="2">
  <advance width="300"/>
  <unicode hex="00DF"/>
  <anchor x="150" y="0" name="bottom"/>
  <anchor x="150" y="765" name="top"/>
  <outline>
    <contour>
      <point x="182" y="-10" type="curve" smooth="yes"/>
      <point x="236" y="-10"/>
      <point x="263" y="58"/>
      <point x="263" y="135" type="curve" smooth="yes"/>
      <point x="263" y="213"/>
      <point x="245" y="252"/>
      <point x="216" y="298" type="curve" smooth="yes"/>
      <point x="190" y="339"/>
      <point x="175" y="368"/>
      <point x="175" y="424" type="curve" smooth="yes"/>
      <point x="175" y="520"/>
      <point x="235" y="523"/>
      <point x="235" y="643" type="curve" smooth="yes"/>
      <point x="235" y="713"/>
      <point x="206" y="765"/>
      <point x="156" y="765" type="curve" smooth="yes"/>
      <point x="97" y="765"/>
      <point x="66" y="695"/>
      <point x="66" y="572" type="curve" smooth="yes"/>
      <point x="66" y="0" type="line"/>
      <point x="90" y="0" type="line"/>
      <point x="90" y="571" type="line" smooth="yes"/>
      <point x="90" y="676"/>
      <point x="110" y="740"/>
      <point x="155" y="740" type="curve" smooth="yes"/>
      <point x="191" y="740"/>
      <point x="209" y="700"/>
      <point x="209" y="643" type="curve" smooth="yes"/>
      <point x="209" y="535"/>
      <point x="150" y="532"/>
      <point x="150" y="424" type="curve" smooth="yes"/>
      <point x="150" y="360"/>
      <point x="171" y="325"/>
      <point x="196" y="281" type="curve" smooth="yes"/>
      <point x="220" y="240"/>
      <point x="238" y="204"/>
      <point x="238" y="135" type="curve" smooth="yes"/>
      <point x="238" y="65"/>
      <point x="218" y="15"/>
      <point x="180" y="15" type="curve" smooth="yes"/>
      <point x="160" y="15"/>
      <point x="142" y="24"/>
      <point x="124" y="43" type="curve"/>
      <point x="124" y="15" type="line"/>
      <point x="139" y="0"/>
      <point x="158" y="-10"/>
    </contour>
  </outline>
</glyph>
<glyph name="eth" format="2">
  <advance width="300"/>
  <unicode hex="00F0"/>
  <anchor x="150" y="0" name="bottom"/>
  <anchor x="150" y="264" name="center"/>
  <anchor x="150" y="757" name="top"/>
  <anchor x="278" y="760" name="topright"/>
  <outline>
    <contour>
      <point x="149" y="-10" type="curve" smooth="yes"/>
      <point x="220" y="-10"/>
      <point x="260" y="89"/>
      <point x="260" y="272" type="curve" smooth="yes"/>
      <point x="260" y="460"/>
      <point x="215" y="669"/>
      <point x="110" y="757" type="curve"/>
      <point x="97" y="740" type="line"/>
      <point x="164" y="676"/>
      <point x="214" y="543"/>
      <point x="229" y="390" type="curve"/>
      <point x="228" y="390" type="line"/>
      <point x="214" y="433"/>
      <point x="187" y="464"/>
      <point x="150" y="464" type="curve" smooth="yes"/>
      <point x="84" y="464"/>
      <point x="40" y="373"/>
      <point x="40" y="224" type="curve" smooth="yes"/>
      <point x="40" y="95"/>
      <point x="77" y="-10"/>
    </contour>
    <contour>
      <point x="149" y="15" type="curve" smooth="yes"/>
      <point x="95" y="15"/>
      <point x="65" y="97"/>
      <point x="65" y="225" type="curve" smooth="yes"/>
      <point x="65" y="357"/>
      <point x="97" y="439"/>
      <point x="154" y="439" type="curve" smooth="yes"/>
      <point x="209" y="439"/>
      <point x="234" y="358"/>
      <point x="234" y="243" type="curve" smooth="yes"/>
      <point x="234" y="112"/>
      <point x="204" y="15"/>
    </contour>
    <contour>
      <point x="99" y="602" type="line"/>
      <point x="228" y="734" type="line"/>
      <point x="218" y="755" type="line"/>
      <point x="88" y="622" type="line"/>
    </contour>
  </outline>
</glyph>
<glyph name="oslash" format="2">
  <advance width="300"/>
  <unicode hex="00F8"/>
  <anchor x="150" y="0" name="bottom"/>
  <anchor x="150" y="528" name="top"/>
  <anchor x="160" y="15" name="ogonek"/>
  <anchor x="288" y="528" name="topright"/>
  <anchor x="160" y="264" name="center"/>
  <outline>
    <contour>
      <point x="52" y="-54" type="line"/>
      <point x="269" y="557" type="line"/>
      <point x="252" y="570" type="line"/>
      <point x="35" y="-40" type="line"/>
    </contour>
    <component base="o" xOffset="10"/>
  </outline>
</glyph>
<glyph name="thorn" format="2">
  <advance width="300"/>
  <unicode hex="00FE"/>
  <anchor x="159" y="-240" name="bottom"/>
  <anchor x="159" y="714" name="top"/>
  <outline>
    <contour>
      <point x="53" y="-240" type="line"/>
      <point x="78" y="-240" type="line"/>
      <point x="78" y="11" type="line" smooth="yes"/>
      <point x="78" y="48"/>
      <point x="77" y="83"/>
      <point x="76" y="112" type="curve"/>
      <point x="78" y="112" type="line"/>
      <point x="90" y="50"/>
      <point x="114" y="-10"/>
      <point x="158" y="-10" type="curve" smooth="yes"/>
      <point x="220" y="-10"/>
      <point x="260" y="83"/>
      <point x="260" y="270" type="curve" smooth="yes"/>
      <point x="260" y="448"/>
      <point x="225" y="537"/>
      <point x="161" y="537" type="curve" smooth="yes"/>
      <point x="114" y="537"/>
      <point x="90" y="472"/>
      <point x="77" y="403" type="curve"/>
      <point x="76" y="403" type="line"/>
      <point x="77" y="444"/>
      <point x="78" y="486"/>
      <point x="78" y="527" type="curve" smooth="yes"/>
      <point x="78" y="714" type="line"/>
      <point x="53" y="714" type="line"/>
    </contour>
    <contour>
      <point x="155" y="15" type="curve" smooth="yes"/>
      <point x="107" y="15"/>
      <point x="78" y="95"/>
      <point x="78" y="241" type="curve" smooth="yes"/>
      <point x="78" y="279" type="line" smooth="yes"/>
      <point x="78" y="419"/>
      <point x="104" y="512"/>
      <point x="157" y="512" type="curve" smooth="yes"/>
      <point x="208" y="512"/>
      <point x="234" y="429"/>
      <point x="234" y="270" type="curve" smooth="yes"/>
      <point x="234" y="90"/>
      <point x="203" y="15"/>
    </contour>
  </outline>
</glyph>
<glyph name="dcaron" format="2">
  <advance width="300"/>
  <unicode hex="010F"/>
  <anchor x="127" y="0" name="bottom"/>
  <anchor x="127" y="264" name="center"/>
  <anchor x="155" y="760" name="top"/>
  <anchor x="256" y="760" name="topright"/>
  <outline>
    <contour>
      <point x="125" y="-10" type="curve" smooth="yes"/>
      <point x="167" y="-10"/>
      <point x="189" y="43"/>
      <point x="201" y="110" type="curve"/>
      <point x="202" y="110" type="line"/>
      <point x="206" y="0" type="line"/>
      <point x="226" y="0" type="line"/>
      <point x="226" y="760" type="line"/>
      <point x="201" y="760" type="line"/>
      <point x="201" y="520" type="line" smooth="yes"/>
      <point x="201" y="488"/>
      <point x="202" y="457"/>
      <point x="203" y="422" type="curve"/>
      <point x="201" y="422" type="line"/>
      <point x="190" y="482"/>
      <point x="169" y="538"/>
      <point x="127" y="538" type="curve" smooth="yes"/>
      <point x="69" y="538"/>
      <point x="34" y="439"/>
      <point x="34" y="255" type="curve" smooth="yes"/>
      <point x="34" y="83"/>
      <point x="66" y="-10"/>
    </contour>
    <contour>
      <point x="130" y="15" type="curve" smooth="yes"/>
      <point x="81" y="15"/>
      <point x="60" y="99"/>
      <point x="60" y="255" type="curve" smooth="yes"/>
      <point x="60" y="427"/>
      <point x="85" y="513"/>
      <point x="133" y="513" type="curve" smooth="yes"/>
      <point x="181" y="513"/>
      <point x="201" y="428"/>
      <point x="201" y="291" type="curve" smooth="yes"/>
      <point x="201" y="242" type="line" smooth="yes"/>
      <point x="201" y="102"/>
      <point x="181" y="15"/>
    </contour>
    <component base="caroncommaaccent" xOffset="138"/>
  </outline>
</glyph>
<glyph name="eogonek" format="2">
  <advance width="300"/>
  <unicode hex="0119"/>
  <anchor x="145" y="-217" name="bottom"/>
  <anchor x="140" y="528" name="top"/>
  <anchor x="160" y="10" name="ogonek"/>
  <anchor x="279" y="528" name="topright"/>
  <outline>
    <contour>
      <point x="207" y="-217" type="curve" smooth="yes"/>
      <point x="217" y="-217"/>
      <point x="228" y="-213"/>
      <point x="234" y="-209" type="curve"/>
      <point x="234" y="-185" type="line"/>
      <point x="228" y="-189"/>
      <point x="219" y="-192"/>
      <point x="211" y="-192" type="curve" smooth="yes"/>
      <point x="190" y="-192"/>
      <point x="180" y="-170"/>
      <point x="180" y="-132" type="curve" smooth="yes"/>
      <point x="180" y="-66"/>
      <point x="207" y="-16"/>
      <point x="237" y="23" type="curve"/>
      <point x="222" y="34" type="line"/>
      <point x="187" y="-13"/>
      <point x="158" y="-65"/>
      <point x="158" y="-132" type="curve" smooth="yes"/>
      <point x="158" y="-191"/>
      <point x="177" y="-217"/>
    </contour>
    <component base="e"/>
  </outline>
</glyph>
<glyph name="Hbar" format="2">
  <advance width="300"/>
  <unicode hex="0126"/>
  <anchor x="150" y="0" name="bottom"/>
  <anchor x="150" y="357" name="center"/>
  <anchor x="150" y="714" name="top"/>
  <anchor x="21" y="714" name="topleft"/>
  <outline>
    <contour>
      <point x="10" y="548" type="line"/>
      <point x="290" y="548" type="line"/>
      <point x="290" y="573" type="line"/>
      <point x="10" y="573" type="line"/>
    </contour>
    <contour>
      <point x="43" y="0" type="line"/>
      <point x="68" y="0" type="line"/>
      <point x="68" y="363" type="line"/>
      <point x="232" y="363" type="line"/>
      <point x="232" y="0" type="line"/>
      <point x="257" y="0" type="line"/>
      <point x="257" y="714" type="line"/>
      <point x="232" y="714" type="line"/>
      <point x="232" y="388" type="line"/>
      <point x="68" y="388" type="line"/>
      <point x="68" y="714" type="line"/>
      <point x="43" y="714" type="line"/>
    </contour>
  </outline>
</glyph>
<glyph name="IJ" format="2">
  <advance width="300"/>
  <unicode hex="0132"/>
  <anchor x="150" y="0" name="bottom"/>
  <anchor x="10" y="0" name="caret_1"/>
  <anchor x="150" y="714" name="top"/>
  <anchor x="21" y="714" name="topleft"/>
  <outline>
    <contour>
      <point x="141" y="-15" type="curve" smooth="yes"/>
      <point x="204" y="-15"/>
      <point x="229" y="57"/>
      <point x="229" y="176" type="curve" smooth="yes"/>
      <point x="229" y="714" type="line"/>
      <point x="204" y="714" type="line"/>
      <point x="204" y="184" type="line" smooth="yes"/>
      <point x="204" y="67"/>
      <point x="185" y="9"/>
      <point x="140" y="9" type="curve" smooth="yes"/>
      <point x="110" y="9"/>
      <point x="80" y="36"/>
      <point x="69" y="55" type="curve"/>
      <point x="69" y="27" type="line"/>
      <point x="84" y="5"/>
      <point x="113" y="-15"/>
    </contour>
    <contour>
      <point x="69" y="147" type="line"/>
      <point x="94" y="147" type="line"/>
      <point x="94" y="714" type="line"/>
      <point x="69" y="714" type="line"/>
    </contour>
  </outline>
</glyph>
<glyph name="kgreenlandic" format="2">
  <advance width="300"/>
  <unicode hex="0138"/>
  <anchor x="150" y="0" name="bottom"/>
  <anchor x="150" y="528" name="top"/>
  <outline>
    <contour>
      <point x="68" y="0" type="line"/>
      <point x="93" y="0" type="line"/>
      <point x="93" y="185" type="line"/>
      <point x="136" y="286" type="line"/>
      <point x="241" y="0" type="line"/>
      <point x="270" y="0" type="line"/>
      <point x="152" y="307" type="line"/>
      <point x="262" y="528" type="line"/>
      <point x="231" y="528" type="line"/>
      <point x="118" y="277" type="line" smooth="yes"/>
      <point x="109" y="258"/>
      <point x="102" y="239"/>
      <point x="92" y="217" type="curve"/>
      <point x="91" y="217" type="line"/>
      <point x="92" y="272"/>
      <point x="93" y="318"/>
      <point x="93" y="373" type="curve" smooth="yes"/>
      <point x="93" y="528" type="line"/>
      <point x="68" y="528" type="line"/>
    </contour>
  </outline>
</glyph>
<glyph name="Eng" format="2">
  <advance width="300"/>
  <unicode hex="014A"/>
  <anchor x="154" y="-175" name="bottom"/>
  <anchor x="142" y="714" name="top"/>
  <anchor x="290" y="714" name="topright"/>
  <outline>
    <contour>
      <point x="180" y="-175" type="curve" smooth="yes"/>
      <point x="230" y="-175"/>
      <point x="256" y="-125"/>
      <point x="256" y="-2" type="curve" smooth="yes"/>
      <point x="256" y="42" type="line"/>
      <point x="235" y="42" type="line"/>
      <point x="235" y="0" type="line" smooth="yes"/>
      <point x="235" y="-106"/>
      <point x="214" y="-150"/>
      <point x="178" y="-150" type="curve" smooth="yes"/>
      <point x="166" y="-150"/>
      <point x="152" y="-144"/>
      <point x="142" y="-137" type="curve"/>
      <point x="142" y="-162" type="line"/>
      <point x="151" y="-169"/>
      <point x="166" y="-175"/>
    </contour>
    <component base="N"/>
  </outline>
</glyph>
<glyph name="eng" format="2">
  <advance width="300"/>
  <unicode hex="014B"/>
  <anchor x="145" y="-241" name="bottom"/>
  <anchor x="144" y="528" name="top"/>
  <anchor x="278" y="528" name="topright"/>
  <outline>
    <contour>
      <point x="180" y="-241" type="curve" smooth="yes"/>
      <point x="218" y="-241"/>
      <point x="238" y="-202"/>
      <point x="239" y="-116" type="curve" smooth="yes"/>
      <point x="245" y="270" type="line" smooth="yes"/>
      <point x="223" y="266" type="line"/>
      <point x="215" y="-114" type="line" smooth="yes"/>
      <point x="214" y="-178"/>
      <point x="202" y="-216"/>
      <point x="177" y="-216" type="curve" smooth="yes"/>
      <point x="168" y="-216"/>
      <point x="156" y="-214"/>
      <point x="148" y="-207" type="curve"/>
      <point x="148" y="-233" type="line"/>
      <point x="155" y="-238"/>
      <point x="167" y="-241"/>
    </contour>
    <component base="n"/>
  </outline>
</glyph>
<glyph name="longs" format="2">
  <advance width="300"/>
  <unicode hex="017F"/>
  <anchor x="149" y="0" name="bottom"/>
  <anchor x="205" y="765" name="top"/>
  <outline>
    <contour>
      <point x="131" y="0" type="line"/>
      <point x="156" y="0" type="line"/>
      <point x="156" y="582" type="line" smooth="yes"/>
      <point x="156" y="696"/>
      <point x="177" y="741"/>
      <point x="219" y="741" type="curve" smooth="yes"/>
      <point x="231" y="741"/>
      <point x="244" y="738"/>
      <point x="253" y="732" type="curve"/>
      <point x="259" y="757" type="line"/>
      <point x="247" y="762"/>
      <point x="233" y="765"/>
      <point x="218" y="765" type="curve" smooth="yes"/>
      <point x="158" y="765"/>
      <point x="131" y="698"/>
      <point x="131" y="585" type="curve" smooth="yes"/>
    </contour>
  </outline>
</glyph>
<glyph name="uni0185" format="2">
  <advance width="300"/>
  <unicode hex="0185"/>
  <anchor x="150" y="0" name="bottom"/>
  <anchor x="150" y="760" name="top"/>
  <outline>
    <contour>
      <point x="152" y="-10" type="curve" smooth="yes"/>
      <point x="224" y="-10"/>
      <point x="260" y="99"/>
      <point x="260" y="268" type="curve" smooth="yes"/>
      <point x="260" y="445"/>
      <point x="225" y="538"/>
      <point x="161" y="538" type="curve" smooth="yes"/>
      <point x="118" y="538"/>
      <point x="89" y="486"/>
      <point x="78" y="412" type="curve"/>
      <point x="77" y="412" type="line"/>
      <point x="78" y="437"/>
      <point x="78" y="476"/>
      <point x="78" y="503" type="curve" smooth="yes"/>
      <point x="78" y="760" type="line"/>
      <point x="53" y="760" type="line"/>
      <point x="53" y="233" type="line" smooth="yes"/>
      <point x="53" y="73"/>
      <point x="87" y="-10"/>
    </contour>
    <contour>
      <point x="152" y="15" type="curve" smooth="yes"/>
      <point x="103" y="15"/>
      <point x="78" y="85"/>
      <point x="78" y="251" type="curve" smooth="yes"/>
      <point x="78" y="263" type="line" smooth="yes"/>
      <point x="78" y="426"/>
      <point x="104" y="513"/>
      <point x="157" y="513" type="curve" smooth="yes"/>
      <point x="209" y="513"/>
      <point x="234" y="430"/>
      <point x="234" y="268" type="curve" smooth="yes"/>
      <point x="234" y="101"/>
      <point x="205" y="15"/>
    </contour>
  </outline>
</glyph>
<glyph name="uni018B" format="2">
  <advance width="300"/>
  <unicode hex="018B"/>
  <anchor x="149" y="0" name="bottom"/>
  <anchor x="148" y="714" name="top"/>
  <anchor x="-1" y="0" name="topright"/>
  <outline>
    <contour>
      <point x="55" y="689" type="line"/>
      <point x="228" y="689" type="line"/>
      <point x="228" y="714" type="line"/>
      <point x="55" y="714" type="line"/>
    </contour>
    <component base="P" xScale="-1" yScale="-1" xOffset="289" yOffset="714"/>
  </outline>
</glyph>
<glyph name="uni018C" format="2">
  <advance width="300"/>
  <unicode hex="018C"/>
  <anchor x="149" y="0" name="bottom"/>
  <anchor x="154" y="760" name="top"/>
  <anchor x="288" y="760" name="topright"/>
  <anchor x="160" y="264" name="center"/>
  <outline>
    <contour>
      <point x="68" y="735" type="line"/>
      <point x="233" y="735" type="line"/>
      <point x="233" y="760" type="line"/>
      <point x="68" y="760" type="line"/>
    </contour>
    <component base="d" xOffset="10"/>
  </outline>
</glyph>
<glyph name="uni0191" format="2">
  <advance width="300"/>
  <unicode hex="0191"/>
  <anchor x="157" y="-148" name="bottom"/>
  <anchor x="154" y="714" name="top"/>
  <outline>
    <contour>
      <point x="24" y="-153" type="curve" smooth="yes"/>
      <point x="62" y="-153"/>
      <point x="82" y="-106"/>
      <point x="82" y="-9" type="curve" smooth="yes"/>
      <point x="82" y="329" type="line"/>
      <point x="234" y="329" type="line"/>
      <point x="234" y="354" type="line"/>
      <point x="82" y="354" type="line"/>
      <point x="82" y="689" type="line"/>
      <point x="242" y="689" type="line"/>
      <point x="242" y="714" type="line"/>
      <point x="57" y="714" type="line"/>
      <point x="57" y="-3" type="line" smooth="yes"/>
      <point x="57" y="-86"/>
      <point x="47" y="-128"/>
      <point x="22" y="-128" type="curve" smooth="yes"/>
      <point x="10" y="-128"/>
      <point x="1" y="-120"/>
      <point x="-8" y="-114" type="curve"/>
      <point x="-8" y="-140" type="line"/>
      <point x="1" y="-148"/>
      <point x="12" y="-153"/>
    </contour>
  </outline>
</glyph>
<glyph name="florin" format="2">
  <advance width="300"/>
  <unicode hex="0192"/>
  <anchor x="140" y="-240" name="bottom"/>
  <anchor x="193" y="724" name="top"/>
  <outline>
    <contour>
      <point x="84" y="-240" type="curve" smooth="yes"/>
      <point x="136" y="-240"/>
      <point x="154" y="-176"/>
      <point x="154" y="-83" type="curve" smooth="yes"/>
      <point x="154" y="422" type="line"/>
      <point x="218" y="422" type="line"/>
      <point x="218" y="447" type="line"/>
      <point x="154" y="447" type="line"/>
      <point x="154" y="543" type="line" smooth="yes"/>
      <point x="154" y="652"/>
      <point x="168" y="700"/>
      <point x="204" y="700" type="curve" smooth="yes"/>
      <point x="218" y="700"/>
      <point x="229" y="696"/>
      <point x="240" y="687" type="curve"/>
      <point x="247" y="711" type="line"/>
      <point x="232" y="721"/>
      <point x="219" y="724"/>
      <point x="203" y="724" type="curve" smooth="yes"/>
      <point x="151" y="724"/>
      <point x="129" y="660"/>
      <point x="129" y="547" type="curve" smooth="yes"/>
      <point x="129" y="447" type="line"/>
      <point x="65" y="443" type="line"/>
      <point x="65" y="422" type="line"/>
      <point x="129" y="422" type="line"/>
      <point x="129" y="-86" type="line" smooth="yes"/>
      <point x="129" y="-170"/>
      <point x="115" y="-215"/>
      <point x="82" y="-215" type="curve" smooth="yes"/>
      <point x="71" y="-215"/>
      <point x="60" y="-211"/>
      <point x="48" y="-205" type="curve"/>
      <point x="48" y="-232" type="line"/>
      <point x="58" y="-236"/>
      <point x="70" y="-240"/>
    </contour>
  </outline>
</glyph>
<glyph name="uni0195" format="2">
  <advance width="300"/>
  <unicode hex="0195"/>
  <anchor x="152" y="0" name="bottom"/>
  <anchor x="50" y="759" name="top"/>
  <outline>
    <contour>
      <point x="203" y="-9" type="curve" smooth="yes"/>
      <point x="241" y="-9"/>
      <point x="265" y="32"/>
      <point x="265" y="116" type="curve" smooth="yes"/>
      <point x="265" y="528" type="line"/>
      <point x="242" y="528" type="line"/>
      <point x="242" y="119" type="line" smooth="yes"/>
      <point x="242" y="48"/>
      <point x="227" y="16"/>
      <point x="203" y="16" type="curve" smooth="yes"/>
      <point x="178" y="16"/>
      <point x="164" y="48"/>
      <point x="164" y="120" type="curve" smooth="yes"/>
      <point x="164" y="416" type="line" smooth="yes"/>
      <point x="164" y="499"/>
      <point x="144" y="537"/>
      <point x="110" y="537" type="curve" smooth="yes"/>
      <point x="84" y="537"/>
      <point x="67" y="503"/>
      <point x="61" y="462" type="curve"/>
      <point x="59" y="462" type="line"/>
      <point x="60" y="484"/>
      <point x="61" y="499"/>
      <point x="61" y="530" type="curve" smooth="yes"/>
      <point x="61" y="760" type="line"/>
      <point x="38" y="760" type="line"/>
      <point x="38" y="0" type="line"/>
      <point x="61" y="0" type="line"/>
      <point x="61" y="336" type="line" smooth="yes"/>
      <point x="61" y="485"/>
      <point x="83" y="512"/>
      <point x="107" y="512" type="curve" smooth="yes"/>
      <point x="127" y="512"/>
      <point x="141" y="484"/>
      <point x="141" y="410" type="curve" smooth="yes"/>
      <point x="141" y="116" type="line" smooth="yes"/>
      <point x="141" y="36"/>
      <point x="162" y="-9"/>
    </contour>
  </outline>
</glyph>
<glyph name="uni019B" format="2">
  <advance width="300"/>
  <unicode hex="019B"/>
  <anchor x="156" y="0" name="bottom"/>
  <anchor x="159" y="766" name="top"/>
  <outline>
    <contour>
      <point x="85" y="561" type="line"/>
      <point x="207" y="635" type="line"/>
      <point x="200" y="659" type="line"/>
      <point x="79" y="585" type="line"/>
    </contour>
    <component base="lambda"/>
  </outline>
</glyph>
<glyph name="uni019C" format="2">
  <advance width="300"/>
  <unicode hex="019C"/>
  <anchor x="150" y="0" name="bottom"/>
  <anchor x="150" y="357" name="center"/>
  <anchor x="150" y="714" name="top"/>
  <anchor x="22" y="714" name="topleft"/>
  <outline>
    <contour>
      <point x="84" y="-9" type="curve" smooth="yes"/>
      <point x="115" y="-9"/>
      <point x="133" y="27"/>
      <point x="142" y="68" type="curve"/>
      <point x="143" y="68" type="line"/>
      <point x="149" y="32"/>
      <point x="163" y="-9"/>
      <point x="194" y="-9" type="curve" smooth="yes"/>
      <point x="225" y="-9"/>
      <point x="240" y="36"/>
      <point x="247" y="71" type="curve"/>
      <point x="248" y="71" type="line"/>
      <point x="252" y="0" type="line"/>
      <point x="269" y="0" type="line"/>
      <point x="269" y="714" type="line"/>
      <point x="246" y="714" type="line"/>
      <point x="246" y="162" type="line" smooth="yes"/>
      <point x="246" y="88"/>
      <point x="232" y="15"/>
      <point x="199" y="15" type="curve" smooth="yes"/>
      <point x="177" y="15"/>
      <point x="162" y="31"/>
      <point x="162" y="144" type="curve" smooth="yes"/>
      <point x="162" y="714" type="line"/>
      <point x="138" y="714" type="line"/>
      <point x="138" y="162" type="line" smooth="yes"/>
      <point x="138" y="70"/>
      <point x="122" y="15"/>
      <point x="90" y="15" type="curve" smooth="yes"/>
      <point x="68" y="15"/>
      <point x="55" y="35"/>
      <point x="55" y="127" type="curve" smooth="yes"/>
      <point x="55" y="714" type="line"/>
      <point x="31" y="714" type="line"/>
      <point x="31" y="125" type="line" smooth="yes"/>
      <point x="31" y="23"/>
      <point x="51" y="-9"/>
    </contour>
  </outline>
</glyph>
<glyph name="uni01A3" format="2">
  <advance width="300"/>
  <unicode hex="01A3"/>
  <anchor x="99" y="0" name="bottom"/>
  <anchor x="99" y="277" name="center"/>
  <anchor x="101" y="10" name="ogonek"/>
  <anchor x="148" y="528" name="top"/>
  <outline>
    <contour>
      <point x="236" y="-232" type="line"/>
      <point x="261" y="-232" type="line"/>
      <point x="261" y="419" type="line" smooth="yes"/>
      <point x="261" y="499"/>
      <point x="240" y="538"/>
      <point x="208" y="538" type="curve" smooth="yes"/>
      <point x="175" y="538"/>
      <point x="161" y="500"/>
      <point x="153" y="475" type="curve"/>
      <point x="142" y="515"/>
      <point x="125" y="538"/>
      <point x="101" y="538" type="curve" smooth="yes"/>
      <point x="51" y="538"/>
      <point x="28" y="461"/>
      <point x="28" y="266" type="curve" smooth="yes"/>
      <point x="28" y="70"/>
      <point x="48" y="-10"/>
      <point x="100" y="-10" type="curve" smooth="yes"/>
      <point x="149" y="-10"/>
      <point x="171" y="67"/>
      <point x="171" y="264" type="curve" smooth="yes"/>
      <point x="171" y="334"/>
      <point x="168" y="407"/>
      <point x="160" y="451" type="curve"/>
      <point x="168" y="477"/>
      <point x="179" y="513"/>
      <point x="202" y="513" type="curve" smooth="yes"/>
      <point x="224" y="513"/>
      <point x="236" y="484"/>
      <point x="236" y="410" type="curve" smooth="yes"/>
    </contour>
    <contour>
      <point x="99" y="15" type="curve" smooth="yes"/>
      <point x="68" y="15"/>
      <point x="53" y="83"/>
      <point x="53" y="266" type="curve" smooth="yes"/>
      <point x="53" y="451"/>
      <point x="70" y="513"/>
      <point x="100" y="513" type="curve" smooth="yes"/>
      <point x="134" y="513"/>
      <point x="145" y="422"/>
      <point x="145" y="265" type="curve" smooth="yes"/>
      <point x="145" y="75"/>
      <point x="128" y="15"/>
    </contour>
  </outline>
</glyph>
<glyph name="uni01A4" format="2">
  <advance width="300"/>
  <unicode hex="01A4"/>
  <anchor x="170" y="0" name="bottom"/>
  <anchor x="170" y="714" name="top"/>
  <outline>
    <contour>
      <point x="88" y="0" type="line"/>
      <point x="112" y="0" type="line"/>
      <point x="112" y="306" type="line"/>
      <point x="150" y="306" type="line" smooth="yes"/>
      <point x="228" y="306"/>
      <point x="265" y="372"/>
      <point x="265" y="514" type="curve" smooth="yes"/>
      <point x="265" y="663"/>
      <point x="224" y="714"/>
      <point x="149" y="714" type="curve" smooth="yes"/>
      <point x="88" y="714" type="line" smooth="yes"/>
      <point x="43" y="714"/>
      <point x="22" y="664"/>
      <point x="22" y="595" type="curve" smooth="yes"/>
      <point x="22" y="579"/>
      <point x="23" y="559"/>
      <point x="26" y="544" type="curve"/>
      <point x="48" y="544" type="line"/>
      <point x="47" y="556"/>
      <point x="45" y="577"/>
      <point x="45" y="596" type="curve" smooth="yes"/>
      <point x="45" y="652"/>
      <point x="60" y="687"/>
      <point x="88" y="689" type="curve"/>
    </contour>
    <contour>
      <point x="112" y="331" type="line"/>
      <point x="112" y="689" type="line"/>
      <point x="145" y="689" type="line" smooth="yes"/>
      <point x="210" y="689"/>
      <point x="239" y="645"/>
      <point x="239" y="516" type="curve" smooth="yes"/>
      <point x="239" y="385"/>
      <point x="208" y="331"/>
      <point x="145" y="331" type="curve" smooth="yes"/>
    </contour>
  </outline>
</glyph>
<glyph name="uni01A6" format="2">
  <advance width="300"/>
  <unicode hex="01A6"/>
  <anchor x="159" y="-100" name="bottom"/>
  <anchor x="159" y="714" name="top"/>
  <outline>
    <contour>
      <point x="243" y="-100" type="line"/>
      <point x="271" y="-100" type="line"/>
      <point x="170" y="225" type="line"/>
      <point x="231" y="251"/>
      <point x="256" y="318"/>
      <point x="256" y="422" type="curve" smooth="yes"/>
      <point x="256" y="571"/>
      <point x="208" y="614"/>
      <point x="117" y="614" type="curve" smooth="yes"/>
      <point x="83" y="614" type="line"/>
      <point x="83" y="714" type="line"/>
      <point x="58" y="714" type="line"/>
      <point x="58" y="0" type="line"/>
      <point x="83" y="0" type="line"/>
      <point x="83" y="220" type="line"/>
      <point x="145" y="220" type="line"/>
    </contour>
    <contour>
      <point x="83" y="245" type="line"/>
      <point x="83" y="589" type="line"/>
      <point x="116" y="589" type="line" smooth="yes"/>
      <point x="191" y="589"/>
      <point x="230" y="550"/>
      <point x="230" y="424" type="curve" smooth="yes"/>
      <point x="230" y="301"/>
      <point x="190" y="245"/>
      <point x="129" y="245" type="curve" smooth="yes"/>
    </contour>
  </outline>
</glyph>
<glyph name="uni01AA" format="2">
  <advance width="300"/>
  <unicode hex="01AA"/>
  <anchor x="155" y="-240" name="bottom"/>
  <anchor x="155" y="770" name="top"/>
  <outline>
    <contour>
      <point x="215" y="-237" type="curve" smooth="yes"/>
      <point x="231" y="-237"/>
      <point x="245" y="-233"/>
      <point x="255" y="-227" type="curve"/>
      <point x="255" y="-202" type="line"/>
      <point x="245" y="-208"/>
      <point x="233" y="-212"/>
      <point x="217" y="-212" type="curve" smooth="yes"/>
      <point x="187" y="-212"/>
      <point x="167" y="-179"/>
      <point x="167" y="-91" type="curve" smooth="yes"/>
      <point x="167" y="634" type="line" smooth="yes"/>
      <point x="167" y="714"/>
      <point x="141" y="765"/>
      <point x="101" y="765" type="curve" smooth="yes"/>
      <point x="60" y="765"/>
      <point x="35" y="717"/>
      <point x="35" y="652" type="curve" smooth="yes"/>
      <point x="35" y="577"/>
      <point x="62" y="539"/>
      <point x="104" y="539" type="curve" smooth="yes"/>
      <point x="142" y="539" type="line"/>
      <point x="142" y="-98" type="line" smooth="yes"/>
      <point x="142" y="-190"/>
      <point x="171" y="-237"/>
    </contour>
    <contour>
      <point x="108" y="564" type="line" smooth="yes"/>
      <point x="72" y="564"/>
      <point x="60" y="597"/>
      <point x="60" y="653" type="curve" smooth="yes"/>
      <point x="60" y="703"/>
      <point x="76" y="740"/>
      <point x="100" y="740" type="curve" smooth="yes"/>
      <point x="125" y="740"/>
      <point x="142" y="705"/>
      <point x="142" y="623" type="curve" smooth="yes"/>
      <point x="142" y="564" type="line"/>
    </contour>
  </outline>
</glyph>
<glyph name="uni01AB" format="2">
  <advance width="300"/>
  <unicode hex="01AB"/>
  <anchor x="196" y="-240" name="bottom"/>
  <anchor x="150" y="659" name="top"/>
  <anchor x="288" y="659" name="topright"/>
  <anchor x="148" y="290" name="center"/>
  <outline>
    <contour>
      <point x="200" y="-242" type="curve" smooth="yes"/>
      <point x="234" y="-242"/>
      <point x="252" y="-206"/>
      <point x="252" y="-146" type="curve" smooth="yes"/>
      <point x="252" y="16" type="line"/>
      <point x="229" y="8" type="line"/>
      <point x="229" y="-144" type="line" smooth="yes"/>
      <point x="229" y="-182"/>
      <point x="221" y="-217"/>
      <point x="198" y="-217" type="curve" smooth="yes"/>
      <point x="188" y="-217"/>
      <point x="180" y="-212"/>
      <point x="173" y="-206" type="curve"/>
      <point x="173" y="-233" type="line"/>
      <point x="179" y="-238"/>
      <point x="188" y="-242"/>
    </contour>
    <component base="t" xOffset="10"/>
  </outline>
</glyph>
<glyph name="uni01AC" format="2">
  <advance width="300"/>
  <unicode hex="01AC"/>
  <anchor x="150" y="0" name="bottom"/>
  <anchor x="150" y="714" name="top"/>
  <outline>
    <contour>
      <point x="137" y="0" type="line"/>
      <point x="162" y="0" type="line"/>
      <point x="162" y="689" type="line"/>
      <point x="266" y="689" type="line"/>
      <point x="266" y="714" type="line"/>
      <point x="83" y="714" type="line" smooth="yes"/>
      <point x="42" y="714"/>
      <point x="23" y="665"/>
      <point x="23" y="596" type="curve" smooth="yes"/>
      <point x="23" y="579"/>
      <point x="25" y="559"/>
      <point x="27" y="544" type="curve"/>
      <point x="49" y="544" type="line"/>
      <point x="48" y="556"/>
      <point x="46" y="577"/>
      <point x="46" y="596" type="curve" smooth="yes"/>
      <point x="46" y="654"/>
      <point x="60" y="689"/>
      <point x="84" y="689" type="curve" smooth="yes"/>
      <point x="137" y="689" type="line"/>
    </contour>
  </outline>
</glyph>
<glyph name="uni01AD" format="2">
  <advance width="300"/>
  <unicode hex="01AD"/>
  <anchor x="150" y="0" name="bottom"/>
  <anchor x="150" y="765" name="top"/>
  <outline>
    <contour>
      <point x="205" y="-10" type="curve" smooth="yes"/>
      <point x="224" y="-10"/>
      <point x="239" y="-4"/>
      <point x="253" y="3" type="curve"/>
      <point x="253" y="28" type="line"/>
      <point x="238" y="20"/>
      <point x="224" y="15"/>
      <point x="207" y="15" type="curve" smooth="yes"/>
      <point x="164" y="15"/>
      <point x="150" y="75"/>
      <point x="150" y="183" type="curve" smooth="yes"/>
      <point x="150" y="503" type="line"/>
      <point x="249" y="503" type="line"/>
      <point x="249" y="528" type="line"/>
      <point x="150" y="528" type="line"/>
      <point x="150" y="597" type="line" smooth="yes"/>
      <point x="150" y="696"/>
      <point x="165" y="740"/>
      <point x="195" y="740" type="curve" smooth="yes"/>
      <point x="208" y="740"/>
      <point x="219" y="734"/>
      <point x="227" y="728" type="curve"/>
      <point x="227" y="754" type="line"/>
      <point x="219" y="759"/>
      <point x="209" y="765"/>
      <point x="193" y="765" type="curve" smooth="yes"/>
      <point x="149" y="765"/>
      <point x="125" y="707"/>
      <point x="125" y="602" type="curve" smooth="yes"/>
      <point x="125" y="528" type="line"/>
      <point x="51" y="524" type="line"/>
      <point x="51" y="503" type="line"/>
      <point x="125" y="503" type="line"/>
      <point x="125" y="180" type="line" smooth="yes"/>
      <point x="125" y="62"/>
      <point x="149" y="-10"/>
    </contour>
  </outline>
</glyph>
<glyph name="uni01B3" format="2">
  <advance width="300"/>
  <unicode hex="01B3"/>
  <anchor x="150" y="0" name="bottom"/>
  <anchor x="150" y="714" name="top"/>
  <outline>
    <contour>
      <point x="137" y="0" type="line"/>
      <point x="162" y="0" type="line"/>
      <point x="162" y="275" type="line"/>
      <point x="273" y="714" type="line"/>
      <point x="246" y="714" type="line"/>
      <point x="149" y="305" type="line"/>
      <point x="69" y="641" type="line" smooth="yes"/>
      <point x="55" y="701"/>
      <point x="44" y="719"/>
      <point x="25" y="719" type="curve" smooth="yes"/>
      <point x="17" y="719"/>
      <point x="11" y="717"/>
      <point x="6" y="714" type="curve"/>
      <point x="6" y="691" type="line"/>
      <point x="10" y="694"/>
      <point x="15" y="696"/>
      <point x="20" y="696" type="curve" smooth="yes"/>
      <point x="32" y="696"/>
      <point x="38" y="678"/>
      <point x="50" y="630" type="curve" smooth="yes"/>
      <point x="136" y="275" type="line"/>
    </contour>
  </outline>
</glyph>
<glyph name="uni01B6" format="2">
  <advance width="300"/>
  <unicode hex="01B6"/>
  <anchor x="153" y="0" name="bottom"/>
  <anchor x="153" y="528" name="top"/>
  <anchor x="289" y="528" name="topright"/>
  <outline>
    <contour>
      <point x="71" y="260" type="line"/>
      <point x="231" y="260" type="line"/>
      <point x="231" y="283" type="line"/>
      <point x="71" y="283" type="line"/>
    </contour>
    <component base="z" xOffset="10"/>
  </outline>
</glyph>
<glyph name="uni01BA" format="2">
  <advance width="300"/>
  <unicode hex="01BA"/>
  <anchor x="149" y="-240" name="bottom"/>
  <anchor x="149" y="528" name="top"/>
  <outline>
    <contour>
      <point x="138" y="-240" type="curve" smooth="yes"/>
      <point x="179" y="-240"/>
      <point x="208" y="-228"/>
      <point x="229" y="-215" type="curve"/>
      <point x="229" y="-189" type="line"/>
      <point x="202" y="-206"/>
      <point x="176" y="-215"/>
      <point x="138" y="-215" type="curve" smooth="yes"/>
      <point x="89" y="-215"/>
      <point x="66" y="-184"/>
      <point x="66" y="-125" type="curve" smooth="yes"/>
      <point x="66" y="-66"/>
      <point x="81" y="-33"/>
      <point x="132" y="-24" type="curve" smooth="yes"/>
      <point x="205" y="-11"/>
      <point x="246" y="24"/>
      <point x="246" y="139" type="curve" smooth="yes"/>
      <point x="246" y="272"/>
      <point x="192" y="288"/>
      <point x="123" y="288" type="curve"/>
      <point x="237" y="509" type="line"/>
      <point x="237" y="528" type="line"/>
      <point x="53" y="528" type="line"/>
      <point x="53" y="503" type="line"/>
      <point x="199" y="503" type="line"/>
      <point x="89" y="288" type="line"/>
      <point x="89" y="263" type="line"/>
      <point x="111" y="263" type="line" smooth="yes"/>
      <point x="174" y="263"/>
      <point x="220" y="250"/>
      <point x="220" y="139" type="curve" smooth="yes"/>
      <point x="220" y="40"/>
      <point x="188" y="12"/>
      <point x="132" y="1" type="curve" smooth="yes"/>
      <point x="68" y="-11"/>
      <point x="40" y="-48"/>
      <point x="40" y="-123" type="curve" smooth="yes"/>
      <point x="40" y="-198"/>
      <point x="75" y="-240"/>
    </contour>
  </outline>
</glyph>
<glyph name="uni01BB" format="2">
  <advance width="300"/>
  <unicode hex="01BB"/>
  <anchor x="158" y="0" name="bottom"/>
  <anchor x="147" y="714" name="top"/>
  <outline>
    <contour>
      <point x="87" y="344" type="line"/>
      <point x="258" y="344" type="line"/>
      <point x="258" y="368" type="line"/>
      <point x="87" y="368" type="line"/>
    </contour>
    <component base="two" xOffset="10"/>
  </outline>
</glyph>
<glyph name="uni01BD" format="2">
  <advance width="300"/>
  <unicode hex="01BD"/>
  <anchor x="150" y="0" name="bottom"/>
  <anchor x="150" y="528" name="top"/>
  <outline>
    <contour>
      <point x="139" y="-7" type="curve" smooth="yes"/>
      <point x="218" y="-7"/>
      <point x="251" y="67"/>
      <point x="251" y="160" type="curve" smooth="yes"/>
      <point x="251" y="260"/>
      <point x="218" y="304"/>
      <point x="144" y="304" type="curve" smooth="yes"/>
      <point x="116" y="304" type="line"/>
      <point x="116" y="503" type="line"/>
      <point x="242" y="503" type="line"/>
      <point x="242" y="528" type="line"/>
      <point x="51" y="528" type="line"/>
      <point x="51" y="503" type="line"/>
      <point x="92" y="503" type="line"/>
      <point x="92" y="279" type="line"/>
      <point x="138" y="279" type="line" smooth="yes"/>
      <point x="198" y="279"/>
      <point x="225" y="245"/>
      <point x="225" y="160" type="curve" smooth="yes"/>
      <point x="225" y="80"/>
      <point x="197" y="18"/>
      <point x="141" y="18" type="curve" smooth="yes"/>
      <point x="102" y="18"/>
      <point x="71" y="34"/>
      <point x="46" y="57" type="curve"/>
      <point x="46" y="27" type="line"/>
      <point x="66" y="10"/>
      <point x="98" y="-7"/>
    </contour>
  </outline>
</glyph>
<glyph name="uni01E4" format="2">
  <advance width="300"/>
  <unicode hex="01E4"/>
  <anchor x="173" y="0" name="bottom"/>
  <anchor x="170" y="714" name="top"/>
  <outline>
    <contour>
      <point x="172" y="-10" type="curve" smooth="yes"/>
      <point x="203" y="-10"/>
      <point x="233" y="2"/>
      <point x="256" y="24" type="curve"/>
      <point x="256" y="351" type="line"/>
      <point x="160" y="351" type="line"/>
      <point x="160" y="326" type="line"/>
      <point x="232" y="326" type="line"/>
      <point x="232" y="40" type="line"/>
      <point x="219" y="27"/>
      <point x="197" y="15"/>
      <point x="173" y="15" type="curve" smooth="yes"/>
      <point x="91" y="15"/>
      <point x="58" y="156"/>
      <point x="58" y="362" type="curve" smooth="yes"/>
      <point x="58" y="556"/>
      <point x="90" y="699"/>
      <point x="171" y="699" type="curve" smooth="yes"/>
      <point x="195" y="699"/>
      <point x="217" y="691"/>
      <point x="239" y="661" type="curve"/>
      <point x="250" y="681" type="line"/>
      <point x="226" y="715"/>
      <point x="196" y="724"/>
      <point x="170" y="724" type="curve" smooth="yes"/>
      <point x="74" y="724"/>
      <point x="33" y="574"/>
      <point x="33" y="358" type="curve" smooth="yes"/>
      <point x="33" y="141"/>
      <point x="73" y="-10"/>
    </contour>
    <contour>
      <point x="160" y="183" type="line"/>
      <point x="289" y="183" type="line"/>
      <point x="289" y="208" type="line"/>
      <point x="160" y="208" type="line"/>
    </contour>
  </outline>
</glyph>
<glyph name="uni01E5" format="2">
  <advance width="300"/>
  <unicode hex="01E5"/>
  <anchor x="150" y="-245" name="bottom"/>
  <anchor x="150" y="546" name="top"/>
  <outline>
    <contour>
      <point x="136" y="-241" type="curve" smooth="yes"/>
      <point x="211" y="-241"/>
      <point x="241" y="-181"/>
      <point x="246" y="-95" type="curve"/>
      <point x="287" y="-95" type="line"/>
      <point x="287" y="-70" type="line"/>
      <point x="247" y="-70" type="line"/>
      <point x="247" y="528" type="line"/>
      <point x="227" y="528" type="line"/>
      <point x="223" y="439" type="line"/>
      <point x="222" y="439" type="line"/>
      <point x="208" y="493"/>
      <point x="183" y="538"/>
      <point x="142" y="538" type="curve" smooth="yes"/>
      <point x="75" y="538"/>
      <point x="40" y="432"/>
      <point x="40" y="265" type="curve" smooth="yes"/>
      <point x="40" y="90"/>
      <point x="74" y="2"/>
      <point x="136" y="2" type="curve" smooth="yes"/>
      <point x="177" y="2"/>
      <point x="209" y="53"/>
      <point x="222" y="126" type="curve"/>
      <point x="224" y="126" type="line"/>
      <point x="222" y="86"/>
      <point x="222" y="62"/>
      <point x="222" y="27" type="curve" smooth="yes"/>
      <point x="222" y="-70" type="line"/>
      <point x="127" y="-70" type="line"/>
      <point x="127" y="-95" type="line"/>
      <point x="221" y="-95" type="line"/>
      <point x="217" y="-167"/>
      <point x="193" y="-216"/>
      <point x="137" y="-216" type="curve" smooth="yes"/>
      <point x="106" y="-216"/>
      <point x="82" y="-201"/>
      <point x="56" y="-179" type="curve"/>
      <point x="56" y="-208" type="line"/>
      <point x="79" y="-228"/>
      <point x="103" y="-241"/>
    </contour>
    <contour>
      <point x="142" y="27" type="curve" smooth="yes"/>
      <point x="91" y="27"/>
      <point x="65" y="103"/>
      <point x="65" y="264" type="curve" smooth="yes"/>
      <point x="65" y="415"/>
      <point x="88" y="513"/>
      <point x="145" y="513" type="curve" smooth="yes"/>
      <point x="200" y="513"/>
      <point x="223" y="423"/>
      <point x="223" y="312" type="curve" smooth="yes"/>
      <point x="223" y="240" type="line" smooth="yes"/>
      <point x="223" y="136"/>
      <point x="201" y="27"/>
    </contour>
  </outline>
</glyph>
<glyph name="uni0221" format="2">
  <advance width="300"/>
  <unicode hex="0221"/>
  <anchor x="149" y="-98" name="bottom"/>
  <anchor x="149" y="760" name="top"/>
  <outline>
    <contour>
      <point x="197" y="-98" type="line"/>
      <point x="198" y="-59"/>
      <point x="200" y="-19"/>
      <point x="203" y="18" type="curve"/>
      <point x="213" y="5"/>
      <point x="223" y="0"/>
      <point x="235" y="0" type="curve" smooth="yes"/>
      <point x="269" y="0"/>
      <point x="287" y="47"/>
      <point x="287" y="113" type="curve" smooth="yes"/>
      <point x="287" y="177"/>
      <point x="270" y="213"/>
      <point x="242" y="213" type="curve" smooth="yes"/>
      <point x="209" y="213"/>
      <point x="194" y="152"/>
      <point x="188" y="59" type="curve"/>
      <point x="182" y="75"/>
      <point x="179" y="106"/>
      <point x="179" y="147" type="curve" smooth="yes"/>
      <point x="179" y="760" type="line"/>
      <point x="155" y="760" type="line"/>
      <point x="155" y="514" type="line" smooth="yes"/>
      <point x="155" y="492"/>
      <point x="156" y="470"/>
      <point x="157" y="455" type="curve"/>
      <point x="155" y="455" type="line"/>
      <point x="149" y="505"/>
      <point x="131" y="537"/>
      <point x="104" y="537" type="curve" smooth="yes"/>
      <point x="52" y="537"/>
      <point x="26" y="450"/>
      <point x="26" y="256" type="curve" smooth="yes"/>
      <point x="26" y="63"/>
      <point x="49" y="-10"/>
      <point x="102" y="-10" type="curve" smooth="yes"/>
      <point x="135" y="-10"/>
      <point x="152" y="39"/>
      <point x="159" y="92" type="curve"/>
      <point x="161" y="92" type="line"/>
      <point x="165" y="68"/>
      <point x="173" y="45"/>
      <point x="184" y="31" type="curve"/>
      <point x="180" y="-9"/>
      <point x="178" y="-51"/>
      <point x="177" y="-97" type="curve"/>
    </contour>
    <contour>
      <point x="105" y="15" type="curve" smooth="yes"/>
      <point x="65" y="15"/>
      <point x="50" y="82"/>
      <point x="50" y="256" type="curve" smooth="yes"/>
      <point x="50" y="436"/>
      <point x="68" y="512"/>
      <point x="106" y="512" type="curve" smooth="yes"/>
      <point x="135" y="512"/>
      <point x="155" y="456"/>
      <point x="155" y="315" type="curve" smooth="yes"/>
      <point x="155" y="211" type="line" smooth="yes"/>
      <point x="155" y="87"/>
      <point x="136" y="15"/>
    </contour>
    <contour>
      <point x="235" y="23" type="curve" smooth="yes"/>
      <point x="224" y="23"/>
      <point x="215" y="29"/>
      <point x="205" y="43" type="curve"/>
      <point x="210" y="122"/>
      <point x="216" y="190"/>
      <point x="240" y="190" type="curve" smooth="yes"/>
      <point x="258" y="190"/>
      <point x="265" y="153"/>
      <point x="265" y="113" type="curve" smooth="yes"/>
      <point x="265" y="52"/>
      <point x="253" y="23"/>
    </contour>
  </outline>
</glyph>
<glyph name="uni0222" format="2">
  <advance width="300"/>
  <unicode hex="0222"/>
  <anchor x="149" y="0" name="bottom"/>
  <anchor x="149" y="714" name="top"/>
  <outline>
    <contour>
      <point x="148" y="-10" type="curve" smooth="yes"/>
      <point x="233" y="-10"/>
      <point x="259" y="102"/>
      <point x="259" y="206" type="curve" smooth="yes"/>
      <point x="259" y="299"/>
      <point x="241" y="388"/>
      <point x="190" y="415" type="curve"/>
      <point x="224" y="443"/>
      <point x="242" y="496"/>
      <point x="242" y="620" type="curve" smooth="yes"/>
      <point x="242" y="714" type="line"/>
      <point x="217" y="714" type="line"/>
      <point x="217" y="624" type="line" smooth="yes"/>
      <point x="217" y="482"/>
      <point x="193" y="427"/>
      <point x="150" y="427" type="curve" smooth="yes"/>
      <point x="106" y="427"/>
      <point x="80" y="483"/>
      <point x="80" y="624" type="curve" smooth="yes"/>
      <point x="80" y="714" type="line"/>
      <point x="55" y="714" type="line"/>
      <point x="55" y="620" type="line" smooth="yes"/>
      <point x="55" y="503"/>
      <point x="73" y="440"/>
      <point x="108" y="415" type="curve"/>
      <point x="61" y="394"/>
      <point x="38" y="319"/>
      <point x="38" y="208" type="curve" smooth="yes"/>
      <point x="38" y="106"/>
      <point x="62" y="-10"/>
    </contour>
    <contour>
      <point x="148" y="15" type="curve" smooth="yes"/>
      <point x="94" y="15"/>
      <point x="64" y="83"/>
      <point x="64" y="208" type="curve" smooth="yes"/>
      <point x="64" y="332"/>
      <point x="93" y="400"/>
      <point x="149" y="400" type="curve" smooth="yes"/>
      <point x="204" y="400"/>
      <point x="233" y="334"/>
      <point x="233" y="208" type="curve" smooth="yes"/>
      <point x="233" y="82"/>
      <point x="203" y="15"/>
    </contour>
  </outline>
</glyph>
<glyph name="uni0225" format="2">
  <advance width="300"/>
  <unicode hex="0225"/>
  <anchor x="159" y="-240" name="bottom"/>
  <anchor x="149" y="528" name="top"/>
  <anchor x="289" y="528" name="topright"/>
  <outline>
    <contour>
      <point x="202" y="-160" type="curve" smooth="yes"/>
      <point x="233" y="-160"/>
      <point x="249" y="-132"/>
      <point x="249" y="-79" type="curve" smooth="yes"/>
      <point x="249" y="25" type="line"/>
      <point x="219" y="25" type="line"/>
      <point x="219" y="0" type="line"/>
      <point x="226" y="0" type="line"/>
      <point x="226" y="-75" type="line" smooth="yes"/>
      <point x="226" y="-119"/>
      <point x="216" y="-138"/>
      <point x="199" y="-138" type="curve" smooth="yes"/>
      <point x="191" y="-138"/>
      <point x="184" y="-135"/>
      <point x="176" y="-129" type="curve"/>
      <point x="176" y="-152" type="line"/>
      <point x="184" y="-157"/>
      <point x="192" y="-160"/>
    </contour>
    <component base="z" xOffset="10"/>
  </outline>
</glyph>
<glyph name="uni0234" format="2">
  <advance width="300"/>
  <unicode hex="0234"/>
  <anchor x="179" y="0" name="bottom"/>
  <anchor x="100" y="760" name="top"/>
  <outline>
    <contour>
      <point x="54" y="-22" type="line"/>
      <point x="61" y="19"/>
      <point x="77" y="73"/>
      <point x="92" y="96" type="curve"/>
      <point x="101" y="30"/>
      <point x="126" y="-10"/>
      <point x="177" y="-10" type="curve" smooth="yes"/>
      <point x="227" y="-10"/>
      <point x="256" y="26"/>
      <point x="256" y="91" type="curve" smooth="yes"/>
      <point x="256" y="147"/>
      <point x="232" y="185"/>
      <point x="180" y="185" type="curve" smooth="yes"/>
      <point x="151" y="185"/>
      <point x="125" y="162"/>
      <point x="112" y="143" type="curve"/>
      <point x="112" y="760" type="line"/>
      <point x="87" y="760" type="line"/>
      <point x="87" y="189" type="line" smooth="yes"/>
      <point x="87" y="167"/>
      <point x="87" y="144"/>
      <point x="88" y="126" type="curve"/>
      <point x="63" y="93"/>
      <point x="43" y="37"/>
      <point x="33" y="-14" type="curve"/>
    </contour>
    <contour>
      <point x="178" y="15" type="curve" smooth="yes"/>
      <point x="137" y="15"/>
      <point x="117" y="56"/>
      <point x="114" y="115" type="curve"/>
      <point x="128" y="141"/>
      <point x="153" y="160"/>
      <point x="178" y="160" type="curve" smooth="yes"/>
      <point x="214" y="160"/>
      <point x="231" y="133"/>
      <point x="231" y="89" type="curve" smooth="yes"/>
      <point x="231" y="46"/>
      <point x="214" y="15"/>
    </contour>
  </outline>
</glyph>
<glyph name="uni0235" format="2">
  <advance width="300"/>
  <unicode hex="0235"/>
  <anchor x="126" y="0" name="bottom"/>
  <anchor x="128" y="528" name="top"/>
  <outline>
    <contour>
      <point x="163" y="-28" type="line"/>
      <point x="168" y="10"/>
      <point x="174" y="51"/>
      <point x="180" y="81" type="curve"/>
      <point x="186" y="25"/>
      <point x="202" y="-10"/>
      <point x="228" y="-10" type="curve" smooth="yes"/>
      <point x="260" y="-10"/>
      <point x="278" y="32"/>
      <point x="278" y="87" type="curve" smooth="yes"/>
      <point x="278" y="139"/>
      <point x="262" y="180"/>
      <point x="231" y="180" type="curve" smooth="yes"/>
      <point x="217" y="180"/>
      <point x="206" y="171"/>
      <point x="198" y="155" type="curve"/>
      <point x="198" y="393" type="line" smooth="yes"/>
      <point x="198" y="506"/>
      <point x="168" y="537"/>
      <point x="128" y="537" type="curve" smooth="yes"/>
      <point x="87" y="537"/>
      <point x="71" y="492"/>
      <point x="64" y="454" type="curve"/>
      <point x="62" y="454" type="line"/>
      <point x="60" y="527" type="line"/>
      <point x="41" y="527" type="line"/>
      <point x="41" y="0" type="line"/>
      <point x="65" y="0" type="line"/>
      <point x="65" y="346" type="line" smooth="yes"/>
      <point x="65" y="479"/>
      <point x="89" y="513"/>
      <point x="123" y="513" type="curve" smooth="yes"/>
      <point x="156" y="513"/>
      <point x="173" y="480"/>
      <point x="173" y="383" type="curve" smooth="yes"/>
      <point x="173" y="153" type="line" smooth="yes"/>
      <point x="173" y="143"/>
      <point x="173" y="137"/>
      <point x="174" y="125" type="curve"/>
      <point x="161" y="86"/>
      <point x="151" y="30"/>
      <point x="142" y="-21" type="curve"/>
    </contour>
    <contour>
      <point x="228" y="13" type="curve" smooth="yes"/>
      <point x="208" y="13"/>
      <point x="199" y="46"/>
      <point x="198" y="121" type="curve"/>
      <point x="206" y="144"/>
      <point x="216" y="157"/>
      <point x="229" y="157" type="curve" smooth="yes"/>
      <point x="248" y="157"/>
      <point x="257" y="126"/>
      <point x="257" y="86" type="curve" smooth="yes"/>
      <point x="257" y="52"/>
      <point x="251" y="13"/>
    </contour>
  </outline>
</glyph>
<glyph name="uni0238" format="2">
  <advance width="300"/>
  <unicode hex="0238"/>
  <anchor x="150" y="0" name="bottom"/>
  <anchor x="151" y="760" name="top"/>
  <outline>
    <contour>
      <point x="95" y="-10" type="curve" smooth="yes"/>
      <point x="122" y="-10"/>
      <point x="142" y="18"/>
      <point x="150" y="103" type="curve"/>
      <point x="159" y="19"/>
      <point x="177" y="-10"/>
      <point x="205" y="-10" type="curve" smooth="yes"/>
      <point x="250" y="-10"/>
      <point x="271" y="48"/>
      <point x="271" y="263" type="curve" smooth="yes"/>
      <point x="271" y="460"/>
      <point x="252" y="537"/>
      <point x="209" y="537" type="curve" smooth="yes"/>
      <point x="184" y="537"/>
      <point x="170" y="505"/>
      <point x="162" y="460" type="curve"/>
      <point x="161" y="460" type="line"/>
      <point x="161" y="480"/>
      <point x="162" y="492"/>
      <point x="162" y="512" type="curve" smooth="yes"/>
      <point x="162" y="760" type="line"/>
      <point x="139" y="760" type="line"/>
      <point x="139" y="512" type="line" smooth="yes"/>
      <point x="139" y="492"/>
      <point x="139" y="480"/>
      <point x="140" y="460" type="curve"/>
      <point x="139" y="460" type="line"/>
      <point x="131" y="506"/>
      <point x="119" y="537"/>
      <point x="94" y="537" type="curve" smooth="yes"/>
      <point x="50" y="537"/>
      <point x="29" y="465"/>
      <point x="29" y="266" type="curve" smooth="yes"/>
      <point x="29" y="46"/>
      <point x="50" y="-10"/>
    </contour>
    <contour>
      <point x="95" y="15" type="curve" smooth="yes"/>
      <point x="68" y="15"/>
      <point x="52" y="73"/>
      <point x="52" y="266" type="curve" smooth="yes"/>
      <point x="52" y="444"/>
      <point x="66" y="512"/>
      <point x="96" y="512" type="curve" smooth="yes"/>
      <point x="125" y="512"/>
      <point x="139" y="438"/>
      <point x="139" y="264" type="curve" smooth="yes"/>
      <point x="139" y="67"/>
      <point x="123" y="15"/>
    </contour>
    <contour>
      <point x="205" y="15" type="curve" smooth="yes"/>
      <point x="177" y="15"/>
      <point x="161" y="74"/>
      <point x="161" y="264" type="curve" smooth="yes"/>
      <point x="161" y="440"/>
      <point x="175" y="512"/>
      <point x="206" y="512" type="curve" smooth="yes"/>
      <point x="236" y="512"/>
      <point x="248" y="437"/>
      <point x="248" y="264" type="curve" smooth="yes"/>
      <point x="248" y="67"/>
      <point x="232" y="15"/>
    </contour>
  </outline>
</glyph>
<glyph name="uni023B" format="2">
  <advance width="300"/>
  <unicode hex="023B"/>
  <anchor x="150" y="-75" name="bottom"/>
  <anchor x="180" y="760" name="top"/>
  <anchor x="289" y="714" name="topright"/>
  <outline>
    <contour>
      <point x="96" y="-75" type="line"/>
      <point x="114" y="-75" type="line"/>
      <point x="235" y="760" type="line"/>
      <point x="217" y="760" type="line"/>
    </contour>
    <component base="C" xOffset="10"/>
  </outline>
</glyph>
<glyph name="uni023C" format="2">
  <advance width="300"/>
  <unicode hex="023C"/>
  <anchor x="150" y="-188" name="bottom"/>
  <anchor x="166" y="760" name="top"/>
  <anchor x="289" y="528" name="topright"/>
  <outline>
    <contour>
      <point x="97" y="-188" type="line"/>
      <point x="115" y="-188" type="line"/>
      <point x="230" y="760" type="line"/>
      <point x="211" y="760" type="line"/>
    </contour>
    <component base="c" xOffset="10"/>
  </outline>
</glyph>
<glyph name="uni023E" format="2">
  <advance width="300"/>
  <unicode hex="023E"/>
  <anchor x="149" y="-75" name="bottom"/>
  <anchor x="149" y="760" name="top"/>
  <anchor x="288" y="714" name="topright"/>
  <anchor x="159" y="357" name="center"/>
  <outline>
    <contour>
      <point x="86" y="-75" type="line"/>
      <point x="105" y="-75" type="line"/>
      <point x="217" y="760" type="line"/>
      <point x="198" y="760" type="line"/>
    </contour>
    <component base="T" xOffset="10"/>
  </outline>
</glyph>
<glyph name="uni0240" format="2">
  <advance width="300"/>
  <unicode hex="0240"/>
  <anchor x="167" y="-240" name="bottom"/>
  <anchor x="154" y="528" name="top"/>
  <outline>
    <contour>
      <point x="211" y="-232" type="curve" smooth="yes"/>
      <point x="226" y="-232"/>
      <point x="236" y="-226"/>
      <point x="242" y="-221" type="curve"/>
      <point x="242" y="-195" type="line"/>
      <point x="237" y="-201"/>
      <point x="226" y="-207"/>
      <point x="214" y="-207" type="curve" smooth="yes"/>
      <point x="181" y="-207"/>
      <point x="172" y="-156"/>
      <point x="163" y="-98" type="curve" smooth="yes"/>
      <point x="149" y="-6"/>
      <point x="134" y="16"/>
      <point x="86" y="25" type="curve"/>
      <point x="241" y="509" type="line"/>
      <point x="241" y="528" type="line"/>
      <point x="68" y="528" type="line"/>
      <point x="68" y="503" type="line"/>
      <point x="212" y="503" type="line"/>
      <point x="58" y="21" type="line"/>
      <point x="58" y="0" type="line"/>
      <point x="72" y="0" type="line" smooth="yes"/>
      <point x="118" y="0"/>
      <point x="130" y="-20"/>
      <point x="141" y="-97" type="curve" smooth="yes"/>
      <point x="152" y="-172"/>
      <point x="163" y="-232"/>
    </contour>
  </outline>
</glyph>
<glyph name="uni0243" format="2">
  <advance width="300"/>
  <unicode hex="0243"/>
  <anchor x="150" y="0" name="bottom"/>
  <anchor x="150" y="714" name="top"/>
  <anchor x="289" y="714" name="topright"/>
  <outline>
    <contour>
      <point x="10" y="181" type="line"/>
      <point x="150" y="181" type="line"/>
      <point x="150" y="206" type="line"/>
      <point x="10" y="206" type="line"/>
    </contour>
    <component base="B" xOffset="10"/>
  </outline>
</glyph>
<glyph name="uni0246" format="2">
  <advance width="300"/>
  <unicode hex="0246"/>
  <anchor x="150" y="-75" name="bottom"/>
  <anchor x="156" y="760" name="top"/>
  <anchor x="31" y="714" name="topleft"/>
  <anchor x="224" y="10" name="ogonek"/>
  <anchor x="289" y="714" name="topright"/>
  <outline>
    <contour>
      <point x="82" y="-75" type="line"/>
      <point x="101" y="-75" type="line"/>
      <point x="228" y="760" type="line"/>
      <point x="209" y="760" type="line"/>
    </contour>
    <component base="E" xOffset="10"/>
  </outline>
</glyph>
<glyph name="uni0247" format="2">
  <advance width="300"/>
  <unicode hex="0247"/>
  <anchor x="150" y="-188" name="bottom"/>
  <anchor x="150" y="760" name="top"/>
  <anchor x="170" y="10" name="ogonek"/>
  <anchor x="289" y="528" name="topright"/>
  <outline>
    <contour>
      <point x="78" y="-188" type="line"/>
      <point x="96" y="-188" type="line"/>
      <point x="211" y="760" type="line"/>
      <point x="192" y="760" type="line"/>
    </contour>
    <component base="e" xOffset="10"/>
  </outline>
</glyph>
<glyph name="uni0249" format="2">
  <advance width="300"/>
  <unicode hex="0249"/>
  <anchor x="150" y="-248" name="bottom"/>
  <anchor x="171" y="724" name="top"/>
  <anchor x="288" y="724" name="topright"/>
  <outline>
    <contour>
      <point x="83" y="239" type="line"/>
      <point x="260" y="239" type="line"/>
      <point x="260" y="264" type="line"/>
      <point x="83" y="264" type="line"/>
    </contour>
    <component base="j" xOffset="10"/>
  </outline>
</glyph>
<glyph name="uni024B" format="2">
  <advance width="300"/>
  <unicode hex="024B"/>
  <anchor x="144" y="-241" name="bottom"/>
  <anchor x="143" y="528" name="top"/>
  <outline>
    <contour>
      <point x="279" y="-241" type="curve" smooth="yes"/>
      <point x="291" y="-241"/>
      <point x="302" y="-236"/>
      <point x="310" y="-230" type="curve"/>
      <point x="310" y="-205" type="line"/>
      <point x="302" y="-211"/>
      <point x="293" y="-216"/>
      <point x="282" y="-216" type="curve" smooth="yes"/>
      <point x="257" y="-216"/>
      <point x="247" y="-184"/>
      <point x="247" y="-91" type="curve" smooth="yes"/>
      <point x="247" y="528" type="line"/>
      <point x="227" y="528" type="line"/>
      <point x="223" y="426" type="line"/>
      <point x="222" y="426" type="line"/>
      <point x="210" y="488"/>
      <point x="186" y="537"/>
      <point x="144" y="537" type="curve" smooth="yes"/>
      <point x="75" y="537"/>
      <point x="40" y="425"/>
      <point x="40" y="261" type="curve" smooth="yes"/>
      <point x="40" y="83"/>
      <point x="76" y="-11"/>
      <point x="140" y="-11" type="curve" smooth="yes"/>
      <point x="182" y="-11"/>
      <point x="209" y="43"/>
      <point x="222" y="116" type="curve"/>
      <point x="224" y="116" type="line"/>
      <point x="222" y="85"/>
      <point x="222" y="40"/>
      <point x="222" y="17" type="curve" smooth="yes"/>
      <point x="222" y="-97" type="line" smooth="yes"/>
      <point x="222" y="-204"/>
      <point x="238" y="-241"/>
    </contour>
    <contour>
      <point x="143" y="15" type="curve" smooth="yes"/>
      <point x="95" y="15"/>
      <point x="66" y="95"/>
      <point x="66" y="261" type="curve" smooth="yes"/>
      <point x="66" y="420"/>
      <point x="94" y="511"/>
      <point x="147" y="511" type="curve" smooth="yes"/>
      <point x="197" y="511"/>
      <point x="222" y="434"/>
      <point x="222" y="299" type="curve" smooth="yes"/>
      <point x="222" y="239" type="line" smooth="yes"/>
      <point x="222" y="104"/>
      <point x="196" y="15"/>
    </contour>
  </outline>
</glyph>
<glyph name="uni024F" format="2">
  <advance width="300"/>
  <unicode hex="024F"/>
  <anchor x="150" y="-243" name="bottom"/>
  <anchor x="150" y="528" name="top"/>
  <anchor x="285" y="528" name="topright"/>
  <outline>
    <contour>
      <point x="32" y="311" type="line"/>
      <point x="273" y="311" type="line"/>
      <point x="273" y="336" type="line"/>
      <point x="32" y="336" type="line"/>
    </contour>
    <component base="y" xOffset="10"/>
  </outline>
</glyph>
<glyph name="uni0251" format="2">
  <advance width="300"/>
  <unicode hex="0251"/>
  <anchor x="150" y="0" name="bottom"/>
  <anchor x="150" y="528" name="top"/>
  <outline>
    <contour>
      <point x="138" y="-10" type="curve" smooth="yes"/>
      <point x="183" y="-10"/>
      <point x="209" y="48"/>
      <point x="221" y="110" type="curve"/>
      <point x="223" y="110" type="line"/>
      <point x="228" y="0" type="line"/>
      <point x="247" y="0" type="line"/>
      <point x="247" y="528" type="line"/>
      <point x="228" y="528" type="line"/>
      <point x="224" y="427" type="line"/>
      <point x="223" y="427" type="line"/>
      <point x="212" y="470"/>
      <point x="190" y="538"/>
      <point x="142" y="538" type="curve" smooth="yes"/>
      <point x="78" y="538"/>
      <point x="41" y="445"/>
      <point x="41" y="256" type="curve" smooth="yes"/>
      <point x="41" y="56"/>
      <point x="81" y="-10"/>
    </contour>
    <contour>
      <point x="143" y="15" type="curve" smooth="yes"/>
      <point x="96" y="15"/>
      <point x="66" y="75"/>
      <point x="66" y="258" type="curve" smooth="yes"/>
      <point x="66" y="427"/>
      <point x="93" y="513"/>
      <point x="146" y="513" type="curve" smooth="yes"/>
      <point x="199" y="513"/>
      <point x="223" y="422"/>
      <point x="223" y="297" type="curve" smooth="yes"/>
      <point x="223" y="240" type="line" smooth="yes"/>
      <point x="223" y="103"/>
      <point x="199" y="15"/>
    </contour>
  </outline>
</glyph>
<glyph name="uni0255" format="2">
  <advance width="300"/>
  <unicode hex="0255"/>
  <anchor x="150" y="0" name="bottom"/>
  <anchor x="150" y="528" name="top"/>
  <outline>
    <contour>
      <point x="80" y="-18" type="line"/>
      <point x="83" y="3"/>
      <point x="91" y="40"/>
      <point x="97" y="59" type="curve"/>
      <point x="113" y="25"/>
      <point x="139" y="-10"/>
      <point x="179" y="-10" type="curve" smooth="yes"/>
      <point x="232" y="-10"/>
      <point x="257" y="35"/>
      <point x="257" y="92" type="curve" smooth="yes"/>
      <point x="257" y="148"/>
      <point x="234" y="188"/>
      <point x="185" y="188" type="curve" smooth="yes"/>
      <point x="143" y="188"/>
      <point x="115" y="146"/>
      <point x="98" y="104" type="curve"/>
      <point x="90" y="135"/>
      <point x="85" y="189"/>
      <point x="85" y="258" type="curve" smooth="yes"/>
      <point x="85" y="426"/>
      <point x="120" y="513"/>
      <point x="188" y="513" type="curve" smooth="yes"/>
      <point x="210" y="513"/>
      <point x="229" y="504"/>
      <point x="243" y="494" type="curve"/>
      <point x="251" y="518" type="line"/>
      <point x="234" y="530"/>
      <point x="212" y="538"/>
      <point x="187" y="538" type="curve" smooth="yes"/>
      <point x="104" y="538"/>
      <point x="59" y="436"/>
      <point x="59" y="258" type="curve" smooth="yes"/>
      <point x="59" y="182"/>
      <point x="67" y="123"/>
      <point x="82" y="81" type="curve"/>
      <point x="73" y="57"/>
      <point x="64" y="19"/>
      <point x="58" y="-11" type="curve"/>
    </contour>
    <contour>
      <point x="180" y="15" type="curve" smooth="yes"/>
      <point x="148" y="15"/>
      <point x="125" y="43"/>
      <point x="110" y="81" type="curve"/>
      <point x="125" y="124"/>
      <point x="150" y="165"/>
      <point x="183" y="165" type="curve" smooth="yes"/>
      <point x="217" y="165"/>
      <point x="233" y="135"/>
      <point x="233" y="92" type="curve" smooth="yes"/>
      <point x="233" y="49"/>
      <point x="220" y="15"/>
    </contour>
  </outline>
</glyph>
<glyph name="uni0256" format="2">
  <advance width="300"/>
  <unicode hex="0256"/>
  <anchor x="150" y="-240" name="bottom"/>
  <anchor x="150" y="760" name="top"/>
  <outline>
    <contour>
      <point x="278" y="-240" type="curve" smooth="yes"/>
      <point x="291" y="-240"/>
      <point x="302" y="-236"/>
      <point x="310" y="-232" type="curve"/>
      <point x="310" y="-206" type="line"/>
      <point x="303" y="-211"/>
      <point x="293" y="-215"/>
      <point x="282" y="-215" type="curve" smooth="yes"/>
      <point x="259" y="-215"/>
      <point x="247" y="-186"/>
      <point x="247" y="-117" type="curve" smooth="yes"/>
      <point x="247" y="760" type="line"/>
      <point x="222" y="760" type="line"/>
      <point x="222" y="520" type="line" smooth="yes"/>
      <point x="222" y="488"/>
      <point x="222" y="456"/>
      <point x="223" y="421" type="curve"/>
      <point x="222" y="421" type="line"/>
      <point x="211" y="481"/>
      <point x="184" y="538"/>
      <point x="142" y="538" type="curve" smooth="yes"/>
      <point x="77" y="538"/>
      <point x="40" y="439"/>
      <point x="40" y="258" type="curve" smooth="yes"/>
      <point x="40" y="83"/>
      <point x="74" y="-10"/>
      <point x="138" y="-10" type="curve" smooth="yes"/>
      <point x="183" y="-10"/>
      <point x="210" y="52"/>
      <point x="222" y="114" type="curve"/>
      <point x="223" y="114" type="line"/>
      <point x="222" y="85"/>
      <point x="222" y="47"/>
      <point x="222" y="18" type="curve" smooth="yes"/>
      <point x="222" y="-122" type="line" smooth="yes"/>
      <point x="222" y="-204"/>
      <point x="242" y="-240"/>
    </contour>
    <contour>
      <point x="143" y="15" type="curve" smooth="yes"/>
      <point x="91" y="15"/>
      <point x="66" y="99"/>
      <point x="66" y="258" type="curve" smooth="yes"/>
      <point x="66" y="426"/>
      <point x="94" y="513"/>
      <point x="145" y="513" type="curve" smooth="yes"/>
      <point x="194" y="513"/>
      <point x="222" y="434"/>
      <point x="222" y="291" type="curve" smooth="yes"/>
      <point x="222" y="242" type="line" smooth="yes"/>
      <point x="222" y="102"/>
      <point x="194" y="15"/>
    </contour>
  </outline>
</glyph>
<glyph name="schwahook" format="2">
  <advance width="300"/>
  <unicode hex="025A"/>
  <anchor x="113" y="0" name="bottom"/>
  <anchor x="115" y="528" name="top"/>
  <outline>
    <contour>
      <point x="112" y="-10" type="curve" smooth="yes"/>
      <point x="178" y="-10"/>
      <point x="198" y="103"/>
      <point x="198" y="296" type="curve"/>
      <point x="211" y="304" type="line"/>
      <point x="217" y="219"/>
      <point x="230" y="190"/>
      <point x="258" y="190" type="curve" smooth="yes"/>
      <point x="272" y="190"/>
      <point x="283" y="198"/>
      <point x="292" y="211" type="curve"/>
      <point x="283" y="230" type="line"/>
      <point x="276" y="219"/>
      <point x="269" y="213"/>
      <point x="259" y="213" type="curve" smooth="yes"/>
      <point x="241" y="213"/>
      <point x="234" y="234"/>
      <point x="229" y="289" type="curve" smooth="yes"/>
      <point x="225" y="336" type="line"/>
      <point x="197" y="322" type="line"/>
      <point x="191" y="466"/>
      <point x="161" y="537"/>
      <point x="103" y="537" type="curve" smooth="yes"/>
      <point x="77" y="537"/>
      <point x="58" y="526"/>
      <point x="41" y="508" type="curve"/>
      <point x="41" y="479" type="line"/>
      <point x="57" y="498"/>
      <point x="76" y="512"/>
      <point x="101" y="512" type="curve" smooth="yes"/>
      <point x="148" y="512"/>
      <point x="170" y="436"/>
      <point x="174" y="315" type="curve"/>
      <point x="32" y="240" type="line"/>
      <point x="32" y="64"/>
      <point x="53" y="-10"/>
    </contour>
    <contour>
      <point x="112" y="15" type="curve" smooth="yes"/>
      <point x="67" y="15"/>
      <point x="55" y="90"/>
      <point x="54" y="222" type="curve"/>
      <point x="175" y="289" type="line"/>
      <point x="175" y="92"/>
      <point x="159" y="15"/>
    </contour>
  </outline>
</glyph>
<glyph name="eopenreversedhook" format="2">
  <advance width="300"/>
  <unicode hex="025D"/>
  <anchor x="122" y="0" name="bottom"/>
  <anchor x="122" y="527" name="top"/>
  <outline>
    <contour>
      <point x="265" y="301" type="curve" smooth="yes"/>
      <point x="279" y="301"/>
      <point x="289" y="309"/>
      <point x="297" y="322" type="curve"/>
      <point x="289" y="341" type="line"/>
      <point x="282" y="330"/>
      <point x="276" y="324"/>
      <point x="266" y="324" type="curve" smooth="yes"/>
      <point x="248" y="324"/>
      <point x="242" y="345"/>
      <point x="237" y="400" type="curve" smooth="yes"/>
      <point x="233" y="447" type="line"/>
      <point x="204" y="433" type="line"/>
      <point x="205" y="407" type="line"/>
      <point x="218" y="415" type="line"/>
      <point x="225" y="330"/>
      <point x="238" y="301"/>
    </contour>
    <component base="afii10073" xOffset="-15"/>
  </outline>
</glyph>
<glyph name="uni025E" format="2">
  <advance width="300"/>
  <unicode hex="025E"/>
  <anchor x="150" y="0" name="bottom"/>
  <anchor x="150" y="528" name="top"/>
  <outline>
    <contour>
      <point x="155" y="-10" type="curve" smooth="yes"/>
      <point x="224" y="-10"/>
      <point x="259" y="55"/>
      <point x="259" y="144" type="curve" smooth="yes"/>
      <point x="259" y="217"/>
      <point x="237" y="261"/>
      <point x="200" y="281" type="curve"/>
      <point x="200" y="284" type="line"/>
      <point x="231" y="301"/>
      <point x="248" y="345"/>
      <point x="248" y="407" type="curve" smooth="yes"/>
      <point x="248" y="490"/>
      <point x="216" y="538"/>
      <point x="159" y="538" type="curve" smooth="yes"/>
      <point x="79" y="538"/>
      <point x="42" y="436"/>
      <point x="42" y="259" type="curve" smooth="yes"/>
      <point x="42" y="86"/>
      <point x="76" y="-10"/>
    </contour>
    <contour>
      <point x="156" y="15" type="curve" smooth="yes"/>
      <point x="91" y="15"/>
      <point x="67" y="107"/>
      <point x="67" y="260" type="curve" smooth="yes"/>
      <point x="67" y="417"/>
      <point x="93" y="513"/>
      <point x="159" y="513" type="curve" smooth="yes"/>
      <point x="203" y="513"/>
      <point x="224" y="471"/>
      <point x="224" y="406" type="curve" smooth="yes"/>
      <point x="224" y="334"/>
      <point x="201" y="294"/>
      <point x="155" y="294" type="curve" smooth="yes"/>
      <point x="138" y="294" type="line"/>
      <point x="138" y="269" type="line"/>
      <point x="157" y="269" type="line" smooth="yes"/>
      <point x="204" y="269"/>
      <point x="234" y="229"/>
      <point x="234" y="145" type="curve" smooth="yes"/>
      <point x="234" y="65"/>
      <point x="206" y="15"/>
    </contour>
  </outline>
</glyph>
<glyph name="uni0262" format="2">
  <advance width="300"/>
  <unicode hex="0262"/>
  <anchor x="166" y="0" name="bottom"/>
  <anchor x="166" y="528" name="top"/>
  <outline>
    <contour>
      <point x="170" y="-9" type="curve" smooth="yes"/>
      <point x="203" y="-9"/>
      <point x="229" y="0"/>
      <point x="249" y="15" type="curve"/>
      <point x="249" y="262" type="line"/>
      <point x="155" y="262" type="line"/>
      <point x="155" y="237" type="line"/>
      <point x="225" y="237" type="line"/>
      <point x="225" y="32" type="line"/>
      <point x="211" y="23"/>
      <point x="195" y="16"/>
      <point x="172" y="16" type="curve" smooth="yes"/>
      <point x="97" y="16"/>
      <point x="62" y="113"/>
      <point x="62" y="263" type="curve" smooth="yes"/>
      <point x="62" y="419"/>
      <point x="103" y="514"/>
      <point x="174" y="514" type="curve" smooth="yes"/>
      <point x="202" y="514"/>
      <point x="222" y="505"/>
      <point x="238" y="489" type="curve"/>
      <point x="247" y="513" type="line"/>
      <point x="229" y="530"/>
      <point x="207" y="539"/>
      <point x="176" y="539" type="curve" smooth="yes"/>
      <point x="86" y="539"/>
      <point x="37" y="428"/>
      <point x="37" y="264" type="curve" smooth="yes"/>
      <point x="37" y="96"/>
      <point x="83" y="-9"/>
    </contour>
  </outline>
</glyph>
<glyph name="uni0266" format="2">
  <advance width="300"/>
  <unicode hex="0266"/>
  <anchor x="150" y="0" name="bottom"/>
  <anchor x="89" y="760" name="top"/>
  <outline>
    <contour>
      <point x="53" y="0" type="line"/>
      <point x="78" y="0" type="line"/>
      <point x="78" y="300" type="line" smooth="yes"/>
      <point x="78" y="447"/>
      <point x="111" y="513"/>
      <point x="159" y="513" type="curve" smooth="yes"/>
      <point x="201" y="513"/>
      <point x="225" y="467"/>
      <point x="225" y="353" type="curve" smooth="yes"/>
      <point x="225" y="0" type="line"/>
      <point x="249" y="0" type="line"/>
      <point x="249" y="356" type="line" smooth="yes"/>
      <point x="249" y="479"/>
      <point x="216" y="538"/>
      <point x="163" y="538" type="curve" smooth="yes"/>
      <point x="115" y="538"/>
      <point x="89" y="478"/>
      <point x="78" y="421" type="curve"/>
      <point x="76" y="421" type="line"/>
      <point x="77" y="446"/>
      <point x="78" y="464"/>
      <point x="78" y="494" type="curve" smooth="yes"/>
      <point x="78" y="653" type="line" smooth="yes"/>
      <point x="78" y="709"/>
      <point x="88" y="740"/>
      <point x="111" y="740" type="curve" smooth="yes"/>
      <point x="119" y="740"/>
      <point x="127" y="738"/>
      <point x="136" y="731" type="curve"/>
      <point x="136" y="757" type="line"/>
      <point x="129" y="761"/>
      <point x="119" y="765"/>
      <point x="108" y="765" type="curve" smooth="yes"/>
      <point x="76" y="765"/>
      <point x="53" y="733"/>
      <point x="53" y="656" type="curve" smooth="yes"/>
    </contour>
  </outline>
</glyph>
<glyph name="uni0268" format="2">
  <advance width="300"/>
  <unicode hex="0268"/>
  <anchor x="149" y="0" name="bottom"/>
  <anchor x="149" y="734" name="top"/>
  <anchor x="250" y="734" name="topright"/>
  <outline>
    <contour>
      <point x="62" y="253" type="line"/>
      <point x="239" y="253" type="line"/>
      <point x="239" y="278" type="line"/>
      <point x="62" y="278" type="line"/>
    </contour>
    <component base="i" xOffset="10"/>
  </outline>
</glyph>
<glyph name="uni026C" format="2">
  <advance width="300"/>
  <unicode hex="026C"/>
  <anchor x="150" y="0" name="bottom"/>
  <anchor x="153" y="760" name="top"/>
  <anchor x="244" y="760" name="topright"/>
  <anchor x="162" y="376" name="center"/>
  <outline>
    <contour>
      <point x="126" y="331" type="curve"/>
      <point x="219" y="331" type="line"/>
      <point x="219" y="354" type="line"/>
      <point x="165" y="354" type="line"/>
      <point x="140" y="442" type="line"/>
      <point x="131" y="465"/>
      <point x="119" y="474"/>
      <point x="105" y="474" type="curve" smooth="yes"/>
      <point x="79" y="474"/>
      <point x="62" y="450"/>
      <point x="62" y="406" type="curve" smooth="yes"/>
      <point x="62" y="344"/>
      <point x="90" y="331"/>
    </contour>
    <contour>
      <point x="123" y="354" type="line" smooth="yes"/>
      <point x="95" y="354"/>
      <point x="82" y="371"/>
      <point x="82" y="406" type="curve" smooth="yes"/>
      <point x="82" y="431"/>
      <point x="90" y="451"/>
      <point x="106" y="451" type="curve" smooth="yes"/>
      <point x="134" y="451"/>
      <point x="140" y="395"/>
      <point x="140" y="360" type="curve" smooth="yes"/>
      <point x="140" y="354" type="line"/>
    </contour>
    <component base="l" xOffset="10"/>
  </outline>
</glyph>
<glyph name="uni026D" format="2">
  <advance width="300"/>
  <unicode hex="026D"/>
  <anchor x="205" y="-240" name="bottom"/>
  <anchor x="150" y="760" name="top"/>
  <outline>
    <contour>
      <point x="200" y="-242" type="curve" smooth="yes"/>
      <point x="216" y="-242"/>
      <point x="227" y="-236"/>
      <point x="234" y="-231" type="curve"/>
      <point x="234" y="-206" type="line"/>
      <point x="227" y="-212"/>
      <point x="217" y="-217"/>
      <point x="204" y="-217" type="curve" smooth="yes"/>
      <point x="177" y="-217"/>
      <point x="165" y="-187"/>
      <point x="165" y="-118" type="curve" smooth="yes"/>
      <point x="165" y="760" type="line"/>
      <point x="60" y="760" type="line"/>
      <point x="60" y="739" type="line"/>
      <point x="140" y="735" type="line"/>
      <point x="140" y="-121" type="line" smooth="yes"/>
      <point x="140" y="-205"/>
      <point x="164" y="-242"/>
    </contour>
  </outline>
</glyph>
<glyph name="uni026E" format="2">
  <advance width="300"/>
  <unicode hex="026E"/>
  <anchor x="145" y="-240" name="bottom"/>
  <anchor x="69" y="760" name="top"/>
  <outline>
    <contour>
      <point x="145" y="-241" type="curve" smooth="yes"/>
      <point x="220" y="-241"/>
      <point x="258" y="-139"/>
      <point x="258" y="-11" type="curve" smooth="yes"/>
      <point x="258" y="123"/>
      <point x="220" y="202"/>
      <point x="142" y="202" type="curve"/>
      <point x="250" y="507" type="line"/>
      <point x="250" y="528" type="line"/>
      <point x="78" y="528" type="line"/>
      <point x="78" y="760" type="line"/>
      <point x="54" y="760" type="line"/>
      <point x="54" y="0" type="line"/>
      <point x="78" y="0" type="line"/>
      <point x="78" y="503" type="line"/>
      <point x="221" y="503" type="line"/>
      <point x="114" y="197" type="line"/>
      <point x="114" y="178" type="line"/>
      <point x="132" y="178" type="line" smooth="yes"/>
      <point x="200" y="178"/>
      <point x="233" y="114"/>
      <point x="233" y="-10" type="curve" smooth="yes"/>
      <point x="233" y="-133"/>
      <point x="202" y="-216"/>
      <point x="145" y="-216" type="curve" smooth="yes"/>
      <point x="117" y="-216"/>
      <point x="93" y="-203"/>
      <point x="75" y="-182" type="curve"/>
      <point x="75" y="-212" type="line"/>
      <point x="92" y="-228"/>
      <point x="113" y="-241"/>
    </contour>
  </outline>
</glyph>
<glyph name="uni0271" format="2">
  <advance width="300"/>
  <unicode hex="0271"/>
  <anchor x="230" y="-240" name="bottom"/>
  <anchor x="150" y="528" name="top"/>
  <outline>
    <contour>
      <point x="215" y="-242" type="curve" smooth="yes"/>
      <point x="247" y="-242"/>
      <point x="264" y="-213"/>
      <point x="264" y="-145" type="curve" smooth="yes"/>
      <point x="264" y="403" type="line" smooth="yes"/>
      <point x="264" y="505"/>
      <point x="246" y="537"/>
      <point x="212" y="537" type="curve" smooth="yes"/>
      <point x="183" y="537"/>
      <point x="167" y="501"/>
      <point x="158" y="460" type="curve"/>
      <point x="157" y="460" type="line"/>
      <point x="152" y="496"/>
      <point x="140" y="537"/>
      <point x="111" y="537" type="curve" smooth="yes"/>
      <point x="80" y="537"/>
      <point x="66" y="492"/>
      <point x="59" y="457" type="curve"/>
      <point x="57" y="457" type="line"/>
      <point x="54" y="528" type="line"/>
      <point x="36" y="528" type="line"/>
      <point x="36" y="0" type="line"/>
      <point x="60" y="0" type="line"/>
      <point x="60" y="366" type="line" smooth="yes"/>
      <point x="60" y="440"/>
      <point x="73" y="513"/>
      <point x="105" y="513" type="curve" smooth="yes"/>
      <point x="125" y="513"/>
      <point x="138" y="497"/>
      <point x="138" y="384" type="curve" smooth="yes"/>
      <point x="138" y="0" type="line"/>
      <point x="162" y="0" type="line"/>
      <point x="162" y="366" type="line" smooth="yes"/>
      <point x="162" y="458"/>
      <point x="177" y="513"/>
      <point x="206" y="513" type="curve" smooth="yes"/>
      <point x="227" y="513"/>
      <point x="240" y="493"/>
      <point x="240" y="401" type="curve" smooth="yes"/>
      <point x="240" y="-142" type="line" smooth="yes"/>
      <point x="240" y="-193"/>
      <point x="232" y="-217"/>
      <point x="211" y="-217" type="curve" smooth="yes"/>
      <point x="202" y="-217"/>
      <point x="194" y="-213"/>
      <point x="188" y="-208" type="curve"/>
      <point x="188" y="-234" type="line"/>
      <point x="194" y="-237"/>
      <point x="203" y="-242"/>
    </contour>
  </outline>
</glyph>
<glyph name="uni0276" format="2">
  <advance width="300"/>
  <unicode hex="0276"/>
  <anchor x="150" y="0" name="bottom"/>
  <anchor x="150" y="528" name="top"/>
  <outline>
    <contour>
      <point x="107" y="-10" type="curve" smooth="yes"/>
      <point x="137" y="-10"/>
      <point x="153" y="25"/>
      <point x="166" y="82" type="curve"/>
      <point x="166" y="0" type="line"/>
      <point x="277" y="0" type="line"/>
      <point x="277" y="25" type="line"/>
      <point x="187" y="25" type="line"/>
      <point x="187" y="275" type="line"/>
      <point x="271" y="275" type="line"/>
      <point x="271" y="300" type="line"/>
      <point x="187" y="300" type="line"/>
      <point x="187" y="502" type="line"/>
      <point x="277" y="502" type="line"/>
      <point x="277" y="527" type="line"/>
      <point x="166" y="527" type="line"/>
      <point x="166" y="450" type="line"/>
      <point x="155" y="497"/>
      <point x="140" y="537"/>
      <point x="108" y="537" type="curve" smooth="yes"/>
      <point x="56" y="537"/>
      <point x="29" y="448"/>
      <point x="29" y="265" type="curve" smooth="yes"/>
      <point x="29" y="82"/>
      <point x="56" y="-10"/>
    </contour>
    <contour>
      <point x="110" y="14" type="curve" smooth="yes"/>
      <point x="71" y="14"/>
      <point x="52" y="101"/>
      <point x="52" y="265" type="curve" smooth="yes"/>
      <point x="52" y="428"/>
      <point x="71" y="513"/>
      <point x="110" y="513" type="curve" smooth="yes"/>
      <point x="148" y="513"/>
      <point x="165" y="433"/>
      <point x="165" y="268" type="curve" smooth="yes"/>
      <point x="165" y="99"/>
      <point x="147" y="14"/>
    </contour>
  </outline>
</glyph>
<glyph name="uni027D" format="2">
  <advance width="300"/>
  <unicode hex="027D"/>
  <anchor x="162" y="-240" name="bottom"/>
  <anchor x="151" y="528" name="top"/>
  <outline>
    <contour>
      <point x="170" y="-242" type="curve" smooth="yes"/>
      <point x="183" y="-242"/>
      <point x="194" y="-238"/>
      <point x="200" y="-233" type="curve"/>
      <point x="200" y="-208" type="line"/>
      <point x="194" y="-213"/>
      <point x="185" y="-217"/>
      <point x="176" y="-217" type="curve" smooth="yes"/>
      <point x="152" y="-217"/>
      <point x="144" y="-193"/>
      <point x="144" y="-142" type="curve" smooth="yes"/>
      <point x="144" y="303" type="line" smooth="yes"/>
      <point x="144" y="434"/>
      <point x="171" y="510"/>
      <point x="222" y="510" type="curve" smooth="yes"/>
      <point x="235" y="510"/>
      <point x="251" y="505"/>
      <point x="263" y="497" type="curve"/>
      <point x="269" y="523" type="line"/>
      <point x="257" y="530"/>
      <point x="239" y="536"/>
      <point x="224" y="536" type="curve" smooth="yes"/>
      <point x="180" y="536"/>
      <point x="155" y="484"/>
      <point x="144" y="427" type="curve"/>
      <point x="142" y="427" type="line"/>
      <point x="139" y="528" type="line"/>
      <point x="49" y="528" type="line"/>
      <point x="49" y="507" type="line"/>
      <point x="119" y="503" type="line"/>
      <point x="119" y="-145" type="line" smooth="yes"/>
      <point x="119" y="-217"/>
      <point x="137" y="-242"/>
    </contour>
  </outline>
</glyph>
<glyph name="uni0280" format="2">
  <advance width="300"/>
  <unicode hex="0280"/>
  <anchor x="157" y="0" name="bottom"/>
  <anchor x="149" y="528" name="top"/>
  <outline>
    <contour>
      <point x="65" y="0" type="line"/>
      <point x="89" y="0" type="line"/>
      <point x="89" y="233" type="line"/>
      <point x="154" y="233" type="line"/>
      <point x="224" y="0" type="line"/>
      <point x="251" y="0" type="line"/>
      <point x="179" y="236" type="line"/>
      <point x="212" y="248"/>
      <point x="239" y="298"/>
      <point x="239" y="385" type="curve" smooth="yes"/>
      <point x="239" y="478"/>
      <point x="207" y="528"/>
      <point x="147" y="528" type="curve" smooth="yes"/>
      <point x="65" y="528" type="line"/>
    </contour>
    <contour>
      <point x="89" y="258" type="line"/>
      <point x="89" y="503" type="line"/>
      <point x="145" y="503" type="line" smooth="yes"/>
      <point x="192" y="503"/>
      <point x="215" y="463"/>
      <point x="215" y="384" type="curve" smooth="yes"/>
      <point x="215" y="303"/>
      <point x="188" y="258"/>
      <point x="150" y="258" type="curve" smooth="yes"/>
    </contour>
  </outline>
</glyph>
<glyph name="uni0283" format="2">
  <advance width="300"/>
  <unicode hex="0283"/>
  <anchor x="99" y="-240" name="bottom"/>
  <anchor x="209" y="763" name="top"/>
  <outline>
    <contour>
      <point x="76" y="-240" type="curve" smooth="yes"/>
      <point x="126" y="-240"/>
      <point x="163" y="-184"/>
      <point x="163" y="-66" type="curve" smooth="yes"/>
      <point x="163" y="575" type="line" smooth="yes"/>
      <point x="163" y="687"/>
      <point x="186" y="738"/>
      <point x="229" y="738" type="curve" smooth="yes"/>
      <point x="247" y="738"/>
      <point x="263" y="731"/>
      <point x="271" y="724" type="curve"/>
      <point x="271" y="749" type="line"/>
      <point x="261" y="756"/>
      <point x="247" y="763"/>
      <point x="227" y="763" type="curve" smooth="yes"/>
      <point x="172" y="763"/>
      <point x="138" y="697"/>
      <point x="138" y="578" type="curve" smooth="yes"/>
      <point x="138" y="-63" type="line" smooth="yes"/>
      <point x="138" y="-174"/>
      <point x="113" y="-215"/>
      <point x="74" y="-215" type="curve" smooth="yes"/>
      <point x="53" y="-215"/>
      <point x="37" y="-202"/>
      <point x="28" y="-193" type="curve"/>
      <point x="28" y="-221" type="line"/>
      <point x="36" y="-229"/>
      <point x="52" y="-240"/>
    </contour>
  </outline>
</glyph>
<glyph name="uni0284" format="2">
  <advance width="300"/>
  <unicode hex="0284"/>
  <anchor x="104" y="-240" name="bottom"/>
  <anchor x="188" y="763" name="top"/>
  <outline>
    <contour>
      <point x="66" y="287" type="line"/>
      <point x="234" y="287" type="line"/>
      <point x="234" y="312" type="line"/>
      <point x="66" y="312" type="line"/>
    </contour>
    <component base="uni0283" xOffset="10"/>
  </outline>
</glyph>
<glyph name="eshcurl" format="2">
  <advance width="300"/>
  <unicode hex="0286"/>
  <anchor x="103" y="-232" name="bottom"/>
  <anchor x="215" y="763" name="top"/>
  <outline>
    <contour>
      <point x="99" y="-232" type="curve" smooth="yes"/>
      <point x="142" y="-232"/>
      <point x="163" y="-176"/>
      <point x="163" y="-76" type="curve"/>
      <point x="199" y="-76" type="line"/>
      <point x="199" y="-51" type="line"/>
      <point x="163" y="-51" type="line"/>
      <point x="163" y="575" type="line" smooth="yes"/>
      <point x="163" y="687"/>
      <point x="186" y="738"/>
      <point x="230" y="738" type="curve" smooth="yes"/>
      <point x="248" y="738"/>
      <point x="263" y="731"/>
      <point x="271" y="724" type="curve"/>
      <point x="271" y="749" type="line"/>
      <point x="262" y="756"/>
      <point x="248" y="763"/>
      <point x="228" y="763" type="curve" smooth="yes"/>
      <point x="172" y="763"/>
      <point x="138" y="697"/>
      <point x="138" y="578" type="curve" smooth="yes"/>
      <point x="138" y="-51" type="line"/>
      <point x="111" y="-51" type="line" smooth="yes"/>
      <point x="67" y="-51"/>
      <point x="43" y="-87"/>
      <point x="43" y="-144" type="curve" smooth="yes"/>
      <point x="43" y="-203"/>
      <point x="66" y="-232"/>
    </contour>
    <contour>
      <point x="98" y="-209" type="curve" smooth="yes"/>
      <point x="76" y="-209"/>
      <point x="63" y="-186"/>
      <point x="63" y="-144" type="curve" smooth="yes"/>
      <point x="63" y="-99"/>
      <point x="80" y="-76"/>
      <point x="110" y="-76" type="curve" smooth="yes"/>
      <point x="139" y="-76" type="line"/>
      <point x="139" y="-81" type="line" smooth="yes"/>
      <point x="139" y="-153"/>
      <point x="130" y="-209"/>
    </contour>
  </outline>
</glyph>
<glyph name="uni0289" format="2">
  <advance width="300"/>
  <unicode hex="0289"/>
  <anchor x="150" y="0" name="bottom"/>
  <anchor x="150" y="528" name="top"/>
  <anchor x="271" y="10" name="ogonek"/>
  <anchor x="288" y="528" name="topright"/>
  <outline>
    <contour>
      <point x="13" y="264" type="line"/>
      <point x="286" y="264" type="line"/>
      <point x="286" y="288" type="line"/>
      <point x="13" y="288" type="line"/>
    </contour>
    <component base="u" xOffset="10"/>
  </outline>
</glyph>
<glyph name="uni028B" format="2">
  <advance width="300"/>
  <unicode hex="028B"/>
  <anchor x="150" y="0" name="bottom"/>
  <anchor x="150" y="528" name="top"/>
  <outline>
    <contour>
      <point x="150" y="-10" type="curve" smooth="yes"/>
      <point x="218" y="-10"/>
      <point x="243" y="62"/>
      <point x="243" y="172" type="curve" smooth="yes"/>
      <point x="243" y="429" type="line" smooth="yes"/>
      <point x="243" y="506"/>
      <point x="225" y="542"/>
      <point x="191" y="542" type="curve" smooth="yes"/>
      <point x="179" y="542"/>
      <point x="171" y="539"/>
      <point x="164" y="536" type="curve"/>
      <point x="164" y="510" type="line"/>
      <point x="169" y="514"/>
      <point x="178" y="517"/>
      <point x="187" y="517" type="curve" smooth="yes"/>
      <point x="208" y="517"/>
      <point x="219" y="487"/>
      <point x="219" y="422" type="curve" smooth="yes"/>
      <point x="219" y="171" type="line" smooth="yes"/>
      <point x="219" y="66"/>
      <point x="197" y="15"/>
      <point x="150" y="15" type="curve" smooth="yes"/>
      <point x="105" y="15"/>
      <point x="81" y="67"/>
      <point x="81" y="171" type="curve" smooth="yes"/>
      <point x="81" y="528" type="line"/>
      <point x="57" y="528" type="line"/>
      <point x="57" y="172" type="line" smooth="yes"/>
      <point x="57" y="60"/>
      <point x="83" y="-10"/>
    </contour>
  </outline>
</glyph>
<glyph name="uni0291" format="2">
  <advance width="300"/>
  <unicode hex="0291"/>
  <anchor x="146" y="-76" name="bottom"/>
  <anchor x="135" y="528" name="top"/>
  <outline>
    <contour>
      <point x="123" y="-72" type="line"/>
      <point x="128" y="-46"/>
      <point x="133" y="-21"/>
      <point x="138" y="0" type="curve"/>
      <point x="195" y="0" type="line" smooth="yes"/>
      <point x="238" y="0"/>
      <point x="265" y="36"/>
      <point x="265" y="98" type="curve" smooth="yes"/>
      <point x="265" y="147"/>
      <point x="248" y="184"/>
      <point x="213" y="184" type="curve" smooth="yes"/>
      <point x="170" y="184"/>
      <point x="146" y="121"/>
      <point x="124" y="25" type="curve"/>
      <point x="66" y="25" type="line"/>
      <point x="215" y="506" type="line"/>
      <point x="215" y="528" type="line"/>
      <point x="48" y="528" type="line"/>
      <point x="48" y="503" type="line"/>
      <point x="188" y="503" type="line"/>
      <point x="38" y="22" type="line"/>
      <point x="38" y="0" type="line"/>
      <point x="116" y="0" type="line"/>
      <point x="112" y="-20"/>
      <point x="108" y="-42"/>
      <point x="104" y="-64" type="curve"/>
    </contour>
    <contour>
      <point x="146" y="25" type="line"/>
      <point x="163" y="106"/>
      <point x="182" y="159"/>
      <point x="212" y="159" type="curve" smooth="yes"/>
      <point x="234" y="159"/>
      <point x="243" y="130"/>
      <point x="243" y="98" type="curve" smooth="yes"/>
      <point x="243" y="56"/>
      <point x="229" y="25"/>
      <point x="195" y="25" type="curve" smooth="yes"/>
    </contour>
  </outline>
</glyph>
<glyph name="ezhcurl" format="2">
  <advance width="300"/>
  <unicode hex="0293"/>
  <anchor x="153" y="-241" name="bottom"/>
  <anchor x="147" y="527" name="top"/>
  <outline>
    <contour>
      <point x="260" y="-241" type="curve"/>
      <point x="279" y="-226" type="line"/>
      <point x="267" y="-192"/>
      <point x="250" y="-149"/>
      <point x="238" y="-121" type="curve"/>
      <point x="244" y="-97"/>
      <point x="252" y="-63"/>
      <point x="252" y="-2" type="curve" smooth="yes"/>
      <point x="252" y="131"/>
      <point x="203" y="195"/>
      <point x="107" y="195" type="curve"/>
      <point x="239" y="508" type="line"/>
      <point x="239" y="528" type="line"/>
      <point x="54" y="528" type="line"/>
      <point x="54" y="503" type="line"/>
      <point x="207" y="503" type="line"/>
      <point x="76" y="192" type="line"/>
      <point x="76" y="170" type="line"/>
      <point x="98" y="170" type="line" smooth="yes"/>
      <point x="188" y="170"/>
      <point x="226" y="118"/>
      <point x="226" y="-4" type="curve" smooth="yes"/>
      <point x="226" y="-50"/>
      <point x="221" y="-85"/>
      <point x="218" y="-102" type="curve"/>
      <point x="189" y="-44"/>
      <point x="155" y="-2"/>
      <point x="112" y="-2" type="curve" smooth="yes"/>
      <point x="54" y="-2"/>
      <point x="25" y="-55"/>
      <point x="25" y="-120" type="curve" smooth="yes"/>
      <point x="25" y="-201"/>
      <point x="63" y="-240"/>
      <point x="116" y="-240" type="curve" smooth="yes"/>
      <point x="175" y="-240"/>
      <point x="208" y="-177"/>
      <point x="225" y="-143" type="curve"/>
      <point x="234" y="-165"/>
      <point x="249" y="-209"/>
    </contour>
    <contour>
      <point x="116" y="-215" type="curve" smooth="yes"/>
      <point x="75" y="-215"/>
      <point x="48" y="-183"/>
      <point x="48" y="-120" type="curve" smooth="yes"/>
      <point x="48" y="-66"/>
      <point x="66" y="-27"/>
      <point x="112" y="-27" type="curve" smooth="yes"/>
      <point x="144" y="-27"/>
      <point x="176" y="-56"/>
      <point x="208" y="-124" type="curve"/>
      <point x="191" y="-170"/>
      <point x="164" y="-215"/>
    </contour>
  </outline>
</glyph>
<glyph name="uni0294" format="2">
  <advance width="300"/>
  <unicode hex="0294"/>
  <anchor x="137" y="0" name="bottom"/>
  <anchor x="137" y="764" name="top"/>
  <outline>
    <contour>
      <point x="125" y="0" type="line"/>
      <point x="149" y="0" type="line"/>
      <point x="149" y="322" type="line"/>
      <point x="208" y="374"/>
      <point x="246" y="451"/>
      <point x="246" y="581" type="curve" smooth="yes"/>
      <point x="246" y="700"/>
      <point x="208" y="764"/>
      <point x="139" y="764" type="curve" smooth="yes"/>
      <point x="96" y="764"/>
      <point x="66" y="740"/>
      <point x="45" y="718" type="curve"/>
      <point x="55" y="695" type="line"/>
      <point x="72" y="714"/>
      <point x="99" y="739"/>
      <point x="138" y="739" type="curve" smooth="yes"/>
      <point x="191" y="739"/>
      <point x="221" y="687"/>
      <point x="221" y="578" type="curve" smooth="yes"/>
      <point x="221" y="467"/>
      <point x="192" y="397"/>
      <point x="125" y="333" type="curve"/>
    </contour>
  </outline>
</glyph>
<glyph name="uni029F" format="2">
  <advance width="300"/>
  <unicode hex="029F"/>
  <anchor x="175" y="0" name="bottom"/>
  <anchor x="104" y="528" name="top"/>
  <outline>
    <contour>
      <point x="91" y="0" type="line"/>
      <point x="253" y="0" type="line"/>
      <point x="253" y="25" type="line"/>
      <point x="115" y="25" type="line"/>
      <point x="115" y="528" type="line"/>
      <point x="91" y="528" type="line"/>
    </contour>
  </outline>
</glyph>
<glyph name="dzlig" format="2">
  <advance width="300"/>
  <unicode hex="02A3"/>
  <anchor x="150" y="0" name="bottom"/>
  <anchor x="150" y="761" name="top"/>
  <outline>
    <contour>
      <point x="89" y="-10" type="curve" smooth="yes"/>
      <point x="119" y="-10"/>
      <point x="136" y="28"/>
      <point x="144" y="82" type="curve"/>
      <point x="145" y="82" type="line"/>
      <point x="148" y="0" type="line"/>
      <point x="282" y="0" type="line"/>
      <point x="282" y="25" type="line"/>
      <point x="191" y="25" type="line"/>
      <point x="281" y="514" type="line"/>
      <point x="281" y="529" type="line"/>
      <point x="168" y="529" type="line"/>
      <point x="168" y="761" type="line"/>
      <point x="144" y="761" type="line"/>
      <point x="144" y="544" type="line" smooth="yes"/>
      <point x="144" y="502"/>
      <point x="144" y="500"/>
      <point x="145" y="455" type="curve"/>
      <point x="144" y="455" type="line"/>
      <point x="136" y="519"/>
      <point x="117" y="539"/>
      <point x="95" y="539" type="curve" smooth="yes"/>
      <point x="49" y="539"/>
      <point x="23" y="450"/>
      <point x="23" y="254" type="curve" smooth="yes"/>
      <point x="23" y="73"/>
      <point x="46" y="-10"/>
    </contour>
    <contour>
      <point x="94" y="15" type="curve" smooth="yes"/>
      <point x="63" y="15"/>
      <point x="47" y="84"/>
      <point x="47" y="254" type="curve" smooth="yes"/>
      <point x="47" y="433"/>
      <point x="64" y="514"/>
      <point x="98" y="514" type="curve" smooth="yes"/>
      <point x="129" y="514"/>
      <point x="145" y="457"/>
      <point x="145" y="266" type="curve" smooth="yes"/>
      <point x="145" y="263" type="line" smooth="yes"/>
      <point x="145" y="107"/>
      <point x="131" y="15"/>
    </contour>
    <contour>
      <point x="168" y="27" type="line"/>
      <point x="168" y="504" type="line"/>
      <point x="255" y="504" type="line"/>
    </contour>
  </outline>
</glyph>
<glyph name="uni02A4" format="2">
  <advance width="300"/>
  <unicode hex="02A4"/>
  <anchor x="150" y="-240" name="bottom"/>
  <anchor x="150" y="760" name="top"/>
  <outline>
    <contour>
      <point x="198" y="-242" type="curve" smooth="yes"/>
      <point x="255" y="-242"/>
      <point x="279" y="-129"/>
      <point x="279" y="-8" type="curve" smooth="yes"/>
      <point x="279" y="127"/>
      <point x="250" y="208"/>
      <point x="203" y="209" type="curve"/>
      <point x="272" y="506" type="line"/>
      <point x="272" y="527" type="line"/>
      <point x="162" y="527" type="line"/>
      <point x="162" y="760" type="line"/>
      <point x="140" y="760" type="line"/>
      <point x="140" y="497" type="line" smooth="yes"/>
      <point x="140" y="475"/>
      <point x="141" y="484"/>
      <point x="141" y="459" type="curve"/>
      <point x="140" y="459" type="line"/>
      <point x="134" y="504"/>
      <point x="118" y="537"/>
      <point x="95" y="537" type="curve" smooth="yes"/>
      <point x="51" y="537"/>
      <point x="24" y="463"/>
      <point x="24" y="256" type="curve" smooth="yes"/>
      <point x="24" y="72"/>
      <point x="48" y="-10"/>
      <point x="90" y="-10" type="curve" smooth="yes"/>
      <point x="118" y="-10"/>
      <point x="134" y="35"/>
      <point x="140" y="86" type="curve"/>
      <point x="141" y="86" type="line"/>
      <point x="144" y="0" type="line"/>
      <point x="162" y="0" type="line"/>
      <point x="162" y="502" type="line"/>
      <point x="247" y="502" type="line"/>
      <point x="179" y="202" type="line"/>
      <point x="179" y="185" type="line"/>
      <point x="195" y="185" type="line" smooth="yes"/>
      <point x="235" y="185"/>
      <point x="256" y="116"/>
      <point x="256" y="-6" type="curve" smooth="yes"/>
      <point x="256" y="-131"/>
      <point x="235" y="-217"/>
      <point x="198" y="-217" type="curve" smooth="yes"/>
      <point x="180" y="-217"/>
      <point x="165" y="-204"/>
      <point x="153" y="-185" type="curve"/>
      <point x="153" y="-215" type="line"/>
      <point x="163" y="-228"/>
      <point x="177" y="-242"/>
    </contour>
    <contour>
      <point x="93" y="15" type="curve" smooth="yes"/>
      <point x="63" y="15"/>
      <point x="46" y="94"/>
      <point x="46" y="256" type="curve" smooth="yes"/>
      <point x="46" y="443"/>
      <point x="66" y="512"/>
      <point x="96" y="512" type="curve" smooth="yes"/>
      <point x="123" y="512"/>
      <point x="140" y="462"/>
      <point x="140" y="315" type="curve" smooth="yes"/>
      <point x="140" y="221" type="line" smooth="yes"/>
      <point x="140" y="77"/>
      <point x="123" y="15"/>
    </contour>
  </outline>
</glyph>
<glyph name="dzligcurl" format="2">
  <advance width="300"/>
  <unicode hex="02A5"/>
  <anchor x="156" y="0" name="bottom"/>
  <anchor x="156" y="760" name="top"/>
  <outline>
    <contour>
      <point x="237" y="-72" type="line"/>
      <point x="243" y="-46"/>
      <point x="248" y="-21"/>
      <point x="254" y="0" type="curve"/>
      <point x="317" y="0" type="line" smooth="yes"/>
      <point x="367" y="0"/>
      <point x="394" y="36"/>
      <point x="394" y="98" type="curve" smooth="yes"/>
      <point x="394" y="147"/>
      <point x="375" y="184"/>
      <point x="337" y="184" type="curve" smooth="yes"/>
      <point x="290" y="184"/>
      <point x="262" y="121"/>
      <point x="237" y="25" type="curve"/>
      <point x="179" y="25" type="line"/>
      <point x="356" y="508" type="line"/>
      <point x="356" y="528" type="line"/>
      <point x="150" y="528" type="line"/>
      <point x="150" y="760" type="line"/>
      <point x="125" y="760" type="line"/>
      <point x="125" y="543" type="line" smooth="yes"/>
      <point x="125" y="501"/>
      <point x="125" y="459"/>
      <point x="127" y="414" type="curve"/>
      <point x="125" y="414" type="line"/>
      <point x="110" y="484"/>
      <point x="77" y="538"/>
      <point x="31" y="538" type="curve" smooth="yes"/>
      <point x="-45" y="538"/>
      <point x="-94" y="437"/>
      <point x="-94" y="254" type="curve" smooth="yes"/>
      <point x="-94" y="83"/>
      <point x="-50" y="-10"/>
      <point x="28" y="-10" type="curve" smooth="yes"/>
      <point x="78" y="-10"/>
      <point x="109" y="46"/>
      <point x="125" y="113" type="curve"/>
      <point x="126" y="113" type="line"/>
      <point x="129" y="0" type="line"/>
      <point x="229" y="0" type="line"/>
      <point x="224" y="-20"/>
      <point x="220" y="-42"/>
      <point x="216" y="-64" type="curve"/>
    </contour>
    <contour>
      <point x="30" y="15" type="curve" smooth="yes"/>
      <point x="-34" y="15"/>
      <point x="-67" y="94"/>
      <point x="-67" y="254" type="curve" smooth="yes"/>
      <point x="-67" y="427"/>
      <point x="-30" y="513"/>
      <point x="33" y="513" type="curve" smooth="yes"/>
      <point x="95" y="513"/>
      <point x="125" y="426"/>
      <point x="125" y="266" type="curve" smooth="yes"/>
      <point x="125" y="263" type="line" smooth="yes"/>
      <point x="125" y="107"/>
      <point x="97" y="15"/>
    </contour>
    <contour>
      <point x="262" y="25" type="line"/>
      <point x="282" y="106"/>
      <point x="303" y="159"/>
      <point x="335" y="159" type="curve" smooth="yes"/>
      <point x="359" y="159"/>
      <point x="369" y="130"/>
      <point x="369" y="98" type="curve" smooth="yes"/>
      <point x="369" y="56"/>
      <point x="353" y="25"/>
      <point x="316" y="25" type="curve" smooth="yes"/>
    </contour>
    <contour>
      <point x="150" y="29" type="line"/>
      <point x="150" y="503" type="line"/>
      <point x="325" y="503" type="line"/>
    </contour>
  </outline>
</glyph>
<glyph name="tslig" format="2">
  <advance width="300"/>
  <unicode hex="02A6"/>
  <anchor x="150" y="0" name="bottom"/>
  <anchor x="150" y="656" name="top"/>
  <outline>
    <contour>
      <point x="119" y="-10" type="curve" smooth="yes"/>
      <point x="179" y="-10" type="line" smooth="yes"/>
      <point x="231" y="-10"/>
      <point x="259" y="42"/>
      <point x="259" y="121" type="curve" smooth="yes"/>
      <point x="259" y="210"/>
      <point x="229" y="244"/>
      <point x="197" y="279" type="curve" smooth="yes"/>
      <point x="162" y="317"/>
      <point x="142" y="340"/>
      <point x="142" y="404" type="curve" smooth="yes"/>
      <point x="142" y="473"/>
      <point x="162" y="512"/>
      <point x="198" y="512" type="curve" smooth="yes"/>
      <point x="215" y="512"/>
      <point x="232" y="503"/>
      <point x="245" y="487" type="curve"/>
      <point x="255" y="510" type="line"/>
      <point x="240" y="527"/>
      <point x="220" y="537"/>
      <point x="199" y="537" type="curve" smooth="yes"/>
      <point x="185" y="537"/>
      <point x="174" y="533"/>
      <point x="164" y="527" type="curve"/>
      <point x="72" y="527" type="line"/>
      <point x="72" y="656" type="line"/>
      <point x="55" y="656" type="line"/>
      <point x="47" y="528" type="line"/>
      <point x="19" y="521" type="line"/>
      <point x="19" y="502" type="line"/>
      <point x="47" y="502" type="line"/>
      <point x="47" y="105" type="line" smooth="yes"/>
      <point x="47" y="31"/>
      <point x="72" y="-10"/>
    </contour>
    <contour>
      <point x="124" y="15" type="line" smooth="yes"/>
      <point x="89" y="15"/>
      <point x="72" y="44"/>
      <point x="72" y="111" type="curve" smooth="yes"/>
      <point x="72" y="502" type="line"/>
      <point x="134" y="502" type="line"/>
      <point x="122" y="477"/>
      <point x="117" y="442"/>
      <point x="117" y="404" type="curve" smooth="yes"/>
      <point x="117" y="328"/>
      <point x="143" y="298"/>
      <point x="179" y="259" type="curve" smooth="yes"/>
      <point x="213" y="221"/>
      <point x="233" y="194"/>
      <point x="233" y="121" type="curve" smooth="yes"/>
      <point x="233" y="54"/>
      <point x="214" y="15"/>
      <point x="176" y="15" type="curve" smooth="yes"/>
    </contour>
  </outline>
</glyph>
<glyph name="uni02A7" format="2">
  <advance width="300"/>
  <unicode hex="02A7"/>
  <anchor x="149" y="-240" name="bottom"/>
  <anchor x="149" y="765" name="top"/>
  <outline>
    <contour>
      <point x="173" y="-242" type="curve" smooth="yes"/>
      <point x="209" y="-242"/>
      <point x="230" y="-208"/>
      <point x="230" y="-126" type="curve" smooth="yes"/>
      <point x="230" y="652" type="line" smooth="yes"/>
      <point x="230" y="716"/>
      <point x="242" y="740"/>
      <point x="267" y="740" type="curve" smooth="yes"/>
      <point x="275" y="740"/>
      <point x="284" y="737"/>
      <point x="292" y="730" type="curve"/>
      <point x="292" y="758" type="line"/>
      <point x="286" y="761"/>
      <point x="275" y="765"/>
      <point x="264" y="765" type="curve" smooth="yes"/>
      <point x="229" y="765"/>
      <point x="205" y="736"/>
      <point x="205" y="655" type="curve" smooth="yes"/>
      <point x="205" y="527" type="line"/>
      <point x="91" y="527" type="line"/>
      <point x="91" y="656" type="line"/>
      <point x="73" y="656" type="line"/>
      <point x="66" y="528" type="line"/>
      <point x="27" y="521" type="line"/>
      <point x="27" y="502" type="line"/>
      <point x="66" y="502" type="line"/>
      <point x="66" y="155" type="line" smooth="yes"/>
      <point x="66" y="58"/>
      <point x="84" y="-10"/>
      <point x="146" y="-10" type="curve" smooth="yes"/>
      <point x="169" y="-10"/>
      <point x="189" y="-1"/>
      <point x="205" y="11" type="curve"/>
      <point x="205" y="-123" type="line" smooth="yes"/>
      <point x="205" y="-190"/>
      <point x="194" y="-217"/>
      <point x="169" y="-217" type="curve" smooth="yes"/>
      <point x="158" y="-217"/>
      <point x="147" y="-210"/>
      <point x="141" y="-205" type="curve"/>
      <point x="141" y="-231" type="line"/>
      <point x="147" y="-234"/>
      <point x="159" y="-242"/>
    </contour>
    <contour>
      <point x="151" y="15" type="curve" smooth="yes"/>
      <point x="100" y="15"/>
      <point x="91" y="72"/>
      <point x="91" y="158" type="curve" smooth="yes"/>
      <point x="91" y="502" type="line"/>
      <point x="205" y="502" type="line"/>
      <point x="205" y="37" type="line"/>
      <point x="191" y="25"/>
      <point x="172" y="15"/>
    </contour>
  </outline>
</glyph>
<glyph name="tcligcurl" format="2">
  <advance width="300"/>
  <unicode hex="02A8"/>
  <anchor x="159" y="0" name="bottom"/>
  <anchor x="159" y="659" name="top"/>
  <outline>
    <contour>
      <point x="73" y="-10" type="curve" smooth="yes"/>
      <point x="184" y="-10"/>
      <point x="216" y="176"/>
      <point x="314" y="176" type="curve" smooth="yes"/>
      <point x="353" y="176"/>
      <point x="373" y="145"/>
      <point x="373" y="100" type="curve" smooth="yes"/>
      <point x="373" y="53"/>
      <point x="350" y="15"/>
      <point x="306" y="15" type="curve" smooth="yes"/>
      <point x="227" y="15"/>
      <point x="192" y="148"/>
      <point x="192" y="274" type="curve" smooth="yes"/>
      <point x="192" y="414"/>
      <point x="233" y="512"/>
      <point x="305" y="512" type="curve" smooth="yes"/>
      <point x="327" y="512"/>
      <point x="353" y="505"/>
      <point x="377" y="487" type="curve"/>
      <point x="384" y="513" type="line"/>
      <point x="360" y="529"/>
      <point x="333" y="537"/>
      <point x="306" y="537" type="curve" smooth="yes"/>
      <point x="219" y="537"/>
      <point x="166" y="431"/>
      <point x="166" y="271" type="curve" smooth="yes"/>
      <point x="166" y="111"/>
      <point x="216" y="-10"/>
      <point x="305" y="-10" type="curve" smooth="yes"/>
      <point x="363" y="-10"/>
      <point x="398" y="37"/>
      <point x="398" y="101" type="curve" smooth="yes"/>
      <point x="398" y="160"/>
      <point x="370" y="201"/>
      <point x="315" y="201" type="curve" smooth="yes"/>
      <point x="202" y="201"/>
      <point x="170" y="15"/>
      <point x="77" y="15" type="curve" smooth="yes"/>
      <point x="27" y="15"/>
      <point x="5" y="77"/>
      <point x="5" y="183" type="curve" smooth="yes"/>
      <point x="5" y="503" type="line"/>
      <point x="107" y="503" type="line"/>
      <point x="107" y="528" type="line"/>
      <point x="5" y="528" type="line"/>
      <point x="5" y="659" type="line"/>
      <point x="-17" y="659" type="line"/>
      <point x="-22" y="528" type="line"/>
      <point x="-98" y="524" type="line"/>
      <point x="-98" y="503" type="line"/>
      <point x="-22" y="503" type="line"/>
      <point x="-22" y="180" type="line" smooth="yes"/>
      <point x="-22" y="74"/>
      <point x="8" y="-10"/>
    </contour>
  </outline>
</glyph>
<glyph name="uni02A9" format="2">
  <advance width="300"/>
  <unicode hex="02A9"/>
  <anchor x="150" y="-240" name="bottom"/>
  <anchor x="150" y="766" name="top"/>
  <outline>
    <contour>
      <point x="211" y="-240" type="curve" smooth="yes"/>
      <point x="237" y="-240"/>
      <point x="261" y="-204"/>
      <point x="261" y="-120" type="curve" smooth="yes"/>
      <point x="261" y="386" type="line" smooth="yes"/>
      <point x="261" y="500"/>
      <point x="237" y="539"/>
      <point x="202" y="539" type="curve" smooth="yes"/>
      <point x="167" y="539"/>
      <point x="151" y="497"/>
      <point x="144" y="459" type="curve"/>
      <point x="142" y="459" type="line"/>
      <point x="140" y="529" type="line"/>
      <point x="66" y="529" type="line"/>
      <point x="66" y="634" type="line" smooth="yes"/>
      <point x="66" y="710"/>
      <point x="83" y="741"/>
      <point x="108" y="741" type="curve" smooth="yes"/>
      <point x="120" y="741"/>
      <point x="132" y="737"/>
      <point x="142" y="728" type="curve"/>
      <point x="147" y="754" type="line"/>
      <point x="136" y="761"/>
      <point x="125" y="766"/>
      <point x="108" y="766" type="curve" smooth="yes"/>
      <point x="70" y="766"/>
      <point x="43" y="721"/>
      <point x="43" y="642" type="curve" smooth="yes"/>
      <point x="43" y="529" type="line"/>
      <point x="14" y="526" type="line"/>
      <point x="14" y="504" type="line"/>
      <point x="43" y="504" type="line"/>
      <point x="43" y="0" type="line"/>
      <point x="66" y="0" type="line"/>
      <point x="66" y="504" type="line"/>
      <point x="123" y="504" type="line"/>
      <point x="123" y="0" type="line"/>
      <point x="146" y="0" type="line"/>
      <point x="146" y="352" type="line" smooth="yes"/>
      <point x="146" y="441"/>
      <point x="160" y="514"/>
      <point x="197" y="514" type="curve" smooth="yes"/>
      <point x="221" y="514"/>
      <point x="237" y="483"/>
      <point x="237" y="385" type="curve" smooth="yes"/>
      <point x="237" y="-116" type="line" smooth="yes"/>
      <point x="237" y="-184"/>
      <point x="225" y="-215"/>
      <point x="209" y="-215" type="curve" smooth="yes"/>
      <point x="200" y="-215"/>
      <point x="193" y="-213"/>
      <point x="185" y="-204" type="curve"/>
      <point x="185" y="-230" type="line"/>
      <point x="192" y="-236"/>
      <point x="200" y="-240"/>
    </contour>
  </outline>
</glyph>
<glyph name="uni02AA" format="2">
  <advance width="300"/>
  <unicode hex="02AA"/>
  <anchor x="149" y="0" name="bottom"/>
  <anchor x="149" y="760" name="top"/>
  <outline>
    <contour>
      <point x="173" y="-10" type="curve" smooth="yes"/>
      <point x="233" y="-10"/>
      <point x="267" y="43"/>
      <point x="267" y="128" type="curve" smooth="yes"/>
      <point x="267" y="220"/>
      <point x="234" y="249"/>
      <point x="192" y="283" type="curve" smooth="yes"/>
      <point x="154" y="314"/>
      <point x="129" y="333"/>
      <point x="129" y="406" type="curve" smooth="yes"/>
      <point x="129" y="476"/>
      <point x="153" y="513"/>
      <point x="192" y="513" type="curve" smooth="yes"/>
      <point x="214" y="513"/>
      <point x="237" y="502"/>
      <point x="253" y="485" type="curve"/>
      <point x="263" y="509" type="line"/>
      <point x="244" y="526"/>
      <point x="219" y="538"/>
      <point x="193" y="538" type="curve" smooth="yes"/>
      <point x="137" y="538"/>
      <point x="105" y="484"/>
      <point x="105" y="404" type="curve" smooth="yes"/>
      <point x="105" y="316"/>
      <point x="141" y="291"/>
      <point x="178" y="261" type="curve" smooth="yes"/>
      <point x="216" y="230"/>
      <point x="242" y="203"/>
      <point x="242" y="127" type="curve" smooth="yes"/>
      <point x="242" y="59"/>
      <point x="219" y="16"/>
      <point x="173" y="16" type="curve" smooth="yes"/>
      <point x="134" y="16"/>
      <point x="97" y="49"/>
      <point x="74" y="80" type="curve"/>
      <point x="74" y="760" type="line"/>
      <point x="50" y="760" type="line"/>
      <point x="50" y="0" type="line"/>
      <point x="74" y="0" type="line"/>
      <point x="74" y="50" type="line"/>
      <point x="93" y="25"/>
      <point x="130" y="-10"/>
    </contour>
  </outline>
</glyph>
<glyph name="uni02AB" format="2">
  <advance width="300"/>
  <unicode hex="02AB"/>
  <anchor x="150" y="0" name="bottom"/>
  <anchor x="150" y="760" name="top"/>
  <outline>
    <contour>
      <point x="62" y="0" type="line"/>
      <point x="255" y="0" type="line"/>
      <point x="255" y="25" type="line"/>
      <point x="112" y="25" type="line"/>
      <point x="253" y="509" type="line"/>
      <point x="253" y="528" type="line"/>
      <point x="86" y="528" type="line"/>
      <point x="86" y="760" type="line"/>
      <point x="62" y="760" type="line"/>
    </contour>
    <contour>
      <point x="86" y="33" type="line"/>
      <point x="86" y="503" type="line"/>
      <point x="225" y="503" type="line"/>
    </contour>
  </outline>
</glyph>
<glyph name="uni02AD" format="2">
  <advance width="300"/>
  <unicode hex="02AD"/>
  <anchor x="150" y="0" name="bottom"/>
  <anchor x="150" y="714" name="top"/>
  <outline>
    <contour>
      <point x="51" y="484" type="line"/>
      <point x="74" y="484" type="line"/>
      <point x="74" y="689" type="line"/>
      <point x="212" y="689" type="line"/>
      <point x="212" y="484" type="line"/>
      <point x="235" y="484" type="line"/>
      <point x="235" y="714" type="line"/>
      <point x="51" y="714" type="line"/>
    </contour>
    <contour>
      <point x="51" y="0" type="line"/>
      <point x="74" y="0" type="line"/>
      <point x="74" y="204" type="line"/>
      <point x="212" y="204" type="line"/>
      <point x="212" y="0" type="line"/>
      <point x="235" y="0" type="line"/>
      <point x="235" y="229" type="line"/>
      <point x="51" y="229" type="line"/>
    </contour>
  </outline>
</glyph>
<glyph name="uni02BF" format="2">
  <advance width="300"/>
  <unicode hex="02BF"/>
  <outline>
    <contour>
      <point x="181" y="575" type="curve"/>
      <point x="181" y="597" type="line"/>
      <point x="155" y="597"/>
      <point x="138" y="625"/>
      <point x="138" y="680" type="curve" smooth="yes"/>
      <point x="138" y="728"/>
      <point x="153" y="759"/>
      <point x="181" y="759" type="curve"/>
      <point x="181" y="781" type="line"/>
      <point x="144" y="781"/>
      <point x="120" y="743"/>
      <point x="120" y="680" type="curve" smooth="yes"/>
      <point x="120" y="612"/>
      <point x="144" y="575"/>
    </contour>
  </outline>
</glyph>
<glyph name="uni02C0" format="2">
  <advance width="300"/>
  <unicode hex="02C0"/>
  <outline>
    <contour>
      <point x="133" y="534" type="line"/>
      <point x="151" y="534" type="line"/>
      <point x="151" y="580" type="line"/>
      <point x="184" y="595"/>
      <point x="200" y="627"/>
      <point x="200" y="675" type="curve" smooth="yes"/>
      <point x="200" y="728"/>
      <point x="181" y="765"/>
      <point x="146" y="765" type="curve" smooth="yes"/>
      <point x="128" y="765"/>
      <point x="112" y="754"/>
      <point x="101" y="740" type="curve"/>
      <point x="108" y="720" type="line"/>
      <point x="118" y="733"/>
      <point x="130" y="743"/>
      <point x="144" y="743" type="curve" smooth="yes"/>
      <point x="169" y="743"/>
      <point x="179" y="711"/>
      <point x="179" y="675" type="curve" smooth="yes"/>
      <point x="179" y="632"/>
      <point x="163" y="607"/>
      <point x="133" y="596" type="curve"/>
    </contour>
  </outline>
</glyph>
<glyph name="uni02C4" format="2">
  <advance width="300"/>
  <unicode hex="02C4"/>
  <outline>
    <contour>
      <point x="83" y="549" type="line"/>
      <point x="98" y="549" type="line"/>
      <point x="146" y="759" type="line"/>
      <point x="202" y="549" type="line"/>
      <point x="217" y="549" type="line"/>
      <point x="152" y="778" type="line"/>
      <point x="139" y="778" type="line"/>
    </contour>
  </outline>
</glyph>
<glyph name="caron" format="2">
  <advance width="300"/>
  <unicode hex="02C7"/>
  <anchor x="149" y="528" name="_top"/>
  <anchor x="149" y="763" name="top"/>
  <outline>
    <contour>
      <point x="138" y="606" type="curve"/>
      <point x="160" y="606" type="line"/>
      <point x="174" y="650"/>
      <point x="198" y="715"/>
      <point x="216" y="757" type="curve"/>
      <point x="216" y="763" type="line"/>
      <point x="201" y="763" type="line"/>
      <point x="181" y="722"/>
      <point x="165" y="679"/>
      <point x="149" y="638" type="curve"/>
      <point x="134" y="679"/>
      <point x="115" y="728"/>
      <point x="98" y="763" type="curve"/>
      <point x="83" y="763" type="line"/>
      <point x="83" y="757" type="line"/>
      <point x="100" y="721"/>
      <point x="124" y="652"/>
    </contour>
  </outline>
</glyph>
<glyph name="breve" format="2">
  <advance width="300"/>
  <unicode hex="02D8"/>
  <anchor x="149" y="528" name="_top"/>
  <anchor x="151" y="765" name="top"/>
  <outline>
    <contour>
      <point x="150" y="608" type="curve" smooth="yes"/>
      <point x="188" y="608"/>
      <point x="212" y="648"/>
      <point x="214" y="716" type="curve"/>
      <point x="196" y="716" type="line"/>
      <point x="193" y="666"/>
      <point x="178" y="632"/>
      <point x="150" y="632" type="curve" smooth="yes"/>
      <point x="122" y="632"/>
      <point x="107" y="665"/>
      <point x="105" y="716" type="curve"/>
      <point x="86" y="716" type="line"/>
      <point x="88" y="645"/>
      <point x="113" y="608"/>
    </contour>
  </outline>
</glyph>
<glyph name="dotaccent" format="2">
  <advance width="300"/>
  <unicode hex="02D9"/>
  <outline>
    <contour>
      <point x="150" y="660" type="curve" smooth="yes"/>
      <point x="166" y="660"/>
      <point x="172" y="679"/>
      <point x="172" y="697" type="curve" smooth="yes"/>
      <point x="172" y="716"/>
      <point x="165" y="734"/>
      <point x="150" y="734" type="curve" smooth="yes"/>
      <point x="134" y="734"/>
      <point x="128" y="716"/>
      <point x="128" y="697" type="curve" smooth="yes"/>
      <point x="128" y="677"/>
      <point x="134" y="660"/>
    </contour>
  </outline>
</glyph>
<glyph name="ogonek" format="2">
  <advance width="300"/>
  <unicode hex="02DB"/>
  <outline>
    <contour>
      <point x="161" y="-217" type="curve" smooth="yes"/>
      <point x="170" y="-217"/>
      <point x="179" y="-214"/>
      <point x="185" y="-210" type="curve"/>
      <point x="185" y="-187" type="line"/>
      <point x="181" y="-190"/>
      <point x="172" y="-193"/>
      <point x="165" y="-193" type="curve" smooth="yes"/>
      <point x="145" y="-193"/>
      <point x="136" y="-172"/>
      <point x="136" y="-135" type="curve" smooth="yes"/>
      <point x="136" y="-83"/>
      <point x="152" y="-42"/>
      <point x="179" y="0" type="curve"/>
      <point x="163" y="10" type="line"/>
      <point x="132" y="-38"/>
      <point x="114" y="-87"/>
      <point x="114" y="-138" type="curve" smooth="yes"/>
      <point x="114" y="-190"/>
      <point x="132" y="-217"/>
    </contour>
  </outline>
</glyph>
<glyph name="hungarumlaut" format="2">
  <advance width="300"/>
  <unicode hex="02DD"/>
  <outline>
    <contour>
      <point x="174" y="606" type="line"/>
      <point x="189" y="606" type="line"/>
      <point x="211" y="648"/>
      <point x="242" y="721"/>
      <point x="254" y="759" type="curve"/>
      <point x="254" y="766" type="line"/>
      <point x="228" y="766" type="line"/>
      <point x="218" y="726"/>
      <point x="193" y="654"/>
      <point x="174" y="613" type="curve"/>
    </contour>
    <contour>
      <point x="97" y="606" type="line"/>
      <point x="111" y="606" type="line"/>
      <point x="135" y="648"/>
      <point x="165" y="721"/>
      <point x="177" y="759" type="curve"/>
      <point x="177" y="766" type="line"/>
      <point x="151" y="766" type="line"/>
      <point x="140" y="726"/>
      <point x="116" y="656"/>
      <point x="97" y="613" type="curve"/>
    </contour>
  </outline>
</glyph>
<glyph name="rhotichookmod" format="2">
  <advance width="300"/>
  <unicode hex="02DE"/>
  <outline>
    <contour>
      <point x="115" y="241" type="curve" smooth="yes"/>
      <point x="131" y="241"/>
      <point x="142" y="249"/>
      <point x="153" y="261" type="curve"/>
      <point x="147" y="283" type="line"/>
      <point x="138" y="273"/>
      <point x="128" y="264"/>
      <point x="116" y="264" type="curve" smooth="yes"/>
      <point x="95" y="264"/>
      <point x="90" y="294"/>
      <point x="77" y="378" type="curve" smooth="yes"/>
      <point x="73" y="402" type="line"/>
      <point x="-47" y="315" type="line"/>
      <point x="-43" y="293" type="line"/>
      <point x="60" y="374" type="line"/>
      <point x="72" y="282"/>
      <point x="84" y="241"/>
    </contour>
  </outline>
</glyph>
<glyph name="uni02F0" format="2">
  <advance width="300"/>
  <unicode hex="02F0"/>
  <outline>
    <contour>
      <point x="96" y="-207" type="line"/>
      <point x="114" y="-207" type="line"/>
      <point x="150" y="-69" type="line"/>
      <point x="186" y="-207" type="line"/>
      <point x="204" y="-207" type="line"/>
      <point x="155" y="-35" type="line"/>
      <point x="145" y="-35" type="line"/>
    </contour>
  </outline>
</glyph>
<glyph name="uni02F2" format="2">
  <advance width="300"/>
  <unicode hex="02F2"/>
  <outline>
    <contour>
      <point x="108" y="-217" type="line"/>
      <point x="193" y="-120" type="line"/>
      <point x="193" y="-97" type="line"/>
      <point x="108" y="-1" type="line"/>
      <point x="108" y="-27" type="line"/>
      <point x="176" y="-108" type="line"/>
      <point x="108" y="-190" type="line"/>
    </contour>
  </outline>
</glyph>
<glyph name="uni02FD" format="2">
  <advance width="300"/>
  <unicode hex="02FD"/>
  <outline>
    <contour>
      <point x="85" y="-187" type="line"/>
      <point x="215" y="-187" type="line"/>
      <point x="215" y="-48" type="line"/>
      <point x="197" y="-48" type="line"/>
      <point x="197" y="-162" type="line"/>
      <point x="103" y="-162" type="line"/>
      <point x="103" y="-48" type="line"/>
      <point x="85" y="-48" type="line"/>
    </contour>
  </outline>
</glyph>
<glyph name="uni02FF" format="2">
  <advance width="300"/>
  <unicode hex="02FF"/>
  <outline>
    <contour>
      <point x="153" y="-207" type="line"/>
      <point x="153" y="-176" type="line"/>
      <point x="102" y="-95" type="line"/>
      <point x="226" y="-95" type="line"/>
      <point x="226" y="-70" type="line"/>
      <point x="102" y="-70" type="line"/>
      <point x="153" y="11" type="line"/>
      <point x="153" y="43" type="line"/>
      <point x="74" y="-73" type="line"/>
      <point x="74" y="-90" type="line"/>
    </contour>
  </outline>
</glyph>
<glyph name="overlinecmb" format="2">
  <unicode hex="0305"/>
  <anchor x="0" y="527" name="_top"/>
  <anchor x="0" y="835" name="top"/>
  <outline>
    <contour>
      <point x="-77" y="835" type="line"/>
      <point x="-77" y="810" type="line"/>
      <point x="77" y="810" type="line"/>
      <point x="77" y="835" type="line"/>
    </contour>
  </outline>
</glyph>
<glyph name="candraBinducomb" format="2">
  <unicode hex="0310"/>
  <anchor x="0" y="527" name="_top"/>
  <anchor x="0" y="771" name="top"/>
  <outline>
    <contour>
      <point x="0" y="610" type="curve" smooth="yes"/>
      <point x="36" y="610"/>
      <point x="58" y="651"/>
      <point x="60" y="714" type="curve"/>
      <point x="43" y="714" type="line"/>
      <point x="42" y="667"/>
      <point x="26" y="633"/>
      <point x="0" y="633" type="curve" smooth="yes"/>
      <point x="-25" y="633"/>
      <point x="-42" y="665"/>
      <point x="-43" y="714" type="curve"/>
      <point x="-60" y="714" type="line"/>
      <point x="-59" y="645"/>
      <point x="-35" y="610"/>
    </contour>
    <contour>
      <point x="0" y="700" type="curve" smooth="yes"/>
      <point x="11" y="700"/>
      <point x="16" y="713"/>
      <point x="16" y="736" type="curve" smooth="yes"/>
      <point x="16" y="759"/>
      <point x="11" y="771"/>
      <point x="0" y="771" type="curve" smooth="yes"/>
      <point x="-12" y="771"/>
      <point x="-16" y="755"/>
      <point x="-16" y="736" type="curve" smooth="yes"/>
      <point x="-16" y="715"/>
      <point x="-12" y="700"/>
    </contour>
  </outline>
</glyph>
<glyph name="horncomb" format="2">
  <unicode hex="031B"/>
  <outline>
    <contour>
      <point x="-21" y="463" type="line"/>
      <point x="14" y="493"/>
      <point x="29" y="537"/>
      <point x="29" y="583" type="curve" smooth="yes"/>
      <point x="29" y="609"/>
      <point x="25" y="637"/>
      <point x="17" y="665" type="curve"/>
      <point x="10" y="672" type="line"/>
      <point x="-5" y="665" type="line"/>
      <point x="4" y="636"/>
      <point x="8" y="607"/>
      <point x="8" y="580" type="curve" smooth="yes"/>
      <point x="8" y="541"/>
      <point x="-4" y="505"/>
      <point x="-29" y="482" type="curve"/>
    </contour>
  </outline>
</glyph>
<glyph name="plusbelowcomb" format="2">
  <unicode hex="031F"/>
  <anchor x="0" y="0" name="_bottom"/>
  <anchor x="0" y="-197" name="bottom"/>
  <outline>
    <contour>
      <point x="-9" y="-197" type="line"/>
      <point x="9" y="-197" type="line"/>
      <point x="9" y="-130" type="line"/>
      <point x="38" y="-130" type="line"/>
      <point x="38" y="-105" type="line"/>
      <point x="9" y="-105" type="line"/>
      <point x="9" y="-38" type="line"/>
      <point x="-9" y="-38" type="line"/>
      <point x="-9" y="-105" type="line"/>
      <point x="-39" y="-105" type="line"/>
      <point x="-39" y="-130" type="line"/>
      <point x="-9" y="-130" type="line"/>
    </contour>
  </outline>
</glyph>
<glyph name="hookretroflexbelowcomb" format="2">
  <unicode hex="0322"/>
  <outline>
    <contour>
      <point x="8" y="-235" type="curve"/>
      <point x="16" y="-235"/>
      <point x="24" y="-230"/>
      <point x="29" y="-226" type="curve"/>
      <point x="29" y="-201" type="line"/>
      <point x="25" y="-205"/>
      <point x="18" y="-210"/>
      <point x="11" y="-210" type="curve" smooth="yes"/>
      <point x="-1" y="-210"/>
      <point x="-8" y="-191"/>
      <point x="-8" y="-155" type="curve" smooth="yes"/>
      <point x="-8" y="31" type="line"/>
      <point x="-30" y="31" type="line"/>
      <point x="-30" y="-159" type="line" smooth="yes"/>
      <point x="-30" y="-205"/>
      <point x="-18" y="-235"/>
    </contour>
  </outline>
</glyph>
<glyph name="bridgebelowcomb" format="2">
  <unicode hex="032A"/>
  <anchor x="0" y="0" name="_bottom"/>
  <anchor x="0" y="-185" name="bottom"/>
  <outline>
    <contour>
      <point x="-60" y="-185" type="line"/>
      <point x="-42" y="-185" type="line"/>
      <point x="-42" y="-71" type="line"/>
      <point x="42" y="-71" type="line"/>
      <point x="42" y="-185" type="line"/>
      <point x="60" y="-185" type="line"/>
      <point x="60" y="-47" type="line"/>
      <point x="-60" y="-47" type="line"/>
    </contour>
  </outline>
</glyph>
<glyph name="dblarchinvertedbelowcomb" format="2">
  <unicode hex="032B"/>
  <anchor x="0" y="0" name="_bottom"/>
  <anchor x="0" y="-167" name="bottom"/>
  <outline>
    <contour>
      <point x="-30" y="-167" type="curve" smooth="yes"/>
      <point x="-14" y="-167"/>
      <point x="-5" y="-142"/>
      <point x="0" y="-116" type="curve"/>
      <point x="5" y="-142"/>
      <point x="13" y="-167"/>
      <point x="29" y="-167" type="curve" smooth="yes"/>
      <point x="48" y="-167"/>
      <point x="65" y="-144"/>
      <point x="65" y="-61" type="curve"/>
      <point x="50" y="-61" type="line"/>
      <point x="50" y="-106"/>
      <point x="44" y="-146"/>
      <point x="29" y="-146" type="curve" smooth="yes"/>
      <point x="14" y="-146"/>
      <point x="8" y="-106"/>
      <point x="8" y="-61" type="curve"/>
      <point x="-8" y="-61" type="line"/>
      <point x="-8" y="-105"/>
      <point x="-16" y="-146"/>
      <point x="-30" y="-146" type="curve" smooth="yes"/>
      <point x="-45" y="-146"/>
      <point x="-49" y="-104"/>
      <point x="-49" y="-61" type="curve"/>
      <point x="-65" y="-61" type="line"/>
      <point x="-65" y="-142"/>
      <point x="-49" y="-167"/>
    </contour>
  </outline>
</glyph>
<glyph name="strokelongoverlaycomb" format="2">
  <unicode hex="0336"/>
  <anchor x="0" y="283" name="_center"/>
  <outline>
    <contour>
      <point x="-138" y="270" type="line"/>
      <point x="138" y="270" type="line"/>
      <point x="138" y="295" type="line"/>
      <point x="-138" y="295" type="line"/>
    </contour>
  </outline>
</glyph>
<glyph name="ringhalfrightbelowcomb" format="2">
  <unicode hex="0339"/>
  <anchor x="0" y="0" name="_bottom"/>
  <anchor x="0" y="-231" name="bottom"/>
  <outline>
    <contour>
      <point x="-31" y="-231" type="line"/>
      <point x="8" y="-231"/>
      <point x="31" y="-194"/>
      <point x="31" y="-126" type="curve" smooth="yes"/>
      <point x="31" y="-63"/>
      <point x="8" y="-25"/>
      <point x="-31" y="-25" type="curve"/>
      <point x="-31" y="-47" type="line"/>
      <point x="-2" y="-47"/>
      <point x="13" y="-78"/>
      <point x="13" y="-126" type="curve" smooth="yes"/>
      <point x="13" y="-181"/>
      <point x="-5" y="-209"/>
      <point x="-31" y="-209" type="curve"/>
    </contour>
  </outline>
</glyph>
